<svg id="Layer_1" data-name="Layer 1" xmlns="http://www.w3.org/2000/svg" viewBox="0 0 800 600"><defs><style>.cls-1{fill:#fff;}</style></defs><g id="Abbott"><path class="cls-1" d="M216.27,200.24H0v33.21H205.48v0a10.7,10.7,0,0,1,10.71,10.71V355.81l0,.07a10.74,10.74,0,0,1-10.74,10.66H44a10.75,10.75,0,0,1-10.74-10.73V310.69A10.74,10.74,0,0,1,44,300H182.89V266.79H33.13A33.09,33.09,0,0,0,0,299.88v66.75a33.13,33.13,0,0,0,33.13,33.13H216.27a33.11,33.11,0,0,0,33.12-33.13V233.36a33.1,33.1,0,0,0-33.12-33.12"/><path class="cls-1" d="M373,244.87l26,77.71c3.1,9.47,5.28,11.67,10.7,11.67H415v13.67H358.23V334.25h4.63c4.67,0,8.58-.63,8.58-2.34a21.65,21.65,0,0,0-.78-5.6l-3.27-11.19H335.66l-1.85,6.21c-1.72,5.44-2.33,7.77-2.33,9.94,0,2.51,5.44,3,9.65,3h4.48v13.67H299.93V334.25h5.27c5.45,0,7.62-2.2,10.74-11.67l26-77.71H373m-32.83,56.59h22.57L351.53,268h-.3Z"/><path class="cls-1" d="M424,264c0-4.36-1.09-6.68-5.59-6.68h-7.15V244.87h38.56v38.69c5.74-6.54,13.05-10.72,20-10.72,23.32,0,32,18.2,32,38.7s-8.68,38.69-32,38.69c-9.79,0-18.49-3.4-23.94-12l-4.5,9.65H424V264m25.82,47.56c0,15.85,3.56,25.35,12.27,25.35s12.28-9.5,12.28-25.35-3.56-25.32-12.28-25.32-12.27,9.47-12.27,25.32"/><path class="cls-1" d="M511.17,264c0-4.36-1.11-6.68-5.59-6.68h-7.15V244.87H537v38.69C542.73,277,550,272.84,557,272.84c23.3,0,32,18.2,32,38.7s-8.72,38.69-32,38.69c-9.82,0-18.5-3.4-24-12l-4.5,9.65H511.17V264M537,311.54c0,15.85,3.58,25.35,12.27,25.35s12.28-9.5,12.28-25.35-3.57-25.32-12.28-25.32S537,295.69,537,311.54"/><path class="cls-1" d="M676.72,311.54c0,24.87-17,38.69-40.11,38.69s-40.11-13.82-40.11-38.69,17-38.7,40.11-38.7,40.11,13.83,40.11,38.7m-52.7,0c0,18.33,3.26,26.26,12.59,26.26s12.6-7.93,12.6-26.26-3.27-26.27-12.6-26.27S624,293.2,624,311.54"/><path class="cls-1" d="M787.55,312.79v12.13c0,7.12-1.54,11.35-7.46,11.35-3.58,0-5.28-2.66-5.28-5.92V287.59h19.1v-12.4h-19.1V246.27H759.42c-1.26,12.89-5.28,28.92-20.82,28.92H714.34V246.27H699c-1.27,12.89-5.29,28.92-20.84,28.92v12.4h10.43v39c0,15.85,8.85,23.59,24.86,23.59,18.66,0,26.09-8.37,26.09-23.59V312.79H727.11v12.13c0,7.12-1.57,11.35-7.49,11.35-3.57,0-5.28-2.66-5.28-5.92V287.59H749v39c0,15.85,8.84,23.59,24.85,23.59,18.66,0,26.13-8.37,26.13-23.59V312.79H787.55"/></g></svg>