<svg id="Layer_1" data-name="Layer 1" xmlns="http://www.w3.org/2000/svg" viewBox="0 0 800 600"><defs><style>.cls-1{fill:#fff;}</style></defs><g id="Adobe"><path class="cls-1" d="M267.43,504.63l-4.23-25.2c-1.22-7.26-2.79-18.59-3.95-26.45h-.47c-1.25,7.92-3,19.59-4.26,26.51l-4.58,25.14ZM247.68,521,242.14,549H221.73l25.45-116.26h25L295.34,549H274.81L269.4,521Z"/><path class="cls-1" d="M341.78,497.05a30.61,30.61,0,0,0-.28-5c-.82-5.76-3.89-10.93-8.78-10.93-8.42,0-11.53,12.16-11.53,26.35,0,16.3,4.42,25.61,11.23,25.61,3.12,0,6.7-1.61,8.64-8.45a16.59,16.59,0,0,0,.72-5.32Zm21-67.43v95.23c0,7.57.41,16.86.69,24.12H345.35l-1.19-9.7h-.43c-3,6-9.64,11.06-17.55,11.06-17.34,0-25.93-19.12-25.93-43.26,0-29.43,12.82-43.74,26.79-43.74,7.31,0,12,3.59,14.41,8.76h.33V429.62Z"/><path class="cls-1" d="M406.38,534.25c8,0,10-15.08,10-27.55,0-11.86-2-27.3-10.32-27.3-8.85,0-10.71,15.44-10.71,27.3,0,14.32,2.35,27.55,10.89,27.55ZM406,550.33c-19.3,0-31.41-15.51-31.41-43.24,0-30.29,15.53-43.76,31.87-43.76,19.05,0,31,16.27,31,43.24,0,34.7-18.72,43.76-31.3,43.76Z"/><path class="cls-1" d="M470.13,518.89a17.45,17.45,0,0,0,.83,5.37c2.09,7.06,5.65,8.8,8.53,8.8,8.09,0,11.35-10.28,11.35-26.7,0-14.95-3.46-25.26-11.45-25.26-4,0-7.31,4.32-8.47,9a22.62,22.62,0,0,0-.79,5.3Zm-20.95-89.27h20.95v43.9h.33c4.13-6.48,9.63-10.19,17.6-10.19,15.8,0,23.72,18,23.72,41.44,0,29.68-11.82,45.56-27.14,45.56-7.31,0-12.19-3.23-16.56-11.44h-.45L466.46,549h-18c.29-7,.7-16.55.7-24.12Z"/><path class="cls-1" d="M562,498.79c.11-11.83-3.36-20.1-10-20.1-7.6,0-10.82,11.1-11.06,20.1Zm-21.1,14.83c.24,15.22,8.25,20.2,18.2,20.2a44.33,44.33,0,0,0,15.7-2.92L577.6,546c-5.54,2.41-14.13,3.91-22.34,3.91-22.51,0-34.77-15.36-34.77-41.6,0-28.16,14.24-45.07,32.86-45.07,17.95,0,27.91,14.94,27.91,39.34a76.32,76.32,0,0,1-.59,11.18Z"/><polygon class="cls-1" points="447.26 49.66 581.27 49.66 581.27 370.53 447.26 49.66"/><polygon class="cls-1" points="352.84 49.66 218.73 49.66 218.73 370.53 352.84 49.66"/><polygon class="cls-1" points="400.05 167.91 485.45 370.52 429.49 370.52 403.94 305.99 341.45 305.99 400.05 167.91"/></g></svg>