<svg id="Layer_1" data-name="Layer 1" xmlns="http://www.w3.org/2000/svg" viewBox="0 0 800 600"><defs><style>.cls-1{fill:#fff;}</style></defs><g id="Aera"><path class="cls-1" d="M546.64,309.08h64.28c-2.89-19.06-16.55-27.92-31-27.92-18.09,0-30.61,11.17-33.29,27.92m34.83,41.76c13.28,0,22.91-6.16,27.71-14l14.24,8.08C615,358,600.33,366.62,581.08,366.62c-31,0-51.58-21.75-51.58-50.61,0-28.49,20.41-50.63,50.43-50.63,29.06,0,47.93,23.87,47.93,50.82a49.86,49.86,0,0,1-.58,7.5H546.64c3.27,17.32,16.93,27.14,34.83,27.14"/><path class="cls-1" d="M693.31,266.16v17.51c-14.44-.58-30,6.73-30,29.45v51H646.54V267.89h16.74v16.17c6.16-13.48,17.9-17.9,30-17.9"/><path class="cls-1" d="M783.25,316c0-19.63-14.81-34.46-34.25-34.46-19.25,0-34.07,14.83-34.07,34.46s14.82,34.44,34.07,34.44c19.44,0,34.25-14.81,34.25-34.44M800,267.89v96.23H783.25V347.57c-7.69,11.73-20,19.05-36.37,19.05-26.75,0-48.69-22.13-48.69-50.61s21.94-50.63,48.69-50.63c16.36,0,28.68,7.32,36.37,19.06V267.89Z"/><path class="cls-1" d="M488,317.15l-24.25-66.39L439.7,317.15Zm6.16,16.75H433.55l-11,30.22H403.52L453.75,229.4H474L524.2,364.12H505.15Z"/><path class="cls-1" d="M223.35,334.52c-9.5.84-16.32,13.84-23.71,29.26h64.68c-16.74,0-21.48-29.12-41-29.26"/><path class="cls-1" d="M28.42,431.87C63,446.3,111.31,458,111.31,458s-32.9-16.22-24.45-89.61c8.36-72.54,60.06-215.77,99.81-227.91h-57.6c-27.25,0-68.62,61.46-100.13,134.23-33.09,76.42-43.52,139.24-.52,157.17"/><path class="cls-1" d="M106.94,390.78c-6.53,10-10.85,14.18-17.44,18.92,4.68,30.71,16.38,44.83,20.61,47.57l1.2.72s29.28,13.33,55.93-38.38,38.54-85.09,56.35-85.09H161c-27.56,0-41.19,36.57-54,56.26"/><path class="cls-1" d="M274.54,266.41c-19.8-80.71-68.13-125.94-87.88-125.94-7.64,3.42-14.91,12-21.44,22.09,48.43,56.34,46.4,142.12,38.54,169.14,12.34-.27,22.32-1.22,29.31,2.86,5.56,3.24,16.6,20.29,22,28.91,3.29.2,6.45.31,9.4.31C287.61,363.78,287.61,319.7,274.54,266.41Z"/></g></svg>