<svg id="Layer_1" data-name="Layer 1" xmlns="http://www.w3.org/2000/svg" viewBox="0 0 800 600"><defs><style>.cls-1{fill:#fff;}</style></defs><g id="Appian"><path class="cls-1" d="M98.2,382.49H63.39c26.06-73.72,51.94-146.89,78-220.61H202v220c-9.52,2.36-19,.77-30.11,1.47V307.21c-16.78,5.45-31.61,10.13-46.33,15.11-6.74,2.29-10.16,7.71-12.26,14.3-4.88,15.25-10,30.43-15,45.87m72.48-185.87c-4.79-.79-8.23-1.25-12.45,1.15-9.86,30.62-20,62-30.75,95.46,16.3-5.8,30.29-8.66,43.2-14.64Z"/><path class="cls-1" d="M223.35,225c9.29-1.34,18.32-.56,26.34-.54,3.77,1.52,1.61,5.45,5.13,6.9a44.76,44.76,0,0,1,31.09-9.68c23.65,1.41,37.88,13.7,38.85,37.34,1.21,29.59,1.34,59.31,0,88.89-1.37,30.4-29.48,45.87-59,33.94-3.18-1.28-6.19-3-10.73-5.23v61.51H223.35Zm68.2,78.35c0-13,.38-26.11-.12-39.14-.45-11.5-6-16.43-17.26-16.72-12-.31-18.85,4.66-19.11,16.31-.6,26.08-.64,52.2,0,78.28.29,11.59,7.42,16.61,19.33,16.16,11.07-.41,16.56-5.47,17-17.05.48-12.6.11-25.22.13-37.84"/><path class="cls-1" d="M343.88,224.66h26.78c3.25,1.19,1.23,5,4.1,6.52a15.7,15.7,0,0,0,3.22-1.45c14.5-10.67,30.16-10,45.93-4.06,15.61,5.88,21.06,19.49,21.49,34.4.85,29.17,1.21,58.43-.07,87.56-1.33,30.25-29.44,45.94-58.86,34.42-3.56-1.4-6.39-4.65-11.44-4.33v60.39H343.88Zm68.19,78.1c0-12.61.34-25.24-.09-37.84-.42-12.35-5.88-17.32-17.85-17.44s-18.37,4.92-18.61,16.86q-.81,38.49,0,77c.25,11.77,6.93,17,18.68,16.9s17.38-5.43,17.78-17.64c.4-12.6.08-25.23.08-37.85"/><path class="cls-1" d="M615.69,382.55H585.75c-.62-2.07-1.23-4.08-1.92-6.37a15.24,15.24,0,0,0-3.34,1.34c-15.48,10.86-32,9.85-48.62,3.74-11.25-4.14-17.35-13.06-18.08-24.95-.61-10-.35-20.05-.32-30.07.06-14.85,7.34-24.73,21.21-29.62,11.47-4.05,23.06-7.76,34.6-11.62,4.06-1.36,8.11-2.74,11.94-4,2.51-23.27-.28-30.09-12.86-32.15-14-2.29-18.47,3.12-22.51,27.57-9.2,1.8-18.61.83-27.91.55-7-29.14,5.14-48.22,33.47-53.9,12.73-2.56,25.26-1.68,37.55,1.58,17.29,4.59,26.43,18.36,26.65,40.2.3,30.53.08,61.06.08,91.59ZM582,306.9c-9.2,3-17,5.51-24.75,8.07-6,2-9.13,6.11-10.22,12.28a60.8,60.8,0,0,0-.35,20.75c1.61,9.78,7.36,14.22,17.25,14.09,10.35-.14,17.33-5.32,17.89-15.14.74-12.87.18-25.82.18-40.05"/><path class="cls-1" d="M636,224.83h29.19l1.65,7.46c1.88.09,3.24-.92,4.63-2,9.37-7.52,20.2-9.94,31.91-8.58,19.57,2.28,32.66,14.44,32.9,32.63.54,42.25.17,84.52.17,127.31-10.55,3.07-20.84.57-30.44,1.46-4.07-5.1-2.56-10.09-2.58-14.71-.14-31.38-.05-62.77-.1-94.15a88.52,88.52,0,0,0-.61-13c-1.36-9.26-6.52-13.48-16-13.72s-15.39,3.65-17.35,12.36c-.94,4.18-.8,8.65-.8,13-.06,36.15,0,72.3,0,109-10.83,2.39-21.15,1.05-32.52,1Z"/><path class="cls-1" d="M495.24,382.42h-31V225.07c10.18-1.49,20.05-.59,31-.68Z"/><path class="cls-1" d="M479.88,164.78a215.69,215.69,0,0,1,23.36,23.38L479.29,209c-6.08-6.33-13.49-14.06-21.5-22.42,5.24-6.7,13.11-14,22.09-21.82"/></g></svg>