<svg id="Layer_1" data-name="Layer 1" xmlns="http://www.w3.org/2000/svg" viewBox="0 0 800 600"><defs><style>.cls-1{fill:#fff;}</style></defs><g id="Apptio"><path class="cls-1" d="M792.76,265.89h.68c.79,0,1.42-.26,1.42-.9s-.41-.94-1.31-.94a4.08,4.08,0,0,0-.79.07Zm0,3.48H791.3v-6.15a12.87,12.87,0,0,1,2.37-.18,3.77,3.77,0,0,1,2.13.45,1.69,1.69,0,0,1,.6,1.35,1.57,1.57,0,0,1-1.27,1.42v.08a1.82,1.82,0,0,1,1.12,1.49,4.72,4.72,0,0,0,.45,1.54h-1.54a5.18,5.18,0,0,1-.48-1.5c-.12-.67-.49-1-1.28-1h-.67Zm-3.79-3.22a4.76,4.76,0,0,0,4.8,4.91,4.91,4.91,0,0,0,0-9.82,4.77,4.77,0,0,0-4.76,4.91m11.06,0a6.32,6.32,0,1,1-6.3-6.15,6.18,6.18,0,0,1,6.3,6.15"/><path class="cls-1" d="M298.69,283.7l-14.32,23.12H313Zm-29.6,47.71H247.18L287,267.47h25l39.86,63.94H328.28l-5.95-9.58H275.05Z"/><path class="cls-1" d="M413.62,301.55c7.77,0,9.84-2.14,9.84-8.88s-2.24-9-10-9H380.66v17.85Zm-54.1-33.65h55.83c17.17,0,29.42,4.06,29.42,24.25,0,19.59-12.42,24.08-29.6,24.08H380.66v15.18H359.52Z"/><path class="cls-1" d="M509.57,301.55c7.77,0,9.84-2.14,9.84-8.88s-2.24-9-10-9H476.62v17.85ZM455.48,267.9H511.3c17.17,0,29.42,4.06,29.42,24.25,0,19.59-12.42,24.08-29.59,24.08H476.62v15.18H455.48Z"/><polygon class="cls-1" points="582.74 283.87 547.03 283.87 547.03 267.9 639.68 267.9 639.68 283.87 603.97 283.87 603.97 331.41 582.74 331.41 582.74 283.87"/><rect class="cls-1" x="651.95" y="267.9" width="21.32" height="63.51"/><path class="cls-1" d="M767,299.65c0-16.55-7-17.42-29.59-17.42s-29.07.78-29.07,17.25,6.47,17.87,29.25,17.87c23.12,0,29.41-1.22,29.41-17.7m-81.61,0c0-27.86,16-33.63,52.2-33.63s52.37,5.6,52.37,33.46-16.4,33.4-52.55,33.4-52-5.35-52-33.23"/><path class="cls-1" d="M199.12,307.43c.11-1.37.12-2.76.17-4.15l15.68.55c0-1.27.06-2.55.06-3.83s0-2.57-.06-3.85l-15.68.55c0-1.38-.06-2.77-.17-4.14l-15.64,1.25a75,75,0,0,0-2-12.2l15.24-3.76a91.63,91.63,0,0,0-4.35-13.15l14.43-6a108.84,108.84,0,0,0-5-10.39L188,255.91c.93,1.68,1.78,3.41,2.6,5.15l-14.05,6.6a64.33,64.33,0,0,0-8-13.7l12.18-9.56c1.08,1.37,1.12,1.74,2.11,3.16l13-9.05a107.23,107.23,0,0,0-9.68-11.94l-11.54,10.8c1.12,1.2,1.07,1.36,2.12,2.62l-11.88,10a59,59,0,0,0-7.56-7.68l10.14-11.78c.86.74,1.7,1.47,2.53,2.24l10.74-11.6a108.61,108.61,0,0,0-15.19-11.75L157,222.59a70.41,70.41,0,0,0-12.89-7l-5.92,14.54c-.76-.31-3.45-1.37-4.23-1.66l5.44-14.71c-2.05-.76-4.14-1.41-6.24-2l4.36-15a110.1,110.1,0,0,0-11.26-2.61l-2.7,15.42c-1.46-.26-2.93-.5-4.4-.69l-2,15.56c-.81-.1-3.83-.18-4.65-.25L114,208.51a34.56,34.56,0,0,0-3.53-.34l.5-15.64c-1.13,0-2.27-.05-3.41-.05a107.52,107.52,0,0,0,0,215c1.14,0,1.56,0,2.69,0l-.51-15.64c1.62-.05,3.74-.13,5.5-.26l1.91,15.62,8.45-1.14-3.3-15.56-6.13.88-1.45-15.61c-2.37.22-4.78.33-7.16.33V360.42a60.42,60.42,0,0,1,0-120.84,59.86,59.86,0,0,1,27,6.34l7-14c1.06.53,4.36,2.46,5.38,3l-7.34,13.8a61,61,0,0,1,23.33,26.95l14.32-6.31c.47,1.07,2,5.47,2.44,6.56l-14.46,5.88A60.49,60.49,0,0,1,158.8,332l13.25,8.28a74.68,74.68,0,0,1-6.21,8.62l12,10c-1.06,1.26-2.13,2.5-3.25,3.7l11.55,10.79a108.75,108.75,0,0,0,11.81-15.14l-13.19-8.51a93.48,93.48,0,0,0,6.92-12.7l-14.32-6.8c.3-.77,1.77-4,2-4.77l14.8,5.24c.55-1.57,1.07-3.15,1.54-4.76l15,4.42a106.75,106.75,0,0,0,2.66-11.24L198,316.35c.35-2,.66-2,.88-4l-15.61-1.76c.09-.82.19-3.61.25-4.43Z"/><path class="cls-1" d="M167.34,369.43l-10.16-11.78a54.23,54.23,0,0,1-8.3,6.21l-8.43-13.35c-.79.49-6.56,3.86-6.56,3.86l7.52,13.76s5.6-2.92,5.88-3.09l8.19,13.36a91.48,91.48,0,0,0,9.52-6.79l9.83,12.23c2-1.6,4-3.3,5.82-5L169.9,367.23c-.83.76-1.7,1.47-2.56,2.2"/><path class="cls-1" d="M133.77,388.1a91.17,91.17,0,0,0,11.73-4.44L152,397.92a107,107,0,0,0,10.24-5.33L154.15,379l-5,2.89-7.7-13.74a75.19,75.19,0,0,1-12.16,4.81Z"/></g></svg>