<svg id="Layer_1" data-name="Layer 1" xmlns="http://www.w3.org/2000/svg" viewBox="0 0 800 600"><defs><style>.cls-1,.cls-2{fill:#fff;}.cls-1{fill-rule:evenodd;}</style></defs><g id="Autodesk"><path class="cls-1" d="M484.63,333.69v-79c18.06,1.08,36.4-3.47,53.15,7,13.8,8.63,20.38,24.4,17.09,41.78-2.74,14.52-16.69,28.66-31.65,30-12.69,1.11-25.57.23-38.59.23M499,267.33V321.5c7.1,0,13.94.84,20.49-.17,13.44-2.07,22.49-13.59,22.24-26.91-.25-13.88-8.88-24-23-26-6.22-.91-12.61-.72-19.78-1.08"/><path class="cls-1" d="M385.52,294c.86-22.87,20-41.38,42-40.57,22.78.85,41.66,20.15,40.46,42C466.56,320.68,448,336.18,426,335.88c-23.06-.32-41.32-20-40.5-41.84m14-.18c-.48,15.75,11.15,28.75,26.29,29.35,14.95.6,27.48-11.71,28.09-27.58.59-15.58-11.33-28.86-26.31-29.32S400,278.1,399.51,293.86"/><polygon class="cls-1" points="627.09 321.43 627.09 334.07 570.56 334.07 570.56 254.73 627.08 254.73 627.08 266.92 584.94 266.92 584.94 287.6 611.66 287.6 611.66 300.13 584.77 300.13 584.77 321.43 627.09 321.43"/><path class="cls-2" d="M743.27,292c10.88-11.84,23.67-25.73,35.42-38.51H760.43l-34.58,35.93V253.5H712.29v79.43h13.83V293.09S751,318.46,763.9,333h18.72c-12.72-13.26-28.48-29.64-39.35-41"/><path class="cls-2" d="M192.61,253.45l-13.41.14-35.1,79.89h15.31l7.87-19.11h37.09l8.16,19.11h15.18Zm-20.17,48.36,13-31.67L199,301.81Z"/><polygon class="cls-2" points="318.18 265.72 343.57 265.72 343.57 333.2 356.7 333.2 356.7 265.86 377.67 265.86 383.05 253.45 318.18 253.45 318.18 265.72"/><path class="cls-2" d="M670.5,287.28C651.91,282,654.06,274.09,655,271.86s4.1-6.17,16-6.17a43.39,43.39,0,0,1,20.22,4.89l5.19-10.53c-.33-.53-9.84-6.28-25.63-6.6s-29.73,8.73-29.73,21.28,7.61,18.51,22.6,22.87c17,4.93,22.16,9.25,22.16,15.53S682.37,324,670.05,324c-10.54,0-23.27-8.3-26.42-10.69l-5,10.61c4.08,2.7,19.08,11.25,32.28,11.25,14.92,0,27.46-7.34,27.9-22.55s-11.44-20.55-28.33-25.32"/><path class="cls-2" d="M288,300.89a19.9,19.9,0,1,1-39.8,0V253.45H233.39v46.26a34.66,34.66,0,1,0,69.32,0V253.45H288Z"/><path class="cls-2" d="M800,328a5.14,5.14,0,1,1-5.13-5,5,5,0,0,1,5.13,5m-9,0a3.88,3.88,0,0,0,3.9,4,3.84,3.84,0,0,0,3.82-4,3.86,3.86,0,1,0-7.72,0m3.08,2.62h-1.16v-5a10.32,10.32,0,0,1,1.92-.15,3.14,3.14,0,0,1,1.74.36,1.38,1.38,0,0,1,.49,1.1,1.28,1.28,0,0,1-1,1.16v.06a1.48,1.48,0,0,1,.92,1.22,3.52,3.52,0,0,0,.37,1.25h-1.25a3.93,3.93,0,0,1-.4-1.22c-.09-.55-.4-.79-1-.79h-.55Zm0-2.83h.55c.64,0,1.16-.22,1.16-.73s-.34-.77-1.07-.77a2.84,2.84,0,0,0-.64.06Z"/><path class="cls-2" d="M42.67,232.35a6.29,6.29,0,0,0-5,2.44l0,0L.67,322.64a3.19,3.19,0,0,1-.11.34,7,7,0,0,0,0,5.57l.41.76a8.73,8.73,0,0,0,6.62,3.85H34.35l28.05-66c-7.11-16.82-12.45-29.39-13.22-31a6.68,6.68,0,0,0-6.51-3.79"/><path class="cls-2" d="M7.61,333.16A8.73,8.73,0,0,1,1,329.31l10.43,19.3,8.45,15.64c1.87,3.35,6.56,3.72,6.56,3.72,4.86.33,13.84-4.18,15.61-5.2s42.62-26.23,48.1-29.61H7.61Z"/><path class="cls-2" d="M1,329.31l-.41-.76a6.93,6.93,0,0,0,.41.76"/><polyline class="cls-2" points="37.61 234.82 37.61 234.82 37.61 234.82"/><path class="cls-2" d="M37.64,234.79l0,0,0,0"/><path class="cls-2" d="M87.21,235.33s-1-3.4-5.68-3.39l-14.12,0c-10.8,0-24,0-24.89,0a6.84,6.84,0,0,0-4.88,2.84,6.29,6.29,0,0,1,5-2.44,6.68,6.68,0,0,1,6.51,3.79c.77,1.62,6.12,14.19,13.22,31,15.5,36.69,39.38,93.58,42.48,101h38.36Z"/></g></svg>