<svg id="Layer_1" data-name="Layer 1" xmlns="http://www.w3.org/2000/svg" viewBox="0 0 800 600"><defs><style>.cls-1{fill:#fff;}</style></defs><g id="BD"><path class="cls-1" d="M320.22,275.67l-117.7,49.41L84.74,275.65A112.63,112.63,0,0,0,82.22,300c0,66,53.84,119.48,120.25,119.48S322.72,366,322.72,300a126.34,126.34,0,0,0-2.5-24.3M202.47,398.55c-41.16,0-74.88-33.42-78.14-75.89L147.67,333l.27,0c6.12,23.91,26,41.87,50.18,43.81a18,18,0,1,1,8.72,0c24.34-2,44.37-20.19,50.31-44.4h0l23.55-11.16c-2.6,43.14-36.63,77.3-78.23,77.3"/><path class="cls-1" d="M201.51,180.55a120.34,120.34,0,0,0-51.07,11.71l41.84,62.63Z"/><path class="cls-1" d="M254.26,192.15a120.41,120.41,0,0,0-50.84-11.6l9.12,74.73Z"/><path class="cls-1" d="M296.13,225.09a120.46,120.46,0,0,0-40.54-32.29L232.4,262.6Z"/><path class="cls-1" d="M319.68,273.31a118.54,118.54,0,0,0-21.92-46.17L248.61,278Z"/><path class="cls-1" d="M107.7,226.49A118.51,118.51,0,0,0,85.1,274l70.71,4.4Z"/><path class="cls-1" d="M149,193a120.59,120.59,0,0,0-40.11,32l63.4,37.87Z"/><path class="cls-1" d="M492.6,295.46s25.59-9.35,25.59-40.68c0,0,.2-45.81-46.07-47.09h-98v29.4h19.17V396.87h67.49s62.54.18,62.54-53.32c0,0,2.74-35.45-30.69-48.09m-64.82-58.37h24.44c31.95,0,29.31,24.29,29.31,24.29.07,24.48-28.92,24.28-28.92,24.28H427.78Zm59.37,101.62c0,25.4-26.46,27.48-26.46,27.48H427.78v-55h33.49c27.06,0,25.88,27.48,25.88,27.48"/><path class="cls-1" d="M612.89,207.69H544.1v29.4h19.17V396.87h48.05s106.39,7.1,106.39-94.59c0,0,6.27-94.59-104.82-94.59m68,93.93c0,75.35-81.82,65-81.82,65V236.46c86.92-6.53,81.82,65.16,81.82,65.16"/></g></svg>