<svg id="Layer_1" data-name="Layer 1" xmlns="http://www.w3.org/2000/svg" viewBox="0 0 800 600"><defs><style>.cls-1{fill:#fff;}</style></defs><g id="Blackline"><path class="cls-1" d="M219.8,356.83c0-5.38-4-8.69-13-8.69H186.45v17.6h20.89c7.77,0,12.46-2.74,12.46-8.68Zm-4.46-32c0-5.26-4.11-8.23-11.53-8.23H186.45v16.91h16.22c7.75,0,12.67-2.51,12.67-8.46Zm-8,56.31h-38v-80h37.11c16.33,0,26.39,8.1,26.39,20.66v.24c0,9-4.8,14-10.51,17.24,9.25,3.54,15,8.91,15,19.64v.24c0,14.61-11.88,21.93-29.93,21.93"/><path class="cls-1" d="M347.2,321.76l-10.62,25.93h21.24Zm24.21,59.4-7.3-17.94H330.3L323,381.16H305.06l34.26-80.53h16.22l34.25,80.53Z"/><path class="cls-1" d="M430.53,382.52c-23.53,0-41-18.16-41-41.12v-.22c0-22.73,17.13-41.34,41.69-41.34,15.07,0,24.1,5,31.51,12.33l-11.19,12.9c-6.16-5.59-12.44-9-20.43-9-13.49,0-23.2,11.2-23.2,24.9v.23c0,13.71,9.49,25.12,23.2,25.12,9.13,0,14.73-3.65,21-9.36l11.19,11.31c-8.22,8.79-17.36,14.27-32.78,14.27"/><polygon class="cls-1" points="525.05 381.15 500.28 347.12 491.03 356.71 491.03 381.15 473.44 381.15 473.44 301.21 491.03 301.21 491.03 336.15 523.46 301.21 544.7 301.21 512.15 335.12 546.18 381.15 525.05 381.15"/><polygon class="cls-1" points="556.41 381.15 556.41 301.21 574 301.21 574 365.16 613.86 365.16 613.86 381.15 556.41 381.15"/><rect class="cls-1" x="623.98" y="301.21" width="17.59" height="79.94"/><polygon class="cls-1" points="710.88 381.15 672.16 330.33 672.16 381.15 654.81 381.15 654.81 301.21 671.01 301.21 708.48 350.43 708.48 301.21 725.84 301.21 725.84 381.15 710.88 381.15"/><polygon class="cls-1" points="739.12 381.15 739.12 301.21 799.43 301.21 799.43 316.85 756.59 316.85 756.59 333.07 794.29 333.07 794.29 348.72 756.59 348.72 756.59 365.5 800 365.5 800 381.15 739.12 381.15"/><polygon class="cls-1" points="302.88 365.16 263.28 365.16 263.28 301.2 245.69 301.2 245.69 381.15 295.5 381.15 302.88 365.16"/><path class="cls-1" d="M136.2,230.14V217.48H0v49.91a502.72,502.72,0,0,1,43.54,42.32,501.08,501.08,0,0,1,92.66-79.57"/><path class="cls-1" d="M136.2,307.09V285.76a455,455,0,0,0-59.73,64.05q5.46,7.41,10.65,15a443.19,443.19,0,0,1,49.08-57.74"/><path class="cls-1" d="M54.71,322.37q5.58,6.57,11,13.34h0A467.58,467.58,0,0,1,136.2,266V247.59a483.5,483.5,0,0,0-81.49,74.78"/><path class="cls-1" d="M54.51,349.89q-5.35-7.17-11-14.15-5.6,7-11,14.15h0q5.63,7.44,11,15.11,5.35-7.68,11-15.11"/><path class="cls-1" d="M65.33,365q-5.52,7.84-10.75,15.95H75.87c-3.41-5.38-6.93-10.71-10.54-15.94"/><path class="cls-1" d="M21.75,365q-5.43,7.86-10.55,16H32.52q-5.24-8.12-10.77-16"/><path class="cls-1" d="M97.67,380.92h38.54V330.55a434.73,434.73,0,0,0-38.54,50.37"/><path class="cls-1" d="M0,364.78q5.18-7.57,10.62-15h0Q5.42,343,0,336.5Z"/><path class="cls-1" d="M21.41,335.71q5.37-6.76,11-13.33Q17,304.62,0,288.46v22.86q11.1,11.81,21.4,24.38Z"/></g></svg>