<svg id="Layer_1" data-name="Layer 1" xmlns="http://www.w3.org/2000/svg" viewBox="0 0 800 600"><defs><style>.cls-1{fill:#fff;}</style></defs><g id="BMW"><path class="cls-1" d="M400,24.86C248.05,24.86,124.86,148.05,124.86,300S248.05,575.14,400,575.14,675.14,452,675.14,300,552,24.86,400,24.86M657.25,300c0,142.07-115.17,257.25-257.25,257.25S142.75,442.07,142.75,300,257.93,42.75,400,42.75,657.25,157.93,657.25,300"/><path class="cls-1" d="M400,137v8.94c85,0,154.11,69.13,154.11,154.11h8.94A163.06,163.06,0,0,0,400,137m0,317.16C315,454.11,245.89,385,245.89,300H237A163.06,163.06,0,0,0,400,463.05"/><path class="cls-1" d="M531.74,183.89c3.73,4,9.11,10.4,12.14,14.3l55.66-35.08c-2.78-3.61-7.21-9.1-10.52-13l-35.25,23.14-2.41,2.06,1.79-2.6,15.57-30.85-11-10.93-31.08,15.45L524,148.2l2.09-2.4,23.32-35c-4.1-3.46-8-6.64-13.08-10.49L501,155.55c4.48,3.42,10.38,8.44,14.15,11.86l33.26-17.14,2.13-1.56L549,150.83Z"/><path class="cls-1" d="M405.43,113.9l15.21-33.84,1-3-.28,3.13,1.6,45.21c5.34.5,10.85,1.24,16.28,2.14l-2.47-67c-7.6-.83-15.16-1.42-22.73-1.75L399,95.76l-.53,2.74L398,95.76,383,58.82c-7.57.33-15.13.92-22.73,1.75l-2.47,67c5.43-.9,10.94-1.62,16.28-2.14l1.6-45.21-.28-3.13,1,3,15.21,33.84Z"/><path class="cls-1" d="M282.42,167.27c8.79-9.2,13.77-19.83,5-30-4.79-5.51-12.82-6.71-19.48-4l-.66.26.21-.58c1-2.62,1.61-11-5.55-16.72a16.63,16.63,0,0,0-12.29-3.41c-8.26.84-14.62,6.44-31.91,25.59-5.22,5.78-12.82,14.89-17.37,20.8L247.85,204c15.74-17.3,22.16-23.74,34.57-36.72m-62-11A291.79,291.79,0,0,1,244.78,130a12.58,12.58,0,0,1,5-3.15,5.89,5.89,0,0,1,7.06,4.53c.73,3.19-1.29,6.23-3.54,8.73C248.2,145.76,229.65,165,229.65,165ZM239,173.85s18.07-19,24-25c2.34-2.41,3.85-3.87,5.46-4.66a6.23,6.23,0,0,1,6.4.13,5.59,5.59,0,0,1,2.43,5.91c-.6,2.71-2.83,5.29-4.68,7.27-2.48,2.65-23.92,25.42-24,25.46Z"/><path class="cls-1" d="M400,137V300H237A163,163,0,0,1,400,137"/><path class="cls-1" d="M563.05,300A163,163,0,0,1,400,463.05V300Z"/></g></svg>