<svg id="Layer_1" data-name="Layer 1" xmlns="http://www.w3.org/2000/svg" viewBox="0 0 800 600"><defs><style>.cls-1{fill:#fff;}</style></defs><g id="Caption_Health" data-name="Caption Health"><path class="cls-1" d="M104.25,324.73c9.61,0,15.32-7.79,15.32-18.82v-3.25c-1.56,1.3-4,1.95-7.66,2.6l-7.14,1.3c-7.14,1.29-10.26,4-10.26,9.47,0,5.85,3.77,8.7,9.74,8.7m15.06-3.11h-.26c-3.37,7.27-9.86,12.59-20.25,12.59-10.91,0-18.18-6.1-18.18-16.49,0-5.58,1.95-10.12,6.36-13.37,3.38-2.47,8-4.15,14.81-5.06l8.3-1.17c7.14-1,9.22-3.25,9.22-7.27,0-5.07-3.63-8.18-10.25-8.18-7,0-11.82,3.24-13.77,11.68L83,292.15c3.51-13,13-20.13,26.23-20.13,14,0,22.85,7.14,22.85,22.33v22.59c0,5.2,1.68,7,6.49,7a12.1,12.1,0,0,0,2.59-.25v9.08a25.61,25.61,0,0,1-7.66,1c-8.7,0-13.63-4-14.15-12.2"/><path class="cls-1" d="M162.54,303.18c0,12.46,6.11,20,15.45,20s14.8-7.4,14.8-20.12c0-12.46-5.84-20.12-14.8-20.12-9.47,0-15.45,7.53-15.45,20.25m-13.11-29.86h13v12.46h.25c3.64-8.56,10.39-13.89,19.87-13.89,14.41,0,23.76,11.82,23.76,31s-9.87,31.16-24,31.16c-9.22,0-15.71-4.28-19.35-12.2h-.39V352H149.3V273.32Z"/><path class="cls-1" d="M251.87,332.52a35.35,35.35,0,0,1-11.43,1.69c-12.72,0-18.43-5.84-18.43-18.69v-32.2H210.06v-10h12.21V261.38l13-5.59v17.4H252v10H235.25v30.12c0,7.4,2.34,9.87,9.74,9.87a26.81,26.81,0,0,0,7-.78v10.12Z"/><path class="cls-1" d="M275.76,332.91H262.38V273.32h13.38Zm-13.64-85h14v13.51h-14Z"/><path class="cls-1" d="M316.13,283.06c-9.74,0-15.58,6.88-15.58,20,0,12.85,5.71,20.12,15.58,20.12s15.32-6.62,15.32-20c0-13-5.84-20.12-15.32-20.12m.13-11c16.88,0,28.82,11.17,28.82,30.9,0,20.64-12.07,31.42-29.08,31.42s-28.82-10.65-28.82-31c0-19.47,12.07-31.29,29.08-31.29"/><path class="cls-1" d="M369.23,273.32v12.33h.26c4.29-8.95,11.94-13.5,20.51-13.5,12.73,0,20.26,8.05,20.26,24.28v36.48H397v-33c0-11.95-3.63-17.14-12.46-17.14-9.22,0-15.06,7.27-15.06,19.86v30.12H356.25V273.32Z"/><polygon class="cls-1" points="474.65 252.16 474.65 285.26 513.86 285.26 513.86 252.16 527.62 252.16 527.62 332.91 513.86 332.91 513.86 297.21 474.65 297.21 474.65 332.91 460.89 332.91 460.89 252.16 474.65 252.16"/><path class="cls-1" d="M553.07,297.47h29.08a20,20,0,0,0-1.82-7.53c-2.08-4.67-6.49-7.27-11.94-7.27-8.44,0-14.15,5.45-15.32,14.8M568.39,272c10.51,0,18.56,4.68,23,13.37,2.85,5.59,4.15,12.47,4,20.52H552.81c.65,10.9,6.88,17.65,16.62,17.65,7.66,0,12.72-3.5,15.58-11L596.3,316c-4.41,11.82-14,18.31-27.13,18.31-18.31,0-29.6-11.94-29.6-30.9C539.44,285,551.51,272,568.39,272"/><path class="cls-1" d="M626.81,324.73c9.61,0,15.32-7.79,15.32-18.82v-3.25c-1.56,1.3-4,1.95-7.66,2.6l-7.14,1.3c-7.14,1.29-10.26,4-10.26,9.47,0,5.85,3.77,8.7,9.74,8.7M642,321.62h-.26c-3.5,7.27-9.87,12.59-20.25,12.59-10.91,0-18.18-6.1-18.18-16.49,0-5.58,2-10.12,6.36-13.37,3.38-2.47,8.05-4.15,14.8-5.06l8.31-1.17c7.14-1,9.22-3.25,9.22-7.27,0-5.07-3.64-8.18-10.26-8.18-7,0-11.81,3.24-13.76,11.68l-12.33-2.2c3.5-13,13-20.13,26.22-20.13,14,0,22.85,7.14,22.85,22.33v22.59c0,5.2,1.69,7,6.5,7a12.1,12.1,0,0,0,2.59-.25v9.08a25.61,25.61,0,0,1-7.66,1c-8.83,0-13.76-4-14.15-12.2"/><rect class="cls-1" x="671.99" y="247.87" width="13.24" height="85.04"/><path class="cls-1" d="M735.61,332.52a35.35,35.35,0,0,1-11.43,1.69c-12.72,0-18.43-5.84-18.43-18.69v-32.2h-12v-10H706V261.38l13-5.59v17.4h16.62v10H718.86v30.12c0,7.4,2.34,9.87,9.74,9.87a26.81,26.81,0,0,0,7-.78Z"/><path class="cls-1" d="M759.24,247.87v37.27h.25c4.29-8.57,11.82-13,20.26-13,12.72,0,20.25,8.05,20.25,24.28v36.48H786.76v-33c0-11.95-3.64-17.14-12.46-17.14-9.22,0-15.06,7.27-15.06,19.86v30.12H746V247.87Z"/><path class="cls-1" d="M38.3,250.86c18.56,0,31,10.78,34.66,29.73l-13.5,2.6c-2.6-13.5-9.87-20.26-21.29-20.26C23.5,262.93,14,273.45,14,293.06c0,18,9.22,28.82,24.15,28.82,11.29,0,18.31-5.59,22.07-19.09l13.24,3.38c-4.41,17.78-16.87,28-35.7,28C14.8,334.21,0,319.15,0,293.44,0,267,16.36,250.86,38.3,250.86"/><rect class="cls-1" x="11.04" y="343.43" width="52.19" height="8.7"/></g></svg>