<svg id="Layer_1" data-name="Layer 1" xmlns="http://www.w3.org/2000/svg" viewBox="0 0 800 600"><defs><style>.cls-1{fill:#fff;}</style></defs><g id="Charles_Schwab" data-name="Charles Schwab"><path class="cls-1" d="M717.69,275.55c0-11.75-7.3-21.46-13.72-30.07-5.49-7.33-10.68-14.23-10.68-21.29,0-9.62,5.41-15.81,13.77-15.81,4.17,0,7.6,1.57,10.93,3.13s7,3.25,11.27,3.25c5.83,0,11-6.19,11-11.08,0-5.91-6.27-12-16.8-12-24.07,0-45.49,27.29-45.49,48.78,0,11.71,7.13,20.83,13.43,28.86,5.08,6.48,9.49,12.07,9.49,17.81,0,9.63-8.92,15.39-17.49,15.39s-14.57-5.38-19.38-9.71c-3.59-3.19-6.69-6-10-6-4.66,0-5.72,9.85-5.72,13.33,0,5.56,11.46,14.78,24.51,14.78,19.76,0,44.83-18.53,44.83-39.35"/><path class="cls-1" d="M192.25,124.22a1.12,1.12,0,0,0-1,1V131a1.06,1.06,0,0,0,.69.94l3.59.34,4.48.42c5.84.93,7.39,1.95,7.39,4.88,0,4.92-5.53,20.41-13.18,41.84l-6.81,19.33c-5.91,17-15,40.91-23.12,61.94-9.62,25.1-17.23,44.92-17.23,47.56,0,3.19,1.72,4,8.81,4,7.79,0,11.29-1.21,12.07-4.16,13.45-44.48,50.62-95.21,69.75-95.21,6,0,8.21,2.1,8.21,8.17,0,9.86-8.36,28.4-16.46,46.38-7.14,15.83-13.88,30.78-13.88,37.85,0,6.52,2.92,9.84,8.74,9.84,19.09,0,33.44-17.12,45-30.88l1.64-2c0-.06.28-.65.28-.65l-.32-.7s-3.95-4.68-3.95-4.68a.88.88,0,0,0-.53-.36,1.1,1.1,0,0,0-.86.27c-6.5,6.86-17.5,17.18-20.6,17.61-.87.06-1.44,0-1.78-.34s-.52-1.37-.31-3c.19-1.46,2.23-6.35,5-13.07,7.3-17.47,19.42-46.65,19.42-63.93,0-13.83-6.6-21.77-18.11-21.77-23.26,0-42,26.52-51,39.27-2.07,2.95-4,5.72-4.56,5.84-.15,0-.29,0-.32-.12-.4-.57.91-3.61,3.26-9.1,2.53-5.83,6.35-14.65,11.54-28.23,17.48-45.59,24.91-70,24.91-72,0-2.72-2.55-3.06-5-3.06Z"/><path class="cls-1" d="M141.18,286.86a1.2,1.2,0,0,0-.13-1.05l-4-4.22a.81.81,0,0,0-.65-.42.68.68,0,0,0-.59.19,4.72,4.72,0,0,1-.45.44c-7.23,6.65-21.21,18-33.73,18.87a17.09,17.09,0,0,1-12.7-4.07c-4.12-3.61-6.48-9.33-6.87-16.62-.86-18.78,15.12-47.26,31.08-63.94,8.57-9,16.44-13.95,22.14-13.95,6.67,0,10.85,4.92,14.9,9.69,3.53,4.18,6.86,8.11,11.53,8.11a7.69,7.69,0,0,0,5.34-2.47,8.82,8.82,0,0,0,2.45-6.44c-.34-7.35-7.12-19-23.9-19.32-19.17-.34-43.1,11.3-60.94,29.7-17,17.55-25.88,38.28-24.89,58.41.74,16.93,9.86,35,33.36,35,23.66,0,44.6-21.17,48-27.89"/><path class="cls-1" d="M451,243.75c-.48,1-1.83,3.66-2.15,3.6a2.84,2.84,0,0,1-.32,0s.07-.9.07-.9c.08-1.12,1.26-6,2.74-12.27,2.83-11.82,6.71-28,6.71-32.61,0-6.08-3.31-9.4-9.33-9.4-12.7,0-31.87,20.82-38.56,32-.09,0-.21.24-.23.45a.12.12,0,0,0,0,.08.93.93,0,0,0,.29.64l3.78,3.94a.76.76,0,0,0,.7.38.85.85,0,0,0,.76-.46l1.14-1.25s.95-1.22.95-1.22c4.3-5.4,13.25-16.64,17.88-16.64,2.49,0,3.9,2.54,3.9,7,0,11.19-12.35,45.39-20.54,68-4.64,12.79-8,22.06-8,23.83,0,2.47.93,3.59,3.09,3.59h10.64c2.23,0,2.95-1.39,4.47-4.71.08-.13,5.26-12.5,8.21-18.51,21.07-43.07,32.68-65.1,41.52-73.69,5.87-5.7,10.05-8.26,13.09-8.09,2.34.15,3.8,1.9,5.36,3.76,1.67,2.07,3.42,4.2,6.5,4.41a7.87,7.87,0,0,0,5.91-2.24c2.62-2.49,4.16-6.75,4.16-11.42,0-7.83-5.47-10.62-10.17-10.62-19.28,0-33.54,14.21-52.59,52.35"/><path class="cls-1" d="M384.68,189.29c-1.69.52-2.68,2-3.63,3.48-1.12,1.71-2.2,3.36-4.24,3.36a27.22,27.22,0,0,1-5.6-.83,51.8,51.8,0,0,0-11.1-1.33c-53.28,0-81.21,71.65-81.21,96.41,0,16.8,9.27,24.31,18.39,24.31,11.4,0,26.89-3.84,46.44-33.88,0,0,4.33-7.32,4.89-7.32a.63.63,0,0,1,.47.13,1.36,1.36,0,0,1,0,1.33l-1.54,3.61c-2.47,5.32-7,15.2-7,24.25,0,4.31,1.06,7.54,3.12,9.59,1.82,1.77,4.37,2.65,7.65,2.61,18.47-.32,34.47-24.15,40.48-33.12,0,.06.22-.48.22-.48l-.24-.68-4-4.77c-.55-.44-1.06-.42-1.43,0l-4.12,5c-5.47,6.84-12.25,15.31-16.42,15.31a2.5,2.5,0,0,1-1.88-.53c-.51-.51-.66-1.52-.55-3.59.31-5.74,11.55-35.25,20.58-59,6.67-17.5,12.43-32.63,12.64-35.08a3.38,3.38,0,0,0-1.73-3.17h0l-7.22-4.89-.35-.17c-.8-.45-1.82-1-2.62-.61M300.2,284.66c0-34.75,27.59-83.05,54.78-83.05,9,0,14.2,5.3,14.2,14.55,0,14.33-37.72,80.32-61.19,80.32-4.94,0-7.79-1.92-7.79-11.82"/><path class="cls-1" d="M558.13,281.26c0,19.83,12.92,33.65,31.43,33.65,21.85,0,44.92-20.85,50.41-28a.86.86,0,0,0-.12-1.14l0,0-3.61-4.39a1.16,1.16,0,0,0-1.35-.13l-3,2.2c-7.22,5.38-20.6,15.39-30.5,15.39-12.22,0-19.78-7.75-19.78-20.27,0-15.22,7.43-26.51,12.87-34.8l.64-1,2.07.14,11.38.38c19.88,0,57-9.5,57-32.32,0-9.37-8.71-19.35-24.82-19.35-34.16,0-82.71,46.35-82.71,89.62m78.74-82c6.06,0,10.28,4.18,10.28,10.15,0,14.69-16.93,23.29-46.38,23.83,5.32-9.9,21.41-34,36.1-34"/><path class="cls-1" d="M548.16,282.67a1,1,0,0,0,.07-1.08c-.09-.23-4.16-5.32-4.16-5.32a.94.94,0,0,0-.72-.35.93.93,0,0,0-.7.33l-1.39,1.54c-10.36,11.43-16.1,17.76-20.83,18a2.6,2.6,0,0,1-1.95-.73,4.29,4.29,0,0,1-.94-3.47c.29-6.39,10.7-36.39,31.81-91.76l15.34-39.64c8-20.67,12.06-31.05,12.08-32.47a2.9,2.9,0,0,0-.64-2.13c-.76-.82-2.13-1.18-4.2-1.18h-35.8a1.09,1.09,0,0,0-1.07,1s-.19,5.74-.19,5.74a1,1,0,0,0,.75,1l8,.7c5.11.88,7.16,2.59,7,5.91-.17,5-23.26,62.25-23.26,62.25-12.41,30.84-33.27,84.44-33.92,97-.28,5.6,1,10.1,3.82,13.05,2.49,2.58,6,3.91,10.57,3.91,14.55,0,29.09-18.14,38.68-30.15l1.66-2.09Z"/><path class="cls-1" d="M59.9,390.31c0,16.72,13.26,25.88,26.26,32.6l5.56,2.78c13,6.38,18.28,13.11,18.28,23.12,0,11.42-7.39,19.46-18,19.46-17,0-26.43-17.65-30.56-28.18l-.11-.26-5.76,1.93,0,.27c1.84,10.77,3.9,22.4,5.26,27l0,.13,2.83,1.05,7.47,2.66a52.08,52.08,0,0,0,17.44,2.93c23.58,0,40.08-14.62,40.08-35.59,0-19.73-15-28.68-26.32-33.73l-4.46-2c-14.43-6.6-20.32-13-20.32-22s5.44-18,17.48-18c14.12,0,19.5,11.11,22.9,22l.1.27,6.08-1.16-.08-.29c-1.5-8.64-2.62-16.3-3.4-23.44l0-.17-4-1.32-3.49-1a50.39,50.39,0,0,0-16-2.51c-22,0-37.28,13.78-37.28,33.54"/><path class="cls-1" d="M141.31,418.26c0,28.61,19.91,57.52,64.36,57.52,11.48,0,26.51-3.37,32.87-5.17,3.12-7,7.07-21.63,9-29.13l.08-.32-5.46-1.2-.11.19c-9,18.2-17.41,28.12-36.33,28.12-24.57,0-41.08-21.91-41.08-54.51,0-22.79,10.77-49.33,41.08-49.33,17.8,0,27.49,7.64,32.47,25.48l.08.26,5.49-.74-.82-7.75-2.45-20.41h-.23l-3.06-.72a117.39,117.39,0,0,0-28.33-3.78c-39.71,0-67.51,25.27-67.51,61.49"/><path class="cls-1" d="M377.69,359.47H328v5.46l.28,0c12.69,1,14.33,1.85,14.33,20.94v23H290.26v-23c0-19.09,1.6-19.95,14.06-20.94l.31,0v-5.46H254.2v5.46l.24,0c14.73,1.05,15.75,2.44,15.75,20.94v60.87c0,18.35-1.12,19.89-15.06,21l-.27,0v5.41h50.41V467.8l-.28,0c-13.08-1-14.73-1.92-14.73-21V417.56h52.35v29.21c0,18.52-1,19.89-15.75,21l-.29,0v5.41h51.1V467.8l-.27,0c-13.2-1.06-14.63-1.84-14.63-21V385.9c0-18.5,1-19.89,15-20.94l.29,0v-5.46Z"/><path class="cls-1" d="M552.07,359.48H511.73v5.43l6.33.46c3.46.3,5.25.93,6.16,2.28a5.49,5.49,0,0,1,.83,3.34,32.73,32.73,0,0,1-1.31,7.79c-.38,1.62-10,39.39-17.42,64.63-1.46-3.56-30.23-82.36-30.23-82.36l-.06-.22h-7.28l-26.33,82.56c-1.18-3.71-20.16-67.4-20.16-67.4a22.05,22.05,0,0,1-1.05-5.78,4.56,4.56,0,0,1,.63-2.58c.91-1.41,2.89-1.9,6-2.3l5.61-.42v-5.43H385.81v5.43l.29,0c9.29,1.06,12.16,2,16.79,16.82l28.71,92.86h8.19s26.7-80.17,27-81.22c1.31,3.31,29.55,81,29.55,81l.1.19h8.13l0-.21c16-53.78,29.24-91.51,29.39-91.91,5.72-15.89,7.09-16.55,18.05-17.56l.31,0v-5.43Z"/><path class="cls-1" d="M582,386.87c.14.42,13.1,36.9,13.38,37.7H568.54c.29-.8,13.25-37.28,13.4-37.7Zm21.8,3.1L592,358.2l-.25,0-7.33.76L549,450.13c-6,15.58-7.9,16.24-18.49,17.63l-.26,0v5.41h39.23V467.8l-5.11-.61c-3.8-.44-5.7-1.16-6.59-2.55a4.21,4.21,0,0,1-.63-2.5,23.51,23.51,0,0,1,1.54-6.9l.93-2.78c2.26-6.88,4.83-14.7,6.82-19.17h31.87C602,442.62,606,453,607.7,458.05a18.44,18.44,0,0,1,1.11,5.09,3.23,3.23,0,0,1-.4,1.71c-.63,1-2.19,1.71-5.34,2.17l-5.11.8v5.39h46.4V467.8l-.29,0c-9.69-1-12.2-1.88-18.2-17.63Z"/><path class="cls-1" d="M686.27,375.09c0-4,0-7,1.31-7.64.36-.19,2.15-.76,7.83-.76,5.08,0,21.66,1.48,21.66,20.86,0,13.8-8.58,21.36-24.13,21.36h-6.67Zm-33.38-15.62h-.33v5.45l.29,0c12.1,1,13.66,1.86,13.66,21v60.86c0,19.06-1.69,20-14.73,21l-.28,0v5.42h43.63c14,0,25.82-2.45,33.46-7,10.64-6.42,15.81-15.08,15.81-26.54,0-15.75-11.5-26.64-30.75-29.28,8.55-1.84,24.21-9.2,24.21-25.14,0-9-3.25-15.56-9.9-20-6.69-4.23-13.74-5.77-27-5.77Zm39,56.26c19.26,0,30.3,9.46,30.3,25.94,0,17.71-11.89,24-23,24-5.05.15-7.83-.54-9.65-2.27-2.75-2.67-3.29-8.2-3.29-16.91V415.73Z"/></g></svg>