<svg id="Layer_1" data-name="Layer 1" xmlns="http://www.w3.org/2000/svg" viewBox="0 0 800 600"><defs><style>.cls-1{fill:#fff;}</style></defs><g id="Chef"><path class="cls-1" d="M167,492.82v-.3C167,461.45,190.4,436,224,436c20.6,0,32.92,6.86,43.06,16.83L251.74,470.5c-8.44-7.64-17-12.32-27.93-12.32-18.43,0-31.7,15.3-31.7,34v.31c0,18.72,13,34.34,31.7,34.34,12.47,0,20.12-5,28.71-12.8l15.29,15.44C256.58,541.53,244.08,549,223,549c-32.16,0-56-24.81-56-56.19"/><polygon class="cls-1" points="299.26 437.89 323.29 437.89 323.29 481.12 367.62 481.12 367.62 437.89 391.66 437.89 391.66 547.14 367.62 547.14 367.62 503.27 323.29 503.27 323.29 547.14 299.26 547.14 299.26 437.89"/><polygon class="cls-1" points="430.33 437.92 514.05 437.92 514.05 459.65 454.58 459.65 454.58 482.16 506.91 482.16 506.91 503.88 454.58 503.88 454.58 527.18 514.83 527.18 514.83 548.91 430.33 548.91 430.33 437.92"/><polygon class="cls-1" points="549.83 437.89 633.01 437.89 633.01 459.73 573.86 459.73 573.86 483 625.99 483 625.99 504.84 573.86 504.84 573.86 547.14 549.83 547.14 549.83 437.89"/><path class="cls-1" d="M403.33,283.84a72.31,72.31,0,1,1,69.46-92.38h28a99.47,99.47,0,1,0,0,40.15h-28a72.44,72.44,0,0,1-69.46,52.23"/><path class="cls-1" d="M354.59,260.27a68.69,68.69,0,0,0,48.73,20.23V251.67A40,40,0,0,1,375,239.91Z"/><path class="cls-1" d="M334.36,211.53a68.61,68.61,0,0,0,5.85,27.76l26.38-11.6a40.14,40.14,0,0,1,36.74-56.29V142.57a69,69,0,0,0-69,69"/><path class="cls-1" d="M428.33,147.27l-10.45,26.87a40.26,40.26,0,0,1,20.2,17.33H469.3a69.28,69.28,0,0,0-41-44.2"/><path class="cls-1" d="M417.88,248.92l10.44,26.88a69.31,69.31,0,0,0,41-44.19H438.07a40.16,40.16,0,0,1-20.19,17.31"/><path class="cls-1" d="M275.74,250.11c-.46-1.52-.88-3-1.29-4.57a.83.83,0,0,1-.07-.27c-.38-1.41-.72-2.84-1.06-4.26-.07-.31-.12-.59-.19-.89-.27-1.22-.52-2.45-.76-3.69-.1-.57-.21-1.11-.29-1.66-.19-1-.36-2-.51-3l-.36-2.55a135,135,0,0,1-1.2-17.71H242.78A160.35,160.35,0,0,0,244,230.85c0,.16,0,.29,0,.43.22,1.72.44,3.46.72,5.16.08.48.17,1,.23,1.44.24,1.39.48,2.81.75,4.21.16.74.31,1.48.46,2.23.24,1.1.46,2.21.72,3.32s.48,1.94.72,2.91l.66,2.61c.31,1.14.63,2.29,1,3.41.14.48.26.95.41,1.43h0a157.76,157.76,0,0,0,6.7,18.17l24.94-11a135.74,135.74,0,0,1-5.57-15.08"/><path class="cls-1" d="M403.33,344.85a132.86,132.86,0,0,1-94.21-39.11L289.83,325a160.52,160.52,0,0,0,272.78-93.42H535.12c-9.69,64-65.11,113.24-131.79,113.24"/><path class="cls-1" d="M403.33,78.22A132.53,132.53,0,0,1,483,104.74l16.33-21.86a160.55,160.55,0,0,0-245.65,70.43l25.41,9.88a133.53,133.53,0,0,1,124.23-85"/><path class="cls-1" d="M535.13,191.47h27.49a159.76,159.76,0,0,0-23.09-64.95L516.38,141a132.54,132.54,0,0,1,18.75,50.49"/><path class="cls-1" d="M504.17,191.47h27.57a130.36,130.36,0,0,0-81.29-101l-9.85,25.32a103.2,103.2,0,0,1,63.57,75.72"/><path class="cls-1" d="M403.33,108.72h0V81.56A130.17,130.17,0,0,0,282.21,164.4l25.31,9.85a103,103,0,0,1,95.81-65.53"/><path class="cls-1" d="M300.52,211.53H273.35a130.17,130.17,0,0,0,81.72,120.66L365.14,307a102.92,102.92,0,0,1-64.62-95.43"/><path class="cls-1" d="M403.33,314.34v27.17c64.84,0,118.74-47.74,128.42-109.9H504.16a103,103,0,0,1-100.83,82.73"/></g></svg>