<svg id="Layer_1" data-name="Layer 1" xmlns="http://www.w3.org/2000/svg" viewBox="0 0 800 600"><defs><style>.cls-1{fill:#fff;}</style></defs><g id="Cisco"><path class="cls-1" d="M258.4,469.83H287V356.52H258.4ZM132.69,413.16c0,36.54,28.19,58.69,60.3,58.69a90.49,90.49,0,0,0,26.11-4V437.41a50.93,50.93,0,0,1-24,6c-19.08,0-31.36-13.41-31.36-30.24,0-17.3,12.81-30.23,31.36-30.23a49.91,49.91,0,0,1,24,6.08V358.58a88,88,0,0,0-26.11-4c-34.77,0-60.3,24.77-60.3,58.62m298.4,0c0,36.54,28.21,58.69,60.38,58.69a90.58,90.58,0,0,0,26-4V437.41a50.87,50.87,0,0,1-24,6c-19.05,0-31.34-13.41-31.34-30.24,0-17.3,12.82-30.23,31.34-30.23a49.9,49.9,0,0,1,24,6.08V358.58a87.57,87.57,0,0,0-26-4c-34.84,0-60.38,24.77-60.38,58.62m146.81,0c0-16.42,12.61-29.79,29.59-29.79s29.58,13.37,29.58,29.79S624.44,443,607.49,443s-29.59-13.34-29.59-29.85m-30.25,0c0,32.42,25,58.69,59.84,58.69s59.84-26.27,59.84-58.69-25-58.62-59.84-58.62-59.84,26.26-59.84,58.62M325.32,389.91c0,18.75,13.33,28.13,29.2,33.13,1.79.59,4.38,1.41,6.14,2,7.06,2.22,12.72,5.53,12.72,11.24,0,6.46-6.53,10.61-20.77,10.61-12.49,0-24.48-3.58-27-4.21v26.1a175.28,175.28,0,0,0,30.84,3.07c21.89,0,46.92-9.55,46.92-38,0-13.79-8.45-26.52-27-32.39l-7.9-2.52c-4.68-1.48-13.09-3.9-13.09-10.77,0-5.46,6.2-9.31,17.68-9.31,9.86,0,21.94,3.33,22.35,3.47V358.08a122.3,122.3,0,0,0-27.86-3.6c-26.37,0-42.25,14.25-42.25,35.43M74,234.76v29.73a14.2,14.2,0,0,0,28.4,0V234.76a14.2,14.2,0,0,0-28.4,0m311.9,0v29.73a14.16,14.16,0,1,0,28.31,0V234.76a14.16,14.16,0,0,0-28.31,0m311.9,0v29.73a14.15,14.15,0,1,0,28.3,0V234.76a14.15,14.15,0,1,0-28.3,0m-545.8-39v68.78a14.2,14.2,0,0,0,28.39,0V195.71a14.2,14.2,0,0,0-28.39,0m156,0v68.78a14.18,14.18,0,0,0,28.36,0V195.71a14.18,14.18,0,0,0-28.36,0m156,0v68.78a14.17,14.17,0,1,0,28.33,0V195.71a14.17,14.17,0,1,0-28.33,0m155.85,0v68.78a14.24,14.24,0,0,0,28.47,0V195.71a14.24,14.24,0,0,0-28.47,0M229.9,142.31V292.77a14.2,14.2,0,1,0,28.39,0V142.31a14.2,14.2,0,0,0-28.39,0m312,0V292.77a14.15,14.15,0,1,0,28.3,0V142.31a14.15,14.15,0,1,0-28.3,0"/></g></svg>