<svg id="Layer_1" data-name="Layer 1" xmlns="http://www.w3.org/2000/svg" viewBox="0 0 800 600"><defs><style>.cls-1{fill:#fff;}</style></defs><g id="Cloudability"><path class="cls-1" d="M190.46,246,109.94,214.1h0l11.35,26.76c1.73,4.46-1.24,6.23-2.15,6.65l-.25.11h0L76,265.76c-6.73,2.9-7.64,8-5,14L89.6,322.88c2.62,6.08,7.15,9.42,13.88,6.52l41.82-17.7c5.25-2.21,7,1.18,7.27,1.66l12.27,27.73,31.94-80.42A11.32,11.32,0,0,0,190.46,246"/><path class="cls-1" d="M107.73,365.31c-21.67,8.18-38.83-2.54-46.62-20.59L35.57,285.54c-7.78-18.06-4-38.34,17.23-47.51,25.36-10.94,57.08-23.9,57.14-23.93L69.09,197.91a11.32,11.32,0,0,0-14.65,6.32L.79,339.33A11.32,11.32,0,0,0,7.11,354l121.36,48.11a11.32,11.32,0,0,0,14.66-6.32l21.71-54.67c-.11,0-35.85,16.19-57.11,24.21"/><path class="cls-1" d="M245.43,281.79c14.55,0,22,8.16,22,8.16L262.25,298s-6.81-6.31-16.32-6.31c-12.62,0-20,9.42-20,20.52,0,11.36,7.66,21.37,20.1,21.37,10.35,0,17.34-7.57,17.34-7.57l5.72,7.82a32.15,32.15,0,0,1-23.47,9.68c-18.26,0-30.88-13.55-30.88-31.12,0-17.34,13.13-30.63,30.71-30.63"/><polygon class="cls-1" points="279.09 282.8 289.94 282.8 289.94 333.19 315.77 333.19 315.77 342.53 279.09 342.53 279.09 282.8"/><path class="cls-1" d="M350.18,281.79c17.59,0,30.88,13.37,30.88,30.45,0,17.59-13.29,31.3-30.88,31.3s-30.87-13.71-30.87-31.3c0-17.08,13.29-30.45,30.87-30.45m0,51.82c10.94,0,19.69-9.08,19.69-21.37,0-11.77-8.75-20.53-19.69-20.53s-19.68,8.76-19.68,20.53c0,12.29,8.75,21.37,19.68,21.37"/><path class="cls-1" d="M391.25,282.8H402.1v38.27c0,8,5.22,12.54,13.21,12.54S428.6,329.07,428.6,321V282.8h10.85v38.27c0,13.38-9.67,22.47-24.06,22.47s-24.14-9.09-24.14-22.47Z"/><path class="cls-1" d="M453.77,282.8h20.35c18.43,0,30.46,10.94,30.46,29.78s-12,29.95-30.46,29.95H453.77Zm19.77,50.39c12.11,0,19.85-7.16,19.85-20.61,0-13.29-7.91-20.44-19.85-20.44h-8.92v41.05Z"/><path class="cls-1" d="M546.15,323.68H522.34l-6.73,18.85h-6.14l21.7-59.14h6.23l21.7,59.14H553ZM534.2,289.53s-1.26,4.88-2.27,7.65L524,318.64h20.36l-7.74-21.46c-1-2.77-2.27-7.65-2.27-7.65Z"/><path class="cls-1" d="M568.79,283.39H589c9.35,0,16,5.63,16,14.88,0,6.15-2.94,10.61-7.49,12.88v.17c6.06,1.68,9.93,7.48,9.93,14.63,0,10.52-7.82,16.58-17.75,16.58H568.79ZM589,309c6,0,10-4.2,10-10.34s-3.79-10.1-10.1-10.1h-14.3V309Zm.76,28.27c7.16,0,11.61-4.46,11.61-11.53s-4.79-11.68-11.69-11.68H574.59v23.21Z"/><rect class="cls-1" x="621.46" y="283.38" width="5.81" height="59.14"/><polygon class="cls-1" points="644.43 283.39 650.24 283.39 650.24 337.31 677.66 337.31 677.66 342.53 644.43 342.53 644.43 283.39"/><rect class="cls-1" x="688.02" y="283.38" width="5.81" height="59.14"/><polygon class="cls-1" points="724.28 288.6 703 288.6 703 283.38 751.28 283.38 751.28 288.6 730.09 288.6 730.09 342.53 724.28 342.53 724.28 288.6"/><path class="cls-1" d="M774.26,317.12l-19.94-33.73H761l12.53,21.45c1.77,3,3.62,7.07,3.62,7.07h.17a78.05,78.05,0,0,1,3.62-7.07l12.53-21.45H800l-19.85,33.73v25.41h-5.89Z"/></g></svg>