<svg id="Layer_1" data-name="Layer 1" xmlns="http://www.w3.org/2000/svg" viewBox="0 0 800 600"><defs><style>.cls-1{fill:#fff;}</style></defs><g id="Consensys"><path class="cls-1" d="M82.38,389.65a.31.31,0,0,0-.31.31.31.31,0,0,0,.31.3.3.3,0,0,0,.31-.3.3.3,0,0,0-.31-.31"/><path class="cls-1" d="M73.83,386.68a.61.61,0,0,0-.61.61.62.62,0,1,0,1.23,0,.61.61,0,0,0-.62-.61"/><path class="cls-1" d="M65.61,382.82a.93.93,0,1,0,.93.92.92.92,0,0,0-.93-.92"/><path class="cls-1" d="M57.81,378.13a1.23,1.23,0,1,0,0,2.46,1.23,1.23,0,1,0,0-2.46"/><path class="cls-1" d="M50.51,372.64a1.54,1.54,0,1,0,1.54,1.54,1.54,1.54,0,0,0-1.54-1.54"/><path class="cls-1" d="M43.8,366.4a1.85,1.85,0,1,0,1.85,1.85,1.85,1.85,0,0,0-1.85-1.85"/><path class="cls-1" d="M37.75,359.49a2.16,2.16,0,1,0,2.16,2.16,2.16,2.16,0,0,0-2.16-2.16"/><path class="cls-1" d="M32.44,352a2.47,2.47,0,1,0,2.47,2.47A2.47,2.47,0,0,0,32.44,352"/><path class="cls-1" d="M30.85,346.62a2.78,2.78,0,1,0-2.77,2.77,2.78,2.78,0,0,0,2.77-2.77"/><path class="cls-1" d="M27.88,338.29a3.09,3.09,0,1,0-3.09,3.08,3.09,3.09,0,0,0,3.09-3.08"/><path class="cls-1" d="M26,329.6a3.4,3.4,0,1,0-3.39,3.4A3.39,3.39,0,0,0,26,329.6"/><path class="cls-1" d="M25.32,320.71a3.7,3.7,0,1,0-3.7,3.7,3.69,3.69,0,0,0,3.7-3.7"/><path class="cls-1" d="M21.78,315.77a4,4,0,1,0-4-4,4,4,0,0,0,4,4"/><path class="cls-1" d="M18.8,302.91a4.32,4.32,0,1,0,4.31-4.32,4.3,4.3,0,0,0-4.31,4.32"/><path class="cls-1" d="M148.38,369a.27.27,0,0,0-.28.27.28.28,0,0,0,.28.28.28.28,0,0,0,.27-.28.28.28,0,0,0-.27-.27"/><path class="cls-1" d="M140.45,372.92a.54.54,0,0,0-.55.54.55.55,0,1,0,1.09,0,.54.54,0,0,0-.54-.54"/><path class="cls-1" d="M132.13,376a.82.82,0,1,0,.82.82.83.83,0,0,0-.82-.82"/><path class="cls-1" d="M123.51,378.1a1.09,1.09,0,0,0,0,2.18,1.09,1.09,0,0,0,0-2.18"/><path class="cls-1" d="M114.68,379.32a1.37,1.37,0,1,0,1.35,1.36,1.36,1.36,0,0,0-1.35-1.36"/><path class="cls-1" d="M105.74,379.6a1.64,1.64,0,1,0,1.64,1.64,1.63,1.63,0,0,0-1.64-1.64"/><path class="cls-1" d="M96.8,378.94a1.91,1.91,0,1,0,1.91,1.91,1.91,1.91,0,0,0-1.91-1.91"/><path class="cls-1" d="M88,377.33a2.18,2.18,0,1,0,2.18,2.18A2.18,2.18,0,0,0,88,377.33"/><path class="cls-1" d="M79.33,374.61a2.45,2.45,0,1,0,2.46,2.44,2.45,2.45,0,0,0-2.46-2.44"/><path class="cls-1" d="M71.12,370.77a2.73,2.73,0,1,0,2.72,2.72,2.72,2.72,0,0,0-2.72-2.72"/><path class="cls-1" d="M66.44,368.88a3,3,0,1,0-3,3,3,3,0,0,0,3-3"/><path class="cls-1" d="M56.45,360a3.27,3.27,0,1,0,3.27,3.27A3.28,3.28,0,0,0,56.45,360"/><path class="cls-1" d="M50.23,353.31a3.55,3.55,0,1,0,3.55,3.55,3.55,3.55,0,0,0-3.55-3.55"/><path class="cls-1" d="M44.92,353.47a3.82,3.82,0,1,0-3.82-3.81,3.8,3.8,0,0,0,3.82,3.81"/><path class="cls-1" d="M44.66,341.83a4.09,4.09,0,1,0-4.09,4.09,4.09,4.09,0,0,0,4.09-4.09"/><path class="cls-1" d="M180.43,307.79a.25.25,0,0,0,0,.49.25.25,0,1,0,0-.49"/><path class="cls-1" d="M177.77,316.1a.48.48,0,0,0-.49.48.49.49,0,1,0,1,0,.48.48,0,0,0-.49-.48"/><path class="cls-1" d="M174.22,324.07a.74.74,0,1,0,.74.73.73.73,0,0,0-.74-.73"/><path class="cls-1" d="M169.84,331.64a1,1,0,1,0,1,1,1,1,0,0,0-1-1"/><path class="cls-1" d="M164.65,338.69a1.22,1.22,0,1,0,1.22,1.22,1.22,1.22,0,0,0-1.22-1.22"/><path class="cls-1" d="M158.72,345.15a1.47,1.47,0,1,0,1.47,1.46,1.46,1.46,0,0,0-1.47-1.46"/><path class="cls-1" d="M152.13,351a1.71,1.71,0,0,0,0,3.41,1.71,1.71,0,1,0,0-3.41"/><path class="cls-1" d="M144.92,356a2,2,0,1,0,2,2,2,2,0,0,0-2-2"/><path class="cls-1" d="M137.1,360.14a2.2,2.2,0,1,0,2.2,2.19,2.2,2.2,0,0,0-2.2-2.19"/><path class="cls-1" d="M128.77,363.18a2.45,2.45,0,1,0,2.44,2.44,2.44,2.44,0,0,0-2.44-2.44"/><path class="cls-1" d="M120.08,365.11a2.69,2.69,0,1,0,2.69,2.68,2.69,2.69,0,0,0-2.69-2.68"/><path class="cls-1" d="M111.19,365.87a2.93,2.93,0,1,0,2.93,2.93,2.93,2.93,0,0,0-2.93-2.93"/><path class="cls-1" d="M105.41,368.63a3.17,3.17,0,1,0-3.18,3.17,3.17,3.17,0,0,0,3.18-3.17"/><path class="cls-1" d="M96.8,367.31a3.42,3.42,0,1,0-3.41,3.41,3.41,3.41,0,0,0,3.41-3.41"/><path class="cls-1" d="M88.45,364.83a3.67,3.67,0,1,0-3.67,3.67,3.66,3.66,0,0,0,3.67-3.67"/><path class="cls-1" d="M80.47,361.26a3.9,3.9,0,1,0-3.9,3.9,3.9,3.9,0,0,0,3.9-3.9"/><path class="cls-1" d="M159.77,242.29A.25.25,0,0,0,160,242a.24.24,0,0,0-.25-.24.24.24,0,0,0-.24.24.25.25,0,0,0,.24.25"/><path class="cls-1" d="M164,250.46a.49.49,0,1,0-.49-.49.48.48,0,0,0,.49.49"/><path class="cls-1" d="M167.25,259a.73.73,0,1,0-.73-.73.73.73,0,0,0,.73.73"/><path class="cls-1" d="M169.67,267.89a1,1,0,1,0-1-1,1,1,0,0,0,1,1"/><path class="cls-1" d="M169.94,275.74a1.22,1.22,0,1,0,1.21-1.22,1.22,1.22,0,0,0-1.21,1.22"/><path class="cls-1" d="M171.71,283.21a1.46,1.46,0,1,0,1.47,1.47,1.46,1.46,0,0,0-1.47-1.47"/><path class="cls-1" d="M171.32,291.91a1.71,1.71,0,1,0,1.72,1.71,1.71,1.71,0,0,0-1.72-1.71"/><path class="cls-1" d="M170,300.52a2,2,0,1,0,1.95,2,2,2,0,0,0-1.95-2"/><path class="cls-1" d="M169.73,311.09a2.2,2.2,0,1,0-2.19,2.19,2.19,2.19,0,0,0,2.19-2.19"/><path class="cls-1" d="M164,316.86a2.44,2.44,0,1,0,2.44,2.44,2.44,2.44,0,0,0-2.44-2.44"/><path class="cls-1" d="M159.36,324.29A2.69,2.69,0,1,0,162,327a2.69,2.69,0,0,0-2.68-2.69"/><path class="cls-1" d="M153.78,331.05A2.93,2.93,0,1,0,156.7,334a2.93,2.93,0,0,0-2.92-2.92"/><path class="cls-1" d="M147.33,337a3.18,3.18,0,1,0,3.18,3.18,3.17,3.17,0,0,0-3.18-3.18"/><path class="cls-1" d="M140.14,342.09a3.42,3.42,0,1,0,3.42,3.42,3.42,3.42,0,0,0-3.42-3.42"/><path class="cls-1" d="M132.31,346.18a3.66,3.66,0,1,0,3.66,3.66,3.66,3.66,0,0,0-3.66-3.66"/><path class="cls-1" d="M124,349.22a3.9,3.9,0,1,0,3.91,3.9,3.91,3.91,0,0,0-3.91-3.9"/><path class="cls-1" d="M98.51,210.23a.25.25,0,1,0-.24-.25.25.25,0,0,0,.24.25"/><path class="cls-1" d="M107.06,213.13a.49.49,0,1,0-.49-.49.48.48,0,0,0,.49.49"/><path class="cls-1" d="M115.29,216.92a.73.73,0,1,0-.74-.73.73.73,0,0,0,.74.73"/><path class="cls-1" d="M123.09,221.55a1,1,0,0,0,0-2,1,1,0,1,0,0,2"/><path class="cls-1" d="M130.38,227a1.22,1.22,0,1,0-1.22-1.22,1.22,1.22,0,0,0,1.22,1.22"/><path class="cls-1" d="M137.09,233.15a1.47,1.47,0,1,0-1.46-1.46,1.47,1.47,0,0,0,1.46,1.46"/><path class="cls-1" d="M143.15,240a1.71,1.71,0,1,0-1.71-1.71,1.72,1.72,0,0,0,1.71,1.71"/><path class="cls-1" d="M148.47,247.45a2,2,0,1,0-2-2,2,2,0,0,0,2,2"/><path class="cls-1" d="M152.82,255.51a2.19,2.19,0,1,0-2.2-2.19,2.19,2.19,0,0,0,2.2,2.19"/><path class="cls-1" d="M153.67,261.64a2.44,2.44,0,1,0,2.44-2.43,2.42,2.42,0,0,0-2.44,2.43"/><path class="cls-1" d="M155.59,270.34a2.69,2.69,0,1,0,2.69-2.69,2.68,2.68,0,0,0-2.69,2.69"/><path class="cls-1" d="M156.34,279.23a2.94,2.94,0,1,0,2.93-2.93,2.93,2.93,0,0,0-2.93,2.93"/><path class="cls-1" d="M162.28,288.18a3.18,3.18,0,1,0-3.18,3.17,3.17,3.17,0,0,0,3.18-3.17"/><path class="cls-1" d="M161.19,297a3.42,3.42,0,1,0-3.41,3.42,3.41,3.41,0,0,0,3.41-3.42"/><path class="cls-1" d="M159,305.64a3.66,3.66,0,1,0-3.66,3.66,3.66,3.66,0,0,0,3.66-3.66"/><path class="cls-1" d="M151.74,309.94a3.91,3.91,0,1,0,3.91,3.9,3.91,3.91,0,0,0-3.91-3.9"/><path class="cls-1" d="M32.53,230.88a.25.25,0,0,0,0-.49.25.25,0,1,0,0,.49"/><path class="cls-1" d="M40.45,227a.49.49,0,1,0-.49-.48.49.49,0,0,0,.49.48"/><path class="cls-1" d="M48.77,223.9a.74.74,0,1,0-.73-.73.73.73,0,0,0,.73.73"/><path class="cls-1" d="M57.39,221.73a1,1,0,1,0-1-1,1,1,0,0,0,1,1"/><path class="cls-1" d="M66.22,220.47a1.22,1.22,0,0,0,0-2.43,1.22,1.22,0,1,0,0,2.43"/><path class="cls-1" d="M75.15,220.17a1.47,1.47,0,1,0-1.47-1.47,1.46,1.46,0,0,0,1.47,1.47"/><path class="cls-1" d="M84.1,220.79a1.71,1.71,0,1,0-1.71-1.7,1.7,1.7,0,0,0,1.71,1.7"/><path class="cls-1" d="M93,222.38a2,2,0,1,0-2-1.95,2,2,0,0,0,2,1.95"/><path class="cls-1" d="M101.56,225.08a2.2,2.2,0,1,0-2.19-2.2,2.21,2.21,0,0,0,2.19,2.2"/><path class="cls-1" d="M109.78,228.88a2.44,2.44,0,1,0-2.44-2.44,2.44,2.44,0,0,0,2.44,2.44"/><path class="cls-1" d="M114.77,231.05a2.68,2.68,0,1,0,2.68-2.68,2.68,2.68,0,0,0-2.68,2.68"/><path class="cls-1" d="M124.45,239.56a2.93,2.93,0,1,0-2.93-2.93,2.93,2.93,0,0,0,2.93,2.93"/><path class="cls-1" d="M130.66,246.25a3.18,3.18,0,1,0-3.17-3.17,3.18,3.18,0,0,0,3.17,3.17"/><path class="cls-1" d="M136,246.86a3.42,3.42,0,1,0,3.42,3.42,3.41,3.41,0,0,0-3.42-3.42"/><path class="cls-1" d="M136.66,258.11a3.66,3.66,0,1,0,3.66-3.66,3.65,3.65,0,0,0-3.66,3.66"/><path class="cls-1" d="M139.69,266.43a3.91,3.91,0,1,0,3.91-3.9,3.91,3.91,0,0,0-3.91,3.9"/><path class="cls-1" d="M145.75,271a4.15,4.15,0,1,0,4.15,4.15,4.14,4.14,0,0,0-4.15-4.15"/><path class="cls-1" d="M.46,291.44a.47.47,0,0,0-.46.46.46.46,0,0,0,.46.46.45.45,0,0,0,.46-.46.46.46,0,0,0-.46-.46"/><path class="cls-1" d="M3.13,282.44a.92.92,0,1,0,.92.92.93.93,0,0,0-.92-.92"/><path class="cls-1" d="M8.05,275.14a1.39,1.39,0,1,0-1.39,1.38,1.39,1.39,0,0,0,1.39-1.38"/><path class="cls-1" d="M11.06,269.17a1.84,1.84,0,1,0-1.85-1.84,1.84,1.84,0,0,0,1.85,1.84"/><path class="cls-1" d="M16.24,262.33a2.3,2.3,0,1,0-2.3-2.3,2.29,2.29,0,0,0,2.3,2.3"/><path class="cls-1" d="M22.17,256.08a2.76,2.76,0,1,0-2.76-2.76,2.77,2.77,0,0,0,2.76,2.76"/><path class="cls-1" d="M28.77,250.5a3.23,3.23,0,1,0-3.22-3.23,3.23,3.23,0,0,0,3.22,3.23"/><path class="cls-1" d="M36,245.63A3.68,3.68,0,1,0,32.29,242,3.69,3.69,0,0,0,36,245.63"/><path class="cls-1" d="M43.75,241.68a4.14,4.14,0,1,0-4.14-4.15,4.14,4.14,0,0,0,4.14,4.15"/><path class="cls-1" d="M52.05,238.77a4.59,4.59,0,0,0,4.53-3.92,5,5,0,0,0,8.63-.57,5.5,5.5,0,0,0,8.47.4,6,6,0,0,0,4.88,2.52A5.9,5.9,0,0,0,82,236.13a5.26,5.26,0,0,0,.77,1,6.74,6.74,0,0,0-3.93,1.81,6.4,6.4,0,0,0-9.48,1,6,6,0,0,0-9.21,2.22,5.61,5.61,0,0,0-3.2-1,5.7,5.7,0,0,0-5.55,4.42,5.34,5.34,0,0,0-8.12,4.55v0a5,5,0,0,0-7.48,4.32,5.3,5.3,0,0,0,.2,1.39,4.53,4.53,0,0,0-2.41-.7,4.63,4.63,0,1,0,4.63,4.64,4.76,4.76,0,0,0-.16-1.15,5,5,0,0,0,7.7-4,5.38,5.38,0,0,0,2.86.83h.29a6.13,6.13,0,0,0-2,4.05,6.4,6.4,0,0,0-1.09-.1A5.86,5.86,0,0,0,40,265.24a5.34,5.34,0,0,0,0,.69,4.49,4.49,0,0,0-.64,0,5.54,5.54,0,0,0-5.55,5.55,5.41,5.41,0,0,0,.29,1.76h-.33a5.23,5.23,0,0,0-4.46,8h-.15a4.93,4.93,0,0,0-3.37,8.54l-.21,0A4.64,4.64,0,1,0,28.83,291l.33,0a4.9,4.9,0,0,0,3.61-1.59v.17A5.69,5.69,0,0,0,33.88,293a5.45,5.45,0,0,0-1.7,9.27,5.18,5.18,0,0,0-.25,9.29,4.9,4.9,0,0,0,1.12,9.14,4.62,4.62,0,0,0,2.09,8.75,4.81,4.81,0,0,0,.85-.09,4.31,4.31,0,1,0,1.31-.22,4.07,4.07,0,0,0-.79.08,4.62,4.62,0,0,0,3.27-4.4c0-.12,0-.22,0-.34a5.25,5.25,0,0,0,2.73,1.6,5.11,5.11,0,0,0,3.91,8.43h.11a4.88,4.88,0,0,0,3.95,7.74,5.08,5.08,0,0,0,1.42-.21,4.57,4.57,0,0,0-.77,2.56,4.63,4.63,0,0,0,4.63,4.64,4.55,4.55,0,0,0,2.88-1,4.47,4.47,0,0,0-1.07,2.86,4.39,4.39,0,1,0,7.57-3,5.65,5.65,0,0,0,1.69-.29v.06a5.36,5.36,0,0,0,2.92,4.78,3.56,3.56,0,0,0-.8-.08,4.17,4.17,0,1,0,2,.5,4.94,4.94,0,0,0,1.28.17,5.41,5.41,0,0,0,2.84-.81,5.12,5.12,0,0,0,8.8,3.11A4.87,4.87,0,0,0,92.9,357a4.63,4.63,0,0,0,9.14-.43,4.38,4.38,0,1,0,4.46-4.68,5.78,5.78,0,0,0,1-1.41,5.36,5.36,0,0,0,3.84,1.62,5.26,5.26,0,0,0,1.64-.26,4.15,4.15,0,1,0,2.32-.71,4.11,4.11,0,0,0-1.18.19,5.37,5.37,0,0,0,2.45-3.38,5.07,5.07,0,0,0,3.3,1.21A5.13,5.13,0,0,0,125,344s0-.08,0-.11a4.77,4.77,0,0,0,2.85.93,4.88,4.88,0,0,0,4.89-4.88,4.67,4.67,0,0,0-.21-1.41,4.62,4.62,0,0,0,6.17-6.75,4.28,4.28,0,0,0,2.85,1.08,4.4,4.4,0,0,0,0-8.79,4.35,4.35,0,0,0-3,1.23,5.88,5.88,0,0,0-.29-1.7h.05a5.38,5.38,0,0,0,4.79-2.92,4.14,4.14,0,1,0,4.06-3.35,4.11,4.11,0,0,0-3.63,2.19,5.31,5.31,0,0,0-.66-4.13,5.11,5.11,0,0,0,3.12-8.79,4.88,4.88,0,0,0,1.53-9.12,4.62,4.62,0,0,0-.43-9.13,4.41,4.41,0,1,0-.8,0,4.6,4.6,0,0,0-1.91,8.65,4.87,4.87,0,0,0-2.62,8.24,5.12,5.12,0,0,0-3.73,7.66,5.37,5.37,0,0,0-5.08,5.35,5.09,5.09,0,0,0,.24,1.56l-.25,0a5.62,5.62,0,0,0-5.61,5.62c0,.13,0,.26,0,.4a5.14,5.14,0,0,0-.88-.08,5.85,5.85,0,0,0-5.79,5,6.44,6.44,0,0,0-1.6-.22,6.11,6.11,0,0,0-5.52,3.53,5.35,5.35,0,0,0-8.26,2,5.36,5.36,0,0,0-8.68,1.09,5.38,5.38,0,0,0-8.1-.35,5.39,5.39,0,0,0-8-2.17A5.38,5.38,0,0,0,73,330.9a5.37,5.37,0,0,0-6.24-5.14,5.38,5.38,0,0,0-5.17-6.6,5.36,5.36,0,0,0-3.48-7.31,5.37,5.37,0,0,0-1.57-7.93,5.41,5.41,0,0,0,2.1-4.34,5.34,5.34,0,0,0-1.83-4,5.39,5.39,0,0,0,2.81-3.51,5.31,5.31,0,0,0-.82-4.39,5.39,5.39,0,0,0,3.88-7.06,5.37,5.37,0,0,0,5.59-6.17,5.37,5.37,0,0,0,6.64-4.74,5.38,5.38,0,0,0,7.56-2.91,5.34,5.34,0,0,0,4.14,1.36h0a5.33,5.33,0,0,0,4-2.48,5.42,5.42,0,0,0,4,2.27,5.33,5.33,0,0,0,4.15-1.53,5.37,5.37,0,0,0,7.93,2.5,5.41,5.41,0,0,0,2.71,3.73h0a5.35,5.35,0,0,0,3.85.52c.15.2.3.39.46.57a5.26,5.26,0,0,0,1.35,3.21l.11.11c2.74,2.87,9.11,9.83,7.92,19.15-.31,2.33,1,3.5,2.66,1.7a32.82,32.82,0,0,0,8.3-25.82,9,9,0,0,0-.65-2.9,9.28,9.28,0,0,0,.18-1.75,8.64,8.64,0,0,0-3.43-6.89,8.12,8.12,0,0,0,.16-1.57,8.29,8.29,0,0,0-5.19-7.68,7.93,7.93,0,0,0-6.7-7.68,7.54,7.54,0,0,0-7.41-6.17h-.41a7.13,7.13,0,0,0-6.79-4.94,7,7,0,0,0-1.8.24,6.76,6.76,0,0,0-9.13-3.27,6.36,6.36,0,0,0-5.51-3.16,6.44,6.44,0,0,0-4,1.38,6,6,0,0,0-9.5-.23,5.51,5.51,0,0,0-9.31,1.2,5.06,5.06,0,0,0-8.9,2.7,4.58,4.58,0,0,0-8.24,2.77,4.6,4.6,0,0,0,4.6,4.61"/><path class="cls-1" d="M21.11,357.54a.36.36,0,0,0-.35.36.36.36,0,0,0,.35.36.37.37,0,0,0,.37-.36.37.37,0,0,0-.37-.36"/><path class="cls-1" d="M17,349.26a.71.71,0,1,0,.71.71.71.71,0,0,0-.71-.71"/><path class="cls-1" d="M13.65,340.58a1.07,1.07,0,1,0,1.07,1.07,1.07,1.07,0,0,0-1.07-1.07"/><path class="cls-1" d="M11.23,331.6A1.43,1.43,0,1,0,12.66,333a1.42,1.42,0,0,0-1.43-1.42"/><path class="cls-1" d="M11.52,324.2A1.79,1.79,0,1,0,9.74,326a1.78,1.78,0,0,0,1.78-1.78"/><path class="cls-1" d="M11.32,315.26a2.14,2.14,0,1,0-2.14,2.14,2.14,2.14,0,0,0,2.14-2.14"/><path class="cls-1" d="M7.08,306.32a2.49,2.49,0,1,0,2.49-2.49,2.48,2.48,0,0,0-2.49,2.49"/><path class="cls-1" d="M10.91,300.32a2.85,2.85,0,1,0-2.85-2.86,2.86,2.86,0,0,0,2.85,2.86"/><path class="cls-1" d="M13.37,285.65a3.21,3.21,0,1,0,3.2,3.21,3.21,3.21,0,0,0-3.2-3.21"/><path class="cls-1" d="M16.92,284.2a3.56,3.56,0,1,0-3.55-3.56,3.57,3.57,0,0,0,3.55,3.56"/><path class="cls-1" d="M21.54,276.88A3.92,3.92,0,1,0,17.61,273a3.91,3.91,0,0,0,3.93,3.91"/><path class="cls-1" d="M31.39,266a4.28,4.28,0,1,0-4.28,4.27A4.27,4.27,0,0,0,31.39,266"/><path class="cls-1" d="M251.22,334.13A33.28,33.28,0,0,1,238,331.46a34,34,0,0,1-10.75-7.3A34.53,34.53,0,0,1,220,313.31a34.29,34.29,0,0,1,0-26.53,34.22,34.22,0,0,1,18-18.18,33.64,33.64,0,0,1,26.62,0,35.27,35.27,0,0,1,10.89,7.55,6.58,6.58,0,0,1,1.51,2.5,3.92,3.92,0,0,1-.43,3.38,4.13,4.13,0,0,1-3.33,1.88h-.05a4.63,4.63,0,0,1-3.59-1.38,44.39,44.39,0,0,0-8.34-5.53,21.6,21.6,0,0,0-10-2.45,24.61,24.61,0,0,0-9.82,2,25.51,25.51,0,0,0-8,5.51,26.15,26.15,0,0,0-5.34,8.12,25.34,25.34,0,0,0,0,19.64,25.18,25.18,0,0,0,13.35,13.51,24.46,24.46,0,0,0,9.81,2,25.35,25.35,0,0,0,10.26-2.11,24.86,24.86,0,0,0,8.21-5.84,5.07,5.07,0,0,1,2.7-1.58,4.37,4.37,0,0,1,1-.13,3.93,3.93,0,0,1,2.23.71,4.27,4.27,0,0,1,1.64,3.49,4.88,4.88,0,0,1-1.23,3.41A32.91,32.91,0,0,1,265,331.3a33.77,33.77,0,0,1-13.73,2.83"/><path class="cls-1" d="M322.1,334a33.39,33.39,0,0,1-13.22-2.66,34,34,0,0,1-18-18,34.28,34.28,0,0,1,0-26.43,35.19,35.19,0,0,1,7.25-10.79,33.8,33.8,0,0,1,10.74-7.29,34,34,0,0,1,26.43,0,34.14,34.14,0,0,1,18.09,18.08,34,34,0,0,1,0,26.43,33.91,33.91,0,0,1-7.29,10.75,35.32,35.32,0,0,1-10.8,7.24A33.38,33.38,0,0,1,322.1,334m0-59.11a25.24,25.24,0,0,0-9.82,2,24.64,24.64,0,0,0-8,5.39,25.75,25.75,0,0,0-5.36,8.07,25.7,25.7,0,0,0,0,19.64,25.27,25.27,0,0,0,33,13.36A25.69,25.69,0,0,0,340,318a25.4,25.4,0,0,0,5.4-27.63,25.83,25.83,0,0,0-5.41-8.07,25.23,25.23,0,0,0-17.87-7.36"/><path class="cls-1" d="M416.09,334.23A4.17,4.17,0,0,1,413,333a4.12,4.12,0,0,1-1.28-3.08V291a15.73,15.73,0,0,0-1.28-6.32,16.73,16.73,0,0,0-8.81-8.78,16,16,0,0,0-12.63,0,16.46,16.46,0,0,0-5.17,3.54,17.26,17.26,0,0,0-3.51,5.25A15.8,15.8,0,0,0,379,291v38.87a4.37,4.37,0,0,1-8.74,0V291a25,25,0,0,1,1.94-9.75,24.58,24.58,0,0,1,5.36-8,25.08,25.08,0,0,1,8-5.38,24.7,24.7,0,0,1,19.52,0,25.28,25.28,0,0,1,13.37,13.35,24.25,24.25,0,0,1,2,9.76v38.87a4.23,4.23,0,0,1-1.26,3.08,4.3,4.3,0,0,1-3.1,1.28"/><path class="cls-1" d="M459,334.23a27.52,27.52,0,0,1-9.44-1.61,25.61,25.61,0,0,1-7.77-4.48,20.93,20.93,0,0,1-5.27-6.7,18.12,18.12,0,0,1-1.93-8.23,4.17,4.17,0,0,1,4.17-4.16,4,4,0,0,1,2.93,1.22,4.06,4.06,0,0,1,1.22,2.94,10.3,10.3,0,0,0,1.2,4.85,12.69,12.69,0,0,0,3.34,4,17.47,17.47,0,0,0,5.1,2.74,20,20,0,0,0,6.35,1,20.25,20.25,0,0,0,6.41-1,18.43,18.43,0,0,0,5.25-2.75,11.85,11.85,0,0,0,3.43-4,8.65,8.65,0,0,0,1-4.76,9.67,9.67,0,0,0-1.47-4.44,14.9,14.9,0,0,0-3.44-3.81,19.26,19.26,0,0,0-4.9-2.81,28,28,0,0,0-5.85-1.64,34,34,0,0,1-8.47-1.68,27.7,27.7,0,0,1-7.24-3.61,18.69,18.69,0,0,1-5.09-5.26,12.51,12.51,0,0,1-2-6.85,13.58,13.58,0,0,1,1.85-6.91,18.24,18.24,0,0,1,5-5.49,25,25,0,0,1,7.28-3.67,29.65,29.65,0,0,1,17.69,0,25.78,25.78,0,0,1,7.28,3.67,18.4,18.4,0,0,1,5,5.49,13.57,13.57,0,0,1,1.87,6.91,4.35,4.35,0,0,1-4.37,4.36,4,4,0,0,1-3.09-1.36,5.45,5.45,0,0,1-1.27-3.33,5.43,5.43,0,0,0-1.12-2.94,11,11,0,0,0-3-2.72,16.54,16.54,0,0,0-4.57-2,20.69,20.69,0,0,0-5.54-.74,21.52,21.52,0,0,0-5.71.74,16.25,16.25,0,0,0-4.56,1.95,10.2,10.2,0,0,0-2.94,2.87,5.64,5.64,0,0,0-1,3.24,4.27,4.27,0,0,0,1.24,3,12.86,12.86,0,0,0,3.52,2.67,26.9,26.9,0,0,0,4.79,2,28.62,28.62,0,0,0,4.86,1.09,34.63,34.63,0,0,1,9.17,2.28,29.13,29.13,0,0,1,7.55,4.46,20,20,0,0,1,5.13,6.39,17.52,17.52,0,0,1,1.87,8,18.45,18.45,0,0,1-1.93,8.28,20.21,20.21,0,0,1-5.27,6.71,26.72,26.72,0,0,1-17.2,6.13"/><path class="cls-1" d="M503,334.23a4.37,4.37,0,0,1-4.38-4.36V270.25a4.25,4.25,0,0,1,1.29-3.1,4.18,4.18,0,0,1,3.09-1.27h36.38a4.34,4.34,0,0,1,4.36,4.37,4.34,4.34,0,0,1-4.36,4.35h-32v20.88h22.67a4.37,4.37,0,1,1,0,8.73H507.39v21.28h32a4.34,4.34,0,0,1,4.36,4.38,4.35,4.35,0,0,1-4.36,4.36Z"/><path class="cls-1" d="M601.29,334.23a4.37,4.37,0,0,1-4.38-4.36V291a15.56,15.56,0,0,0-1.28-6.32,16.77,16.77,0,0,0-3.55-5.23,17,17,0,0,0-5.25-3.55,15.48,15.48,0,0,0-6.3-1.3,15.68,15.68,0,0,0-6.32,1.3,16.4,16.4,0,0,0-5.18,3.54,17.62,17.62,0,0,0-3.52,5.24,16,16,0,0,0-1.28,6.32v38.87a4.37,4.37,0,1,1-8.73,0V291a25.08,25.08,0,0,1,15.26-23.12,24.81,24.81,0,0,1,19.54,0,25.27,25.27,0,0,1,13.34,13.35,24.29,24.29,0,0,1,2,9.76v38.87a4.26,4.26,0,0,1-1.27,3.08,4.21,4.21,0,0,1-3.09,1.28"/><path class="cls-1" d="M644.2,334.23a27.56,27.56,0,0,1-9.44-1.61,25.37,25.37,0,0,1-7.77-4.48,21.24,21.24,0,0,1-5.28-6.69,18.28,18.28,0,0,1-1.93-8.24,4.09,4.09,0,0,1,1.21-2.93,4.18,4.18,0,0,1,7.13,2.93,10.22,10.22,0,0,0,1.18,4.84,12.65,12.65,0,0,0,3.34,4,17.28,17.28,0,0,0,5.1,2.75,20,20,0,0,0,6.36,1,20.25,20.25,0,0,0,6.41-1,18.22,18.22,0,0,0,5.24-2.75,12.31,12.31,0,0,0,3.45-4,8.73,8.73,0,0,0,1-4.76,9.8,9.8,0,0,0-1.48-4.44,15,15,0,0,0-3.43-3.82,19,19,0,0,0-4.91-2.8,27.51,27.51,0,0,0-5.85-1.64,33.77,33.77,0,0,1-8.46-1.68,27.77,27.77,0,0,1-7.25-3.61,18.65,18.65,0,0,1-5.08-5.26,12.48,12.48,0,0,1-2-6.85,13.87,13.87,0,0,1,1.85-6.91,18.19,18.19,0,0,1,5-5.49,25.2,25.2,0,0,1,7.27-3.67,29.65,29.65,0,0,1,17.69,0,25.39,25.39,0,0,1,7.28,3.67,18.11,18.11,0,0,1,5,5.49,13.69,13.69,0,0,1,1.87,6.91,4.29,4.29,0,0,1-1.3,3.1,4.15,4.15,0,0,1-3.07,1.26,4,4,0,0,1-3.1-1.37,5.23,5.23,0,0,1-1.26-3.31,5.45,5.45,0,0,0-1.12-2.94,11,11,0,0,0-3-2.73,16.29,16.29,0,0,0-4.57-2,20.16,20.16,0,0,0-5.55-.74,21.56,21.56,0,0,0-5.7.74,15.77,15.77,0,0,0-4.55,1.95,10.08,10.08,0,0,0-2.94,2.87,5.61,5.61,0,0,0-1,3.24,4.33,4.33,0,0,0,1.23,3,13.23,13.23,0,0,0,3.53,2.67,26,26,0,0,0,4.79,2,29.75,29.75,0,0,0,4.84,1.09,34.42,34.42,0,0,1,9.18,2.28,28.69,28.69,0,0,1,7.56,4.46,20.27,20.27,0,0,1,5.12,6.38,17.44,17.44,0,0,1,1.88,8,18.5,18.5,0,0,1-1.92,8.28,20.74,20.74,0,0,1-5.28,6.71,26.77,26.77,0,0,1-17.2,6.13"/><path class="cls-1" d="M710,334.23a4.35,4.35,0,0,1-4.37-4.36V307.65l-26.88-34.73a4.26,4.26,0,0,1-.94-3.14,4,4,0,0,1,1.54-2.92,4.38,4.38,0,0,1,2.8-1,4.26,4.26,0,0,1,3.27,1.58L710,299.07,735,267.45a4.09,4.09,0,0,1,2.94-1.57h.07a4.64,4.64,0,0,1,3.08,1,4.15,4.15,0,0,1,1.58,2.94,4.44,4.44,0,0,1-1,3.14l-27.4,34.73v22.21a4.17,4.17,0,0,1-1.27,3.09,4.27,4.27,0,0,1-3.1,1.27"/><path class="cls-1" d="M775.59,334.23a27.62,27.62,0,0,1-9.45-1.61,25.56,25.56,0,0,1-7.76-4.48,21.27,21.27,0,0,1-5.28-6.7,18,18,0,0,1-1.92-8.23,4.15,4.15,0,0,1,7.1-2.93,4.06,4.06,0,0,1,1.22,2.93,10.29,10.29,0,0,0,1.19,4.85,12.93,12.93,0,0,0,3.35,4,17.24,17.24,0,0,0,5.1,2.74,19.82,19.82,0,0,0,6.34,1,20.22,20.22,0,0,0,6.42-1,18.41,18.41,0,0,0,5.25-2.75,12.24,12.24,0,0,0,3.43-4,8.57,8.57,0,0,0,1-4.76,10.1,10.1,0,0,0-1.46-4.44,15.5,15.5,0,0,0-3.45-3.82,19.19,19.19,0,0,0-4.9-2.8,28.19,28.19,0,0,0-5.85-1.64,33.76,33.76,0,0,1-8.47-1.68,27.77,27.77,0,0,1-7.25-3.61,18.65,18.65,0,0,1-5.08-5.26,12.47,12.47,0,0,1-2-6.85,13.86,13.86,0,0,1,1.84-6.91,18.29,18.29,0,0,1,5-5.49,25.2,25.2,0,0,1,7.27-3.67,29.68,29.68,0,0,1,17.7,0,25,25,0,0,1,7.26,3.68,17.92,17.92,0,0,1,5,5.48,13.78,13.78,0,0,1,1.86,6.91,4.23,4.23,0,0,1-1.29,3.1,4.19,4.19,0,0,1-3.08,1.26,4,4,0,0,1-3.08-1.36,5.25,5.25,0,0,1-1.29-3.32,5.33,5.33,0,0,0-1.11-2.94,10.74,10.74,0,0,0-3-2.73,16.61,16.61,0,0,0-4.56-2,20.21,20.21,0,0,0-5.55-.74,21.45,21.45,0,0,0-5.7.74,15.66,15.66,0,0,0-4.55,1.95,10,10,0,0,0-3,2.87,5.67,5.67,0,0,0-1,3.24,4.26,4.26,0,0,0,1.23,3,13,13,0,0,0,3.52,2.67,26,26,0,0,0,4.79,2,29.51,29.51,0,0,0,4.85,1.09,34.51,34.51,0,0,1,9.18,2.28,29.42,29.42,0,0,1,7.56,4.46,20,20,0,0,1,5.12,6.39,17.62,17.62,0,0,1,1.88,8,18.51,18.51,0,0,1-1.93,8.28,20.6,20.6,0,0,1-5.28,6.71,26.77,26.77,0,0,1-17.2,6.13"/></g></svg>