<svg id="Layer_1" data-name="Layer 1" xmlns="http://www.w3.org/2000/svg" viewBox="0 0 800 600"><defs><style>.cls-1{fill:#fff;}</style></defs><g id="DocuSign"><rect class="cls-1" x="423" y="337.48" width="38.46" height="7.93"/><rect class="cls-1" x="479.41" y="337.48" width="38.48" height="7.93"/><rect class="cls-1" x="366.55" y="337.48" width="38.47" height="7.93"/><rect class="cls-1" x="592.25" y="337.48" width="38.5" height="7.93"/><rect class="cls-1" x="648.69" y="337.48" width="38.49" height="7.93"/><rect class="cls-1" x="535.85" y="337.48" width="38.48" height="7.93"/><rect class="cls-1" x="761.54" y="337.48" width="38.46" height="7.93"/><rect class="cls-1" x="705.11" y="337.48" width="38.48" height="7.93"/><path class="cls-1" d="M0,344.23H41.29c34.2,0,64.47-19.93,64.47-57,0-41.92-30.92-57.63-67.86-57.63H0V344.23m25.28-91.34h14.9c21.38,0,39.38,10.52,39.38,33.06,0,26.05-17.67,35-41.14,35H25.28Z"/><path class="cls-1" d="M111.28,304.87c0,25.12,19.42,41.32,43.69,41.32s43.74-16.2,43.74-41.32-19.43-41.3-43.74-41.3-43.69,16.2-43.69,41.3m24.27,0c0-11.81,7.3-19.92,19.42-19.92s19.44,8.11,19.44,19.92-7.27,19.94-19.44,19.94-19.42-8.1-19.42-19.94"/><path class="cls-1" d="M277.4,274.1c-7.6-7.76-18.78-10.53-28-10.53-24.3,0-43.72,16.2-43.72,41.29s19.42,41.33,43.72,41.33c9.22,0,20.4-2.77,28-10.54l-16-16.85c-2.75,3.24-6.62,6-12,6-12.15,0-19.43-8.1-19.43-19.94S237.25,285,249.4,285a15,15,0,0,1,12,6l16-16.84"/><path class="cls-1" d="M360.35,265.55H336v39.16c0,10.23-1.93,20.1-14.59,20.1-12.46,0-12.61-11.67-12.61-20.74V265.55H284.54v43.39c0,21.05,4.5,37.25,29.16,37.25,11.82,0,19.76-6.47,23-12.64H337v10.68h23.35V265.55"/><path class="cls-1" d="M778.82,384.64h3V378H784l4.07,6.67h3.16l-4.26-6.9a4.12,4.12,0,0,0,3.89-4.47c0-3.14-1.84-4.93-5.76-4.93h-6.28v16.3m3-13.76H784c1.84,0,3.87.08,3.87,2.25s-2,2.31-3.87,2.31h-2.17ZM770,376.57a14.27,14.27,0,1,0,14.25-14.24A14.3,14.3,0,0,0,770,376.57m2.53,0a11.74,11.74,0,1,1,11.72,11.76,11.74,11.74,0,0,1-11.72-11.76"/><rect class="cls-1" x="423" y="337.48" width="38.46" height="7.93"/><rect class="cls-1" x="479.41" y="337.48" width="38.48" height="7.93"/><rect class="cls-1" x="366.55" y="337.48" width="38.47" height="7.93"/><rect class="cls-1" x="592.25" y="337.48" width="38.5" height="7.93"/><rect class="cls-1" x="648.69" y="337.48" width="38.49" height="7.93"/><rect class="cls-1" x="535.85" y="337.48" width="38.48" height="7.93"/><rect class="cls-1" x="761.54" y="337.48" width="38.46" height="7.93"/><rect class="cls-1" x="705.11" y="337.48" width="38.48" height="7.93"/><path class="cls-1" d="M581.65,325.68c-4.16-4.16,38-37.93,50.71-36.12-4.86,14.6-46.55,40.3-50.71,36.12m49.65,14c5.63-7.42,21.77-46.73,21.77-52.36,0-9.49-8.64-14.49-18-14.49-30.53,0-79.88,52.12-90.3,52.12-11.77,0,6.27-25,6.27-34.74,0-6.47-5.78-13.17-10.43-13.17-9,0-37.51,27.08-56.25,33.33,4.17-7,6.26-14.6,6.26-18.74,0-33.36-94.48-20.86-94.48-39.59,0-16.82,59.13-45.85,93.78-45.85,4.86,0,36.8,2.09,36.8,13.18,0,4.16-6.94,5.56-6.94,9.74s3.47,4.86,7.65,4.86c6.25,0,10.41-5.58,10.41-12.52,0-28.3-24.61-34-44.46-34-51.1,0-111.84,44.46-111.84,64.62,0,26.37,86.14,21.52,86.14,45.14,0,28.46-92.37,54.17-92.37,61.11s4.86,6.28,10.39,6.28c37.52,0,136.14-62.53,144.49-70.87.69,14.57-5.46,28.41-5.46,34.64s4.78,14.69,11.71,14.69,17.38-10.44,32.66-18.77c-.69,4.86,3.48,12.51,9,12.51,11.81,0,47.94-29.2,54.9-34-1.65,13.11-10.09,28.46-14.88,34.46a44.42,44.42,0,0,0-11.72-1.54c-14.37,0-54,42-54,61.55,0,7.64,4.17,15.3,11.8,15.3,10.61,0,48.85-31.68,62.88-63.7,6.23.7,16.31,5.34,16.31.45s-6.58-8.19-12.17-9.57M567.37,396c-2.44,0-4-1.05-4-6.63,0-17.85,37.19-43.11,50.13-43.11C606,362.65,574.31,396,567.37,396M555.24,238.51c0-5.18,3.88-9.36,8.72-9.36s8.67,4.18,8.67,9.36-3.88,9.38-8.67,9.38-8.72-4.21-8.72-9.38m116.71,67c-4.85,6.26-17.38,20.86-17.38,26.4s2.79,9,7,9C672,341,706,300,722,300c11.8,0-7.63,42.36,18.07,42.36,9.29,0,40.4-20.56,40.4-32.47,0-2.09-2.2-5.73-5-5.73-1.67,0-23,25.7-32,25.7-7.65,0,0-16,0-26.4,0-10.83-1.68-20.14-12.51-20.14-14.58,0-35.41,18.76-40.28,21.53,2.1-4.16,2.79-6.25,2.79-9,0-5.56-7-11.81-12.53-11.81-4.81,0-30.49,13.18-30.49,30.06,0,4.14,15.24-10.6,21.48-8.52"/></g></svg>