<svg id="Layer_1" data-name="Layer 1" xmlns="http://www.w3.org/2000/svg" viewBox="0 0 800 600"><defs><style>.cls-1{fill:#fff;fill-rule:evenodd;}</style></defs><g id="Ducati"><path class="cls-1" d="M376.73,5.63c68.67-6,174.46,15.61,233.61,45.29C626.5,59,641,69.13,651.18,80.5c13,14.54,15.24,29.9,14.72,55.33-.8,38.86-11.4,84.62-21.42,119-21.77,74.8-44.31,130.31-88,192.42-30.11,42.84-89.26,118.47-137.32,143.08-21.32,10.91-36.53,2.16-51.89-8.28-14.4-9.78-26-20.41-37.76-32.05-22.9-22.6-43.85-47.67-65-75.24-10-13.13-19.8-26.92-29.37-41.05-33.22-49.06-48.66-81.54-68.79-141.2-15.15-44.91-37.18-128-31.46-178.08C137.67,90.7,147,81,160.16,69.87c22.54-19.14,61.72-34.38,96.25-44,43.68-12.13,75-16.28,120.32-20.26M178.89,278.38c3.23-1.78,8-7.11,18.86-13,21.58-11.7,48.35-18.77,73-24,88-18.72,210.91-21,303.18-20.58,10.54,0,21.73.08,32,.52,9.59.41,22.27,1.28,31.67.71,1.63-8.5,4-16.59,5.55-25.17,4.62-24.77,10.34-60.1,4.81-84.25-6.73-29.4-42.9-45.75-68.29-55.9C519,32.41,431.83,19,364.81,24.93,299,30.72,214.68,49.62,173.49,82c-11.94,9.4-20.22,17.93-22.71,39.42C145.46,167.3,166,236.77,178.89,278.38m452.24-31.81c-8.34-.9-77.34,4.31-85.65,5.12-27.85,2.73-54.23,5.83-81.33,9.84-50.33,7.45-101.73,20.62-143.54,39.19-35.72,15.85-86,48.54-86.72,96-.12,8,.87,7.32,6.36,16.08,8,12.73,19,29.28,27.64,41C294,489,341.71,548.86,378.67,571.29c11.09,6.74,20,11.2,34,4.86,10.12-4.56,20-12.32,27.25-18.33,48.4-40.32,111-123.3,140.25-179.74,20-38.49,38.46-86.17,51-131.51M184.72,183.93c34.16.44,69.18,5.9,80.9-32.88,5.29-17.53,3-33.76-11.29-39.88-8-3.42-15.6-3.25-25.24-3.25-8,0-21-.77-28.4.21Zm167.76-76-29.3,0c-1.92,12.17-6.58,32.15-9.44,45.73-1.1,5.19-2.21,10.54-6.76,11.61-7.41,1.75-6-6.62-5-11.49,1.13-5.37,2.07-10,3.16-15.24,1.83-8.82,5.4-21.89,6.18-30.55l-29.05,0c-1.13,2-10,45.67-10.95,51.18-3.85,22.74,14.3,28,34.63,26.81,36.11-2.12,36-26.29,41.26-51.46,1.59-7.55,4.72-19.2,5.22-26.49m65.61,76.09,27.81,0L451.56,172l21.2-.07.35,11.62c3.26,1.16,24,.48,30.53.46l-8-75.81c-9.07-.64-27.92-.25-38.42-.22l-19.76,38.14c-2.87,5.35-18.85,34.8-19.4,38m4.85-28-27.65-.24c-1.18,4.71-5.43,14-12.17,9.33-5.58-3.87,1.26-32.18,6.25-37,1.87-1.82,5.89-3.3,8.81-1.65,2.73,1.55,2.22,5.78,2.13,9.57l26.95,0c1.46-13.63-.22-20.71-9.2-25.94-16.67-9.71-57.26-5.91-65.75,34.83-5.16,24.73,3.62,40.61,28.19,41.06,22.15.42,38.79-11.3,42.44-29.93m85-27.76,17.92.07c.26,6.7-11.36,50.49-10.79,55.64l29,.06c2.45-7.64,4.35-19.8,6-27.78,1.12-5.49,4.19-24.4,6.19-27.72l17.57-.11c1.09-1.95,4.14-17.32,4.45-20.5l-66,0Zm60.13,55.59,29.6.08,15.71-76-29.52-.1ZM217.27,166.53c12.69.86,16-7.28,18.37-17.69,2.64-11.48,5.84-24.54-9.51-23.47Zm243-13.46,12,.09.11-27.46c-1.73,1.87-11.36,23.94-12.12,27.37"/></g></svg>