<svg id="Layer_1" data-name="Layer 1" xmlns="http://www.w3.org/2000/svg" viewBox="0 0 800 600"><defs><style>.cls-1{fill:#fff;fill-rule:evenodd;}</style></defs><g id="E-Trade"><path class="cls-1" d="M.14,336.06s-.55,3.86,1.7,6.4,7.94,2.17,7.94,2.17l86.89.05V328.09H21.81V307.51H72.13V291.57H21.81V272.16H95V256.23H9.75s-5.72-.38-8,2.16S.07,264.82.07,264.82Z"/><path class="cls-1" d="M140.93,301.7l30.81,53.53,20.35-11.8L173.8,311.74h36.62V288.21H173.83l-.08.05,18.34-31.77-20.35-11.72L141,298a3.24,3.24,0,0,0,0,3.7"/><path class="cls-1" d="M166.76,301.7l-30.82,53.53-20.37-11.8,18.31-31.69H97.29V288.21h36.56l.07.05-18.35-31.77,20.37-11.72L166.71,298a3.24,3.24,0,0,1,0,3.7"/><path class="cls-1" d="M703.53,336.13s-.6,3.84,1.64,6.38,8,2.17,8,2.17l86.79-.21V328.13H725.18V307.61h50.28v-16H725.18v-19.4h73.18v-16H713.12s-5.73-.38-8,2.18-1.69,6.41-1.69,6.41Z"/><polygon class="cls-1" points="276.06 344.8 254.31 344.8 254.31 273.01 211.35 273.01 211.35 256.38 319.18 256.38 319.18 273.01 276.06 273.01 276.06 344.8"/><path class="cls-1" d="M578.41,256.38h57.26c35,0,53.83,15,53.83,44,0,17.56-8,29.17-21,37.11-9,5.66-21.74,7.28-38.41,7.28H578.41ZM627,327.22c27.49,0,40.92-4,40.92-27.18,0-19-11.41-27-31.88-27H600.33v54.21Z"/><path class="cls-1" d="M487.07,310.48l20.82-35.87L528,310.48ZM528,270.92l-5.86-9.72a11,11,0,0,0-9.11-4.88l-4.39.06-4.13-.06a11,11,0,0,0-9.14,4.88L492,266.71l-46.73,78.21H467l10.83-17.6h59.27l11.2,17.6h24.46Z"/><path class="cls-1" d="M401.93,296.52H353.38V273.31h48.45c9.16,0,14.54,4.63,14.54,11.34,0,7.34-5.23,11.87-14.44,11.87m38,48.21-22.47-32.84c13.32-3.65,20.13-12.7,20.13-26.62,0-17.22-13.15-28.95-33.33-28.95H331.88v88.41h21.5V313.49H394l21.74,31.24Z"/></g></svg>