<svg id="Layer_1" data-name="Layer 1" xmlns="http://www.w3.org/2000/svg" viewBox="0 0 800 600"><defs><style>.cls-1{fill:#fff;}</style></defs><g id="Eloqua"><polygon class="cls-1" points="0 234.63 0 235.14 0 353.33 106.06 353.33 106.06 332.57 23.99 332.57 23.99 302.49 94.06 302.49 94.06 281.74 23.99 281.74 23.99 255.39 103.4 255.39 103.4 234.63 0 234.63"/><polygon class="cls-1" points="124.32 353.33 124.32 235.14 124.32 234.63 148.32 234.63 148.32 331.92 231.2 331.92 231.2 353.33 124.32 353.33"/><path class="cls-1" d="M298.54,230.16c26,0,42.24,8.05,53.4,19.8s15.76,28.22,15.76,44.42c0,12.31-3.63,28.14-14.29,40.42s-26.91,21.84-54.84,21.84h0c-28,0-44.22-9.55-54.87-21.84s-14.3-28.11-14.3-40.42c0-16.2,4.6-32.67,15.77-44.42s27.4-19.8,53.4-19.8m-45.17,62.92c0,33,23.24,42.58,45.17,42.64s45.14-9.63,45.17-42.64c0-28-18.44-41.95-45.17-42s-45.14,14-45.17,42"/><path class="cls-1" d="M479,352c-8.43,3.18-17.9,4.38-29.53,4.64-27.94,0-44.22-9.55-54.87-21.84s-14.29-28.11-14.29-40.42c0-16.2,4.6-32.67,15.76-44.42s27.41-19.8,53.4-19.8,42.25,8.05,53.41,19.8,15.76,28.22,15.76,44.42c0,14.69-5,33.51-21.17,47.15,7.29,6.39,10.89,7.37,22.62,7.55h.5v20.76H519.2c-14.1,0-25.83-1.2-40.23-17.84m-74.7-58.92c0,33,23.25,42.58,45.17,42.63a66,66,0,0,0,15-1.75c-2.68-6.25-5.77-10.21-13.23-12.72l-.34-.11V300.19l.54,0c18.65,1.43,26.48,14.42,31.36,23.77l.25.49c7.07-6.54,11.56-17.11,11.56-31.41,0-28-18.44-41.94-45.18-42s-45.14,14-45.17,42"/><path class="cls-1" d="M551.34,343.63c-11-8.72-17.06-22.27-17.05-41.31V234.63h24V300.7c.1,19.31,5.22,35.09,37.58,35.18,32.34-.09,37.47-15.87,37.56-35.18V234.63h24v67.69c0,19-6.08,32.59-17,41.31s-25.26,13-44.5,13-33.56-4.29-44.52-13"/><path class="cls-1" d="M774.59,353.32l-12.31-27H695.1l-12.46,27H657.06l58.31-118.4.14-.28h26.85L800,353.32Zm-69.47-47.78h47.64l-23.82-50.77Z"/></g></svg>