<svg id="Layer_1" data-name="Layer 1" xmlns="http://www.w3.org/2000/svg" viewBox="0 0 800 600"><defs><style>.cls-1{fill:#fff;fill-rule:evenodd;}</style></defs><g id="Epic_Games" data-name="Epic Games"><polygon class="cls-1" points="334.19 391.93 335 391.93 335.81 391.93 336.62 391.93 337.43 391.93 338.25 391.93 339.06 391.93 339.79 391.93 340.6 391.93 341.42 391.93 342.23 391.93 343.04 391.93 343.85 391.93 344.67 391.93 345.48 391.93 346.29 391.93 345.96 391.19 345.72 390.45 345.4 389.63 345.07 388.9 344.83 388.16 344.51 387.43 344.18 386.61 343.93 385.87 343.61 385.14 343.29 384.4 343.04 383.66 342.71 382.85 342.48 382.11 342.15 381.37 341.82 380.64 341.58 379.9 341.25 379.08 340.93 378.35 340.69 377.62 340.36 376.88 340.04 376.06 339.79 375.32 339.46 374.58 339.14 375.32 338.9 376.06 338.57 376.88 338.25 377.62 338.01 378.35 337.68 379.08 337.35 379.9 337.03 380.64 336.79 381.37 336.46 382.11 336.13 382.85 335.89 383.66 335.57 384.4 335.24 385.14 335 385.87 334.67 386.61 334.35 387.43 334.02 388.16 333.78 388.9 333.46 389.63 333.13 390.45 332.88 391.19 332.56 391.93 333.37 391.93 334.19 391.93"/><path class="cls-1" d="M379.16,199.12V149.7c0-7.86-3.63-11.51-11.18-11.51h-12.3v72.45H368C375.53,210.64,379.16,207,379.16,199.12Z"/><path class="cls-1" d="M580.78,43.66H219.22c-29.31,0-40.13,10.81-40.13,40.13v353.8a91.83,91.83,0,0,0,.43,9.25c.67,6.4.79,12.6,6.75,19.66.58.7,6.65,5.22,6.65,5.22,3.27,1.6,5.5,2.78,9.19,4.27l178,74.59c9.25,4.24,13.11,5.89,19.82,5.75H400c6.71.14,10.57-1.51,19.82-5.75l178-74.59c3.69-1.49,5.92-2.67,9.19-4.27,0,0,6.07-4.52,6.65-5.22,6-7.06,6.08-13.26,6.75-19.66a91.83,91.83,0,0,0,.43-9.25V83.79C620.91,54.47,610.09,43.66,580.78,43.66ZM422.55,111.79h29.9V308.36h-29.9Zm-13,267.2.41.66.4-.66.41-.73.49-.65.4-.73.41-.65.41-.74.48-.65.41-.74.41-.65.4-.65.49-.73.4-.65.41-.73.41-.66.48-.73.41-.65.41-.73.4-.66.41-.65.48-.73.41-.65.41-.73.4-.66.49-.73.41-.65.41-.65.4-.74.49-.65.41-.73.4-.65.41-.74.49-.65.4-.73.41-.65H441v59.4H425.36V380.54l-.4.65-.49.74-.41.66-.48.65-.41.73-.49.66-.4.65-.41.74-.49.65-.4.66-.49.65-.41.74-.49.65-.4.65-.41.74-.49.66-.4.65-.49.73-.4.66-.49.65-.41.74-.41.65-.48.65-.41.74-.49.65-.4.66-.49.65-.41.74-.4.65-.49.66-.4.73-.49.65-.41.66-.49.74-.4.65h-.33l-.49-.74-.4-.65-.49-.74-.41-.65-.48-.73-.41-.66-.48-.74-.41-.65-.49-.73-.41-.66-.49-.74-.4-.65-.49-.73-.41-.66-.48-.74-.41-.65-.48-.73-.49-.66-.41-.74-.49-.65-.4-.73-.49-.66-.41-.74-.48-.65-.41-.73-.49-.66-.4-.73-.49-.66-.41-.73-.49-.66-.4-.73-.49-.65-.41-.74-.48-.65v35H378.89v-59.4h16.66l.4.65.41.73.48.65.41.74.41.65.4.73.41.65.49.74.4.65.41.65.41.73.4.66.49.73.41.65.4.73.41.65.49.66.41.73.4.65.41.73.4.66.49.73.41.65.4.73.41.65.4.65.49.74.41.65.4.74.41.65.4.73.49.65Zm-83.74-267.2h47c24.31,0,36.33,12.07,36.33,36.51v52.23c0,24.43-12,36.5-36.33,36.5H355.68v71.33h-29.9Zm-81.51,0h66.52V139H274.17v55.6h35.22v27.24H274.17v59.25h37.18v27.24H244.27Zm56.6,270.1v25.7l-.57.49-.65.49-.57.41-.65.49-.65.41-.64.49-.66.4-.65.41-.73.41-.73.41-.73.41-.73.32-.73.41-.81.32-.73.33-.82.33-.73.32-.73.25-.73.24-.73.25-.81.24-.73.25-.82.16-.73.16-.81.17-.82.16-.81.08-.89.08-.81.09-.9.08-.81.08-.89.08h-3.5l-.81-.08-.89-.08-.81-.08-.82-.09-.81-.08-.81-.16-.82-.17-.72-.16-.82-.16-.73-.25-.81-.16-.74-.25-.73-.32-.73-.25-.81-.32-.73-.33-.73-.32-.73-.33-.73-.41-.65-.4-.73-.41-.66-.41-.64-.41-.66-.49-.64-.49-.65-.48-.57-.49-.57-.5-.57-.57-.57-.49-.57-.57-.57-.57-.48-.57-.49-.65-.49-.57-.41-.66-.48-.65-.41-.65-.4-.66-.41-.73-.41-.65-.32-.74-.33-.73-.32-.74-.33-.73-.24-.65-.33-.74-.16-.73-.24-.74-.16-.81-.25-.74-.16-.81-.08-.74-.17-.81-.08-.74-.08-.81-.08-.82-.08-.82v-2.69l.08-.9v-.81l.08-.82.08-.9.17-.81.08-.81.16-.74.24-.81.17-.82.24-.74.24-.81.25-.74.32-.81.33-.74.32-.73.33-.73.32-.74.41-.73.41-.66.4-.65.41-.65.41-.65.48-.66.49-.65.49-.65.48-.58.57-.57.49-.57.57-.57.57-.57.56-.49.66-.57.56-.49.65-.49.66-.41.64-.49.66-.41.64-.4.73-.41.74-.41.73-.41.73-.32.73-.33.81-.41.65-.24.81-.25.74-.32.73-.17.73-.24.81-.17.73-.24.81-.16.81-.09.82-.16.81-.08.81-.08.81-.08.82-.09h3.49l.9.09.89.08h.81l.81.08.9.16.73.08.81.17.81.16.74.16.73.17.73.16.73.25.73.16.65.24.73.25.73.32.73.33.74.33.73.41.73.32.65.41.73.41.65.41.73.4.65.49.65.41.65.49.65.49.65.57.65.49-.49.65-.57.58-.49.65-.56.65-.49.65-.49.57-.57.66-.48.65-.49.57-.57.66-.49.65-.57.65-.48.57-.49.66-.57.65-.49.65-.57.57-.48.66-.66-.49-.64-.58-.66-.4-.64-.49-.65-.41-.65-.41-.65-.41-.73-.41-.66-.32-.64-.33-.66-.24-.73-.25-.73-.24-.73-.17-.81-.16-.81-.16-.81-.08-.9-.09-.89-.08h-1.71l-.81.08-.73.09-.81.16-.73.16-.74.25-.73.24-.73.33-.73.32-.65.41-.65.41-.65.41-.57.49-.57.49-.57.49-.49.57-.56.57-.49.65-.41.57-.4.66-.41.73-.4.65-.33.74-.24.73-.33.74-.24.81-.17.82-.16.73-.16.9-.08.81-.08.82V387l.08.81.08.74.08.81.16.74.17.73.16.74.24.73.25.65.32.82.33.73.4.74.41.65.41.65.48.66.49.57.57.57.49.57.56.49.66.49.64.49.65.41.65.41.74.32.72.33.74.32.81.25.81.24.82.17.81.16.81.08.89.08h1.87l.9-.08.89-.08.81-.08.81-.16.82-.17.81-.24.73-.17.73-.32.65-.33.73-.32.57-.33.65-.41V393H274.06V381.08h26.81Zm12.6,33.78h-6.58l.32-.74.33-.73.32-.74.33-.81.24-.73.33-.74.32-.73.33-.73.32-.74.33-.82.32-.73.33-.73L311,406l.33-.73.32-.74.32-.81.33-.74.32-.73.33-.74.33-.73.24-.74.32-.81.33-.74.33-.73.32-.74.32-.73.33-.74.32-.81L316,394l.32-.73.33-.73.32-.74.33-.73.32-.82.33-.73.32-.74.25-.73.32-.74.32-.73.33-.82.33-.73.32-.74.33-.73.32-.74.25-.73.32-.73.33-.82.32-.73.32-.74.33-.73.33-.73.32-.74.24-.81.33-.74.33-.73.32-.74.32-.73.33-.74.32-.81.33-.74.24-.73.33-.74.32-.73.33-.74.32-.81.32-.73.33-.74.33-.73.24-.74.32-.73.33-.82.33-.73.32-.74.33-.73.32-.74.32-.73.25-.82.32-.73.33-.74.32-.73h15l.33.73.33.74.32.73.32.82.25.73.32.74.33.73.32.74.33.73.32.82.33.73.32.74.24.73.33.74.33.73.32.81.33.74.32.73.33.74.32.73.24.74.33.81.32.74.33.73.32.74.33.73.32.74.33.81.24.74.33.73.32.73.33.74.33.73.32.82.32.73.33.73.24.74.33.73.32.74.32.73.33.82.33.73.32.74.33.73.24.74.33.73.32.82.32.73.33.74.33.73.32.73.33.74.24.81.32.74.33.73.32.74.33.73.32.74.33.81.33.74.24.73.32.74.33.73.32.74.33.81.32.74.33.73.32.74.25.73.32.73.32.82.33.74.33.73.32.73.32.74.33.73.25.81.32.74.32.73.33.74H355.55l-.32-.74-.25-.73-.32-.74-.33-.81-.24-.73-.32-.74-.33-.73-.24-.73-.33-.74-.32-.73-.25-.74-.32-.81-.33-.74-.24-.73-.33-.74H327.77l-.32.74-.25.73-.33.74-.32.81-.24.74L326,409l-.33.74-.24.73-.32.73-.33.74-.24.73-.33.81-.32.74-.25.73-.32.74h-9.83Zm85.15,99.24-83.8-28.81H486ZM500.4,403v12.65H453v-59.4h47v13.46H468.55v9.71h28.28v12.65H468.55v10.12H500.4ZM468.25,273.54V146.61c0-24.43,12-36.51,36.33-36.51h14.54c24.31,0,36,11.8,36,36.23v40.16H525.83V148c0-7.86-3.64-11.51-11.18-11.51h-5c-7.82,0-11.45,3.65-11.45,11.51V272.14c0,7.86,3.63,11.51,11.45,11.51h5.6c7.54,0,11.17-3.65,11.17-11.51V227.77h29.35v45.77c0,24.43-12,36.5-36.33,36.5H504.58C480.27,310,468.25,298,468.25,273.54Zm88.4,123.85v1.06l-.08.9-.09.82-.08.89-.16.82-.24.82-.16.73-.25.82-.32.73-.33.65-.32.74-.41.65-.41.65-.48.66-.41.65-.49.57-.57.57-.48.49-.65.57-.57.49-.65.49-.65.41-.65.48-.73.41-.73.33-.73.41-.82.32-.81.33-.81.24-.81.25-.74.24-.81.17-.73.16-.73.16-.81.17-.82.08-.73.08-.81.08-.89.09-.82.08h-3.41l-.81-.08h-.89l-.81-.09-.82-.08-.89-.08-.81-.16-.82-.09-.81-.16-.81-.16-.81-.17-.82-.16-.81-.24-.73-.17-.81-.24-.81-.25-.74-.32-.81-.25-.73-.24-.81-.33-.73-.33-.73-.32-.73-.4-.74-.33-.73-.41-.65-.41-.73-.41-.65-.4-.65-.41-.65-.49-.65-.49-.65-.49-.65-.49-.57-.49-.65-.57.49-.65.57-.57.49-.66.56-.65.49-.57.49-.65.57-.66.48-.57.58-.65.48-.57.57-.65.49-.66.49-.57.56-.65.49-.66.57-.57.49-.65.65.49.73.49.65.49.73.49.65.41.73.49.65.41.73.32.65.41.73.33.74.32.73.33.73.24.73.33.81.24.81.25.73.24.82.17.81.16.81.16.89.09.82.16H532l.89.08h1.79l.89-.08.82-.16.73-.17.73-.16.65-.25.57-.32.65-.49.48-.57.33-.66.25-.73.08-.82v-.16l-.08-1-.33-.82-.41-.57-.56-.49-.66-.49-.65-.32-.73-.33-.81-.33-1-.4L535,394l-.65-.16-.73-.24-.74-.17-.81-.24-.81-.16-.89-.25-.82-.16-.89-.25-.81-.16-.82-.24-.81-.17-.81-.24-.73-.25-.81-.16-.73-.25-.73-.24-.74-.25-.89-.32-.81-.33-.81-.33-.82-.32-.73-.41-.81-.41-.65-.41-.73-.4-.65-.49-.65-.41-.57-.49-.57-.57-.57-.57-.49-.58-.48-.57-.41-.57-.4-.65-.41-.73-.33-.57-.24-.65-.24-.74-.25-.65-.16-.82-.16-.73-.09-.82-.08-.81-.08-.9v-1.88l.08-.81.08-.74.09-.82.16-.73.16-.73.25-.74.16-.73.32-.74.33-.73.32-.74L511,365l.4-.74.49-.65.49-.65.57-.65.57-.57.56-.66.66-.57.56-.41.66-.49.64-.49.65-.4.74-.41.73-.33.73-.41.73-.32L521,357l.81-.32.74-.25.65-.16.73-.17.73-.16.81-.16.73-.17.81-.08.82-.08.81-.08.81-.08h3.49l.9.08.89.08h.81l.9.08.81.17.89.08.82.16.73.16.81.17.81.16.73.16.82.25.73.24.73.17.81.32.73.25.73.32.73.33.82.33.73.4.65.33.73.41.73.41.65.41.73.49.65.4.65.49.65.49.65.49-.49.66-.4.65-.49.65-.49.65-.48.74-.41.65-.49.65-.49.66-.4.65-.49.65-.49.66-.41.65-.48.73-.49.66-.48.65-.41.65-.49.65-.65-.49-.73-.4-.65-.41-.65-.49-.73-.33-.65-.41-.73-.32-.65-.33-.74-.33-.64-.32-.73-.25-.66-.32-.89-.25-.81-.24-.81-.25-.82-.16-.81-.16-.81-.17-.81-.08-.82-.08-.73-.08h-1.78l-.9.16-.81.16-.73.17-.65.32-.57.33-.73.65-.49.74-.32.73-.08.82v.16l.08,1.06.4.9.33.49.56.57.74.41.65.41.81.32.9.33,1,.33.65.16.65.24.73.17.73.24.81.17.9.24.89.24.9.25.89.16.81.25.89.24.82.17.81.24.81.25.73.24.82.25.73.24.73.25.89.32.81.41.82.32.81.41.73.41.73.41.65.4.65.49.65.41.65.57.65.57.57.66.57.57.48.65.49.73.41.66.41.73.32.65.25.74.24.73.16.74.16.81.16.82.09.82.08.89Z"/></g></svg>