<svg id="Layer_1" data-name="Layer 1" xmlns="http://www.w3.org/2000/svg" viewBox="0 0 800 600"><defs><style>.cls-1{fill:#fff;}</style></defs><g id="Extreme"><path class="cls-1" d="M156.43,216.19c.87,10.55.14,21.11.38,31.67,0,1.82-1.07,1.87-2.38,1.86-2.58,0-5.15,0-7.73,0-36.08,0-72.16.06-108.24-.09-3.78,0-5,.7-5,4.79.25,19.66.07,39.33.16,59a7,7,0,0,1-2.35,5.66C21.1,328.82,11,338.68.59,348.78c2.1,1.5,3.6,1.08,5,1.08q73.25,0,146.49-.08c3.91,0,5.06.9,4.91,4.87-.32,8.67-.18,17.36,0,26,0,2.51-.78,3.18-3.24,3.18q-58.8-.12-117.6,0c-2.22,0-3.45-1.09-4.81-2.44Q15.68,366,.07,350.56q0-65.67-.07-131.34c0-2.58.63-3.1,3.13-3.09q76.65.12,153.3.06"/><path class="cls-1" d="M610.42,286.46c11.9-17.19,36.89-16.08,46.85,1.86l3.09-3.63c11.46-13.35,33.2-14.2,43.87-1.68,4.79,5.63,6.68,12.37,6.75,19.57.14,14.79,0,29.57.12,44.36,0,2.84-1,3.32-3.48,3.31-7.89,0-7.89.08-7.89-7.83,0-11.4,0-22.79,0-34.18a44.08,44.08,0,0,0-.38-6.9c-1.89-11.48-8.84-17.19-20.17-16.73-10,.41-18.29,8.75-18.63,19.57-.44,13.95-.4,27.93-.28,41.89,0,3.5-1.06,4.31-4.36,4.21-6.78-.23-6.78,0-6.78-6.87,0-12.07,0-24.15,0-36.22a34.85,34.85,0,0,0-.58-6.45c-1.81-9.55-7.5-15.28-15.77-16.09a20.05,20.05,0,0,0-20.94,12.21,27,27,0,0,0-2.13,11.08c0,12.89-.07,25.78.07,38.66,0,2.84-.76,3.7-3.63,3.67-7.92-.08-7.92.05-7.92-7.87,0-20.89.07-41.78-.08-62.66,0-3.2.8-4.16,4-4.07,7.43.22,7.42.05,7.55,7.42,0,1-.37,2.14.73,3.37"/><path class="cls-1" d="M223.57,299.68c0-15.47.09-30.94-.08-46.42,0-3.11.87-3.78,3.86-3.76q32.78.19,65.55,0c3.23,0,3.75,1,3.68,3.88-.18,6.81,0,6.82-6.76,6.82-16.69,0-33.39.14-50.08-.11-3.9-.06-4.61,1.2-4.51,4.72.24,8.55.21,17.1,0,25.65-.07,3,.69,3.89,3.8,3.86,15.74-.17,31.49,0,47.23-.16,3,0,3.92.67,3.82,3.77-.22,6.92,0,6.93-7.14,6.93-14.65,0-29.31.1-44-.08-3.16,0-3.8.92-3.74,3.86q.28,13.85,0,27.69c-.06,2.9.84,3.6,3.65,3.58,18.05-.13,36.1,0,54.15-.15,3.38,0,4.39.85,4.24,4.26-.27,6.19-.07,6.2-6.31,6.2h-9.36q-26.26,0-52.52,0c-6.23,0-5.5.74-5.51-5.31,0-15.07,0-30.13,0-45.2"/><path class="cls-1" d="M549.48,317.62c-8.55,0-17.09.15-25.63-.07-3.44-.09-3.74,1.11-3,4,4.84,20.19,28.21,27.28,44.87,13.57,1.33-1.1,2.65-3.64,4-3,2.35,1.09,4.2,3.32,6.16,5.18,1.08,1-.16,1.64-.71,2.29-9.07,10.78-26.36,15.24-41,10.58a36.66,36.66,0,0,1-25.07-31.54c-1.33-15.43,2.58-28.91,15.75-38.18,21.26-15,49.27-2.48,53.48,23.57a83.86,83.86,0,0,1,.89,10.51c.09,2.59-.83,3.2-3.25,3.16-8.81-.12-17.63-.05-26.44-.05M544,308.57c6.9,0,13.81,0,20.72,0,1.11,0,2.79.78,2.8-1.68,0-7.76-6.83-18.26-14.3-21.26-15.79-6.34-30.11,4.64-32.76,20.87-.42,2.52,1.4,2.09,2.82,2.09,6.9,0,13.81,0,20.72,0"/><path class="cls-1" d="M770.32,317.63c-8.68,0-17.37.1-26-.06-2.93-.06-3.35.83-2.76,3.53,4.28,19.49,26,27.42,42.94,15.58.55-.39,1.09-.81,1.62-1.23,4.69-3.71,4.57-3.56,9.08.26,2.15,1.82,1.84,2.88.1,4.63-11,11.11-28,15-42.42,9-15.29-6.33-22.54-18.46-23.2-34.64-.68-16.74,7.7-31.28,21.1-37.38,21-9.56,44,2.73,48.2,25.76A84.81,84.81,0,0,1,800,314c.13,2.81-.74,3.74-3.63,3.68-8.68-.18-17.36-.07-26-.06m-5.72-9.06h21.12c1.33,0,2.65.29,2.62-1.95-.16-11.49-10.84-22.44-22.39-22.83-12.27-.42-22.12,8.93-24.67,22.51-.45,2.43,1,2.28,2.6,2.28,6.91,0,13.81,0,20.72,0"/><path class="cls-1" d="M101.06,283c10,0,20.07.07,30.11-.05,2.48,0,3.54.4,3.48,3.25-.2,9.21-.15,18.44,0,27.66,0,2.3-.65,3-3,3q-30.93-.12-61.84,0c-2.23,0-3-.53-3-2.92q.21-14,0-28.07c0-2.32.67-2.95,2.95-2.92,10.44.11,20.88.05,31.32.05"/><path class="cls-1" d="M382.53,350.2c-4.31,0-7.68-.1-11,0-2,.09-2.85-1.23-3.83-2.53-6.86-9.07-13.74-18.13-20.9-27.57-6.42,8.41-12.88,16.37-18.74,24.74-2.89,4.13-6,6.22-11,5.37a29,29,0,0,0-4.75,0c-.5-1.62.6-2.24,1.19-3,8.18-10.65,16.31-21.33,24.64-31.86,1.77-2.23,1.85-3.58,0-5.85-7.66-9.67-15.1-19.52-22.61-29.32-1-1.24-1.81-2.54-3.12-4.39,4.19,0,7.67.08,11.14,0,2.06-.07,2.78,1.5,3.72,2.72,5.64,7.3,11.21,14.65,16.79,22,3,4,3,4,6.16-.14,5.27-6.9,10.66-13.71,15.76-20.73,2-2.76,4.07-4.4,7.68-3.88,2.34.34,4.77.07,8,.07-5.67,7.33-10.86,14-16.05,20.73-3.16,4.07-6.22,8.24-9.56,12.15-2.05,2.39-2.39,4-.17,6.76,8.16,10.13,16,20.56,23.89,30.89.8,1,1.54,2.15,2.8,3.91"/><path class="cls-1" d="M404.11,310.06c0-6.51-.29-13,.11-19.53.25-4.12-1.22-5.33-5-4.67-.13,0-.27,0-.4,0-4,.7-5.51-.66-5.18-5,.46-6-.43-5.4,5.32-5.05,4.3.27,5.55-1.08,5.21-5.28-.38-4.72,0-9.49-.12-14.24-.05-2,.43-2.81,2.66-2.9,8.67-.35,8.67-.44,8.67,8.18,0,3.66.14,7.33-.05,11-.14,2.44.47,3.32,3.09,3.22,5.83-.21,11.67.07,17.49-.13,2.6-.09,3.15.8,3.15,3.23,0,6.94.09,6.94-6.7,6.94-4.75,0-9.5.09-14.24,0-2.08-.06-2.8.54-2.79,2.71.1,13.57-.11,27.14.12,40.7.17,9.91,7.33,14.2,18.24,11.29a14.92,14.92,0,0,0,2.67-1c2.06-1,2.46-.18,2.55,1.83.32,7.28,0,7.83-7.16,9.44a29.39,29.39,0,0,1-14.87-.45c-8.15-2.4-12.61-9.22-12.78-19.57-.11-6.92,0-13.84,0-20.76"/><path class="cls-1" d="M470.3,293c4.92-8.68,11.19-15.11,20.76-17.54,2.87-.73,7-2.19,8.32,0,1.51,2.5.54,6.53.54,9.9,0,1.32-1.18,1.16-2.1,1.33-19.75,3.72-27.95,13.57-28.2,34.07-.11,8.68-.12,17.35,0,26,.05,2.65-.69,3.48-3.41,3.48-7.83,0-7.83.11-7.83-7.88,0-20.74.08-41.47-.08-62.21,0-3.43.6-4.72,4.37-4.53,6.89.35,6.89.09,6.9,6.83q0,4.68.07,9.35c0,.22.22.43.63,1.19"/></g></svg>