<svg id="Layer_1" data-name="Layer 1" xmlns="http://www.w3.org/2000/svg" viewBox="0 0 800 600"><defs><style>.cls-1{fill:#fff;}</style></defs><g id="Facebook"><path class="cls-1" d="M63.48,258.81V270a1.15,1.15,0,0,1-1.22,1.21H14.42v22.77H53.91a1.15,1.15,0,0,1,1.21,1.21V306.3a1.14,1.14,0,0,1-1.21,1.21H14.42v33.68a1.15,1.15,0,0,1-1.22,1.21h-12A1.14,1.14,0,0,1,0,341.19V258.81a1.14,1.14,0,0,1,1.21-1.21H62.26a1.15,1.15,0,0,1,1.22,1.21"/><path class="cls-1" d="M161.11,342.4h-13.2a1.33,1.33,0,0,1-1.4-1.09c-1.75-7-3.87-14.3-6.3-21.69H99.69c-2.42,7.39-4.54,14.72-6.24,21.69a1.32,1.32,0,0,1-1.39,1.09H79.34c-.85,0-1.33-.49-1.09-1.33,7.63-27,19.26-56.82,31-81.89a2.33,2.33,0,0,1,2.37-1.58h17.2a2.32,2.32,0,0,1,2.36,1.58,554,554,0,0,1,31,81.89c.24.84-.24,1.33-1.09,1.33m-25.38-35.86c-4.42-12.23-9.33-24.47-14.35-35.61h-2.85c-5,11.14-10,23.38-14.42,35.61Z"/><path class="cls-1" d="M182.79,300.73c0-26.29,17.32-44.7,42-44.7h1.82c15.51,0,27.5,7.87,33.86,19.26a1.07,1.07,0,0,1-.43,1.69l-10.65,5.27a1.48,1.48,0,0,1-2.13-.54c-4.48-7.75-11.2-11.87-21.13-11.87h-1.82c-15.57,0-26.29,12.35-26.29,30.28s10.54,30,26.29,30h1.82c10.17,0,16.11-3.45,20.65-8.72a1.53,1.53,0,0,1,2-.42l11,5.33a1,1,0,0,1,.61.85,1.53,1.53,0,0,1-.37.9C253.29,337.92,241.18,344,226.4,344h-1.82c-25.13,0-41.79-17.26-41.79-43.24"/><path class="cls-1" d="M357,330v11.15a1.14,1.14,0,0,1-1.21,1.21h-63.6a1.15,1.15,0,0,1-1.21-1.21V258.81a1.15,1.15,0,0,1,1.21-1.21h62.51a1.14,1.14,0,0,1,1.21,1.21V270a1.14,1.14,0,0,1-1.21,1.21h-49.3v22.05h40.09a1.14,1.14,0,0,1,1.21,1.21v11a1.14,1.14,0,0,1-1.21,1.21H305.38v22.17h50.39A1.14,1.14,0,0,1,357,330"/><path class="cls-1" d="M466.49,319.14c0,14.84-11.39,23.26-31.5,23.26H393.32a1.14,1.14,0,0,1-1.21-1.21V258.81a1.14,1.14,0,0,1,1.21-1.21h38c19.56,0,30.22,7.75,30.22,21.93,0,9.33-4.73,15.44-14.3,18.29,13.45,2.85,19.27,10.9,19.27,21.32M431,270.81H406.52v22.77H431c11,0,16-3.57,16-11.39s-5-11.38-16-11.38m20.72,47.06c0-7.88-5.21-11.45-16.66-11.45H406.52v22.77h28.53c11.63,0,16.66-3.39,16.66-11.32"/><path class="cls-1" d="M491.86,300c0-25.56,17-44,43.61-44h1.82c26.65,0,43.6,18.41,43.6,44s-16.95,44-43.6,44h-1.82c-26.65,0-43.61-18.41-43.61-44m45.43,30.16c17.38,0,28.34-11.93,28.34-30.16s-11-30.16-28.34-30.16h-1.82c-17.38,0-28.35,11.93-28.35,30.16s11,30.16,28.35,30.16Z"/><path class="cls-1" d="M605.48,300c0-25.56,17-44,43.61-44h1.82c26.65,0,43.61,18.41,43.61,44s-17,44-43.61,44h-1.82c-26.65,0-43.61-18.41-43.61-44m45.43,30.16c17.38,0,28.34-11.93,28.34-30.16s-11-30.16-28.34-30.16h-1.82c-17.38,0-28.34,11.93-28.34,30.16s11,30.16,28.34,30.16Z"/><path class="cls-1" d="M799,342.4H783.37a2.29,2.29,0,0,1-2.12-1,331.49,331.49,0,0,0-35-35.19h-7v35a1.14,1.14,0,0,1-1.21,1.21h-12a1.14,1.14,0,0,1-1.21-1.21V258.81a1.14,1.14,0,0,1,1.21-1.21h12a1.14,1.14,0,0,1,1.21,1.21v33.44h7.15A260.68,260.68,0,0,0,778,258.51a1.94,1.94,0,0,1,1.82-.91h14.77c.73,0,1.09.37,1.09.85a1.51,1.51,0,0,1-.42.91,302.09,302.09,0,0,1-37.85,39.37,365.23,365.23,0,0,1,42.21,42.15c.67.79.3,1.52-.67,1.52"/></g></svg>