<svg id="Layer_1" data-name="Layer 1" xmlns="http://www.w3.org/2000/svg" viewBox="0 0 800 600"><defs><style>.cls-1{fill:#fff;}</style></defs><g id="Flatiron"><polygon class="cls-1" points="105.76 300 105.76 422.12 211.52 361.06 211.52 238.94 105.76 300"/><polygon class="cls-1" points="105.76 177.88 0 238.94 0 361.06 105.76 300 105.76 177.88"/><path class="cls-1" d="M712.64,319.72c0,25.38-18.65,43.86-43.35,43.86s-43.36-18.48-43.36-43.86c0-25.54,18.66-43.86,43.36-43.86s43.35,18.32,43.35,43.86m-22.34,0c0-15.63-10.09-23.53-21-23.53s-21,7.9-21,23.53c0,15.46,10.08,23.53,21,23.53s21-7.9,21-23.53"/><path class="cls-1" d="M452.8,348V307.29c0-16.64-9.75-31.43-36-31.43-21.42,0-33.28,13.33-35.28,25.9l19.83,4.2c1.18-6.65,6.48-12.12,15.62-12.12,9.41,0,13.95,4.88,13.95,10.76,0,2.85-1.51,5.21-6.22,5.88l-20.33,3c-13.78,2-24.71,10.25-24.71,25,0,12.94,10.76,24.87,28.4,24.87,12.27,0,20.17-5.71,24.37-12.26a56.32,56.32,0,0,0,.84,9.91h20.5a93.28,93.28,0,0,1-1-13.11M431,327.62c0,14.62-8.74,19.16-18.15,19.16-7.23,0-10.75-4.71-10.75-9.58,0-6.39,4.53-9.58,10.25-10.42L431,323.92Z"/><rect class="cls-1" x="344.48" y="238.94" width="22.35" height="122.12"/><path class="cls-1" d="M497.14,278.38h16.64v19.83H497.14v34.62c0,7.23,3.36,9.58,9.75,9.58a32.9,32.9,0,0,0,6.89-.67v18.48c-2,.84-6.23,2-13.92,2-13.14,0-24.9-10.32-24.9-25.55V298.21H461.47V278.38H475v-24.7h22.18Z"/><path class="cls-1" d="M309.72,361.06H287.54v-62.8h-15V278.43h15V262.52c0-16,12.19-25.54,25.64-25.54a59.2,59.2,0,0,1,18.43,2.58v18.49a58.49,58.49,0,0,0-12.14-1.24c-6.39,0-9.75,2.35-9.75,9.58v12h21.07v19.83H309.72Z"/><rect class="cls-1" x="527.89" y="278.38" width="22.35" height="82.68"/><rect class="cls-1" x="527.89" y="244.89" width="22.35" height="21.24"/><path class="cls-1" d="M619.47,300.56a34,34,0,0,0-6.72-.67c-11.43,0-21.34,5.55-21.34,23.36v37.81H569.06V278.38h21.67v11.84a24.75,24.75,0,0,1,21.61-12.51c1.84,0,5.45.17,7.13.34Z"/><path class="cls-1" d="M746.9,361.06H724.55V278.38h21.67v10.25c5-8.57,15-12.43,23.87-12.43,20.5,0,29.91,14.62,29.91,32.77v52.09H777.65V312.83c0-9.24-4.54-16.47-15.29-16.47-9.75,0-15.46,7.57-15.46,17.14Z"/></g></svg>