<svg id="Layer_1" data-name="Layer 1" xmlns="http://www.w3.org/2000/svg" viewBox="0 0 800 600"><defs><style>.cls-1{fill:#fff;fill-rule:evenodd;}</style></defs><g id="GAP"><path class="cls-1" d="M232.32,304.41H172.43v6.88h17V466.23s2.47,23.32-17,23.32-17.31-32.15-17.31-35.33V137.28s1.06-26.5,14.84-26.5c13.35,0,31,36.16,36.92,105.92v11.92h6.89V107.25h-6.89v10.19a6.19,6.19,0,0,1-3.35,1.11c-2.83,0-14.84-14.48-32.51-14.48s-42.75,8.83-42.75,44.87V438.32s-3.89,57.59,44.16,57.59c0,0,14.49,1.06,30-12,0,0,8.83-4.24,8.83,8.83h7.42V311.29h13.6Z"/><path class="cls-1" d="M451.09,485.66,409.87,110.43H385.49s-37.1,356.15-37.1,360.4c0,3.79-2.47,13.38-14.74,14.83h-3.81V486h0v6.54h42.4v-6.9h-3.1c-5.72-.38-13.33-4.17-13.33-15.54l13.92-134.44h35.95l16.09,150H406.69v6.9h59.89v-6.9Zm-80.62-158,17.14-161.47,17.33,161.47Z"/><path class="cls-1" d="M623.05,110.27l-59.48.11v6.89h14.84V486.15H564.63V493h65.19v-6.89H608.09V336.87h26c36.51,0,37.69-34.39,37.69-34.39V148.9c0-38.4-48.76-38.63-48.76-38.63m20.49,197.15c0,21-15.54,21.21-15.54,21.21H608.09V117.57h15c17.9,0,20.49,24,20.49,24Z"/></g></svg>