<svg id="Layer_1" data-name="Layer 1" xmlns="http://www.w3.org/2000/svg" viewBox="0 0 800 600"><defs><style>.cls-1{fill:#fff;}</style></defs><g id="Genesys"><path class="cls-1" d="M83.63,226.06a7.42,7.42,0,0,1,0,14.83h-.42a7.23,7.23,0,0,1-7-7,7.79,7.79,0,0,1,2.06-5.35,6.65,6.65,0,0,1,5.36-2.47m0-9.48a17.14,17.14,0,0,0-16.89,17.71A16.94,16.94,0,0,0,82.8,250.36h.83a17,17,0,0,0,16.88-16.89,17.24,17.24,0,0,0-16.88-16.89Z"/><path class="cls-1" d="M72.09,335.63a17.31,17.31,0,0,1,0,34.61H53.55a17.31,17.31,0,0,1,0-34.61H72.09m0-11.53H53.55a28.43,28.43,0,0,0,0,56.85H72.09a28.43,28.43,0,0,0,0-56.85Z"/><path class="cls-1" d="M72.09,268.9a17.3,17.3,0,0,1,0,34.6H28.42a17.3,17.3,0,0,1,0-34.6H72.09m0-11.12H28.42a28.42,28.42,0,1,0,0,56.84H72.09a28.42,28.42,0,0,0,0-56.84Z"/><path class="cls-1" d="M321.73,381V368.59H264.88V324.51H316V312.56H264.88V270.13h56.85V257.78H252.52V381Zm204.33,0V368.59H469.21V324.51h51.08V312.56H469.21V270.13h56.85V257.78H456.85V381Zm150.36,0V329.87L718,257.78H704.43l-33.78,58.9-34.19-58.9h-14l41.61,72.09V381Zm-245.11,0V257.78H419V358.29L358,257.78H345.62V381H358V280.43L419,381ZM187.44,328.22H217.1v9.89c0,24.3-15.25,32.54-29.66,32.54s-29.66-8.65-29.66-32.54V301.44c0-24.3,15.24-32.54,29.66-32.54,15.65,0,26.36,9.47,28.83,25.13h12.36c-2.88-22.66-18.95-37.49-41.19-37.49-25.13,0-42,18.13-42,44.9v37.08c0,26.77,16.89,44.9,42,44.9s42-18.13,42-44.9V316.68h-42ZM541.3,343.87c.41,17.72,11.94,39.14,40,39.14,22.65,0,36.66-12.77,36.66-33.78,0-19-12.77-29.25-24.72-32.55l-21.42-5.76c-10.3-2.89-16.06-10.3-16.06-21,0-12.77,9.06-21.42,23.06-21.42,13.19,0,22.25,7.41,25.13,21.83h12.36c-2.47-16.89-13.18-33.78-37.49-33.78-21,0-35.42,13.59-35.42,33.37,0,16.48,9.06,29.25,24.3,33.36l20.6,5.77c10.71,2.89,16.89,10.3,16.89,20.6,0,14-8.65,21.42-24.31,21.42s-26.36-10.3-27.6-26.78Zm182.08,0c.41,17.72,11.94,39.14,40,39.14C786,383,800,370.24,800,349.23c0-19-12.77-29.25-24.72-32.55l-21.42-5.76c-10.3-2.89-16.06-10.3-16.06-21,0-12.77,9.06-21.42,23.07-21.42,13.18,0,22.24,7.41,25.12,21.83h12.36c-2.47-16.89-13.18-33.78-37.48-33.78-21,0-35.43,13.59-35.43,33.37,0,16.48,9.06,29.25,24.3,33.36l20.6,5.77c10.71,2.89,16.89,10.3,16.89,20.6,0,14-8.65,21.42-24.31,21.42s-26.36-10.3-27.6-26.78Z"/></g></svg>