<svg id="Layer_1" data-name="Layer 1" xmlns="http://www.w3.org/2000/svg" viewBox="0 0 800 600"><defs><style>.cls-1{fill:#fff;fill-rule:evenodd;}</style></defs><g id="Genentech"><path class="cls-1" d="M108,283.94V273.23S110.82,243,54.62,243C2.5,243,0,273.23,0,273.23v53.85S4.39,357,54.62,357C97.33,357,108,335.59,108,335.59V297.17H54.62v14.48H79.74v23.94s-1.25,6.94-25.12,6.94c-27.94,0-26.37-15.45-26.37-15.45V273.23s-1.57-16.38,26.37-16.38c27.32,0,25.12,16.38,25.12,16.38v10.71Z"/><path class="cls-1" d="M206.59,280.86v72.77h22.76v-56.3s0-9.3,18.53-9.3c18.69,0,18.69,9.14,18.69,9.14v56.54h22.76v-58.9s-.95-19.22-41.45-19.22c-13.86,0-23.07,2.24-29.19,5.21l.16,0Z"/><path class="cls-1" d="M387.45,280.86v72.77h22.77v-56.3s0-9.3,18.53-9.3,18.67,9.14,18.67,9.14v56.54h22.76v-58.9s-.94-19.22-41.43-19.22c-13.87,0-23.08,2.24-29.21,5.21l.16,0Z"/><path class="cls-1" d="M617.57,322.2h-60s-.17,13.48-.05,13.48.05,9.2,18.58,9.2c18.69,0,18.71-9.24,18.71-9.24l0-6h22.75v6S619.3,357,576.13,357s-41.3-21.42-41.3-21.42V298.27s-1.73-21.43,41.3-21.43c43.33,0,41.44,21.59,41.44,21.59Zm-60-23.46,0,8.34h37.22s.06-8.37.06-8.34,0-9.45-18.75-9.45c-18.53,0-18.57,9.45-18.57,9.45"/><path class="cls-1" d="M708.32,308.45v-10s1.88-21.59-41.45-21.59c-43,0-41.29,21.43-41.29,21.43v37.32S623.7,357,666.87,357s41.45-21.42,41.45-21.42V326.3H685.55l0,9.34s0,9.24-18.72,9.24c-18.52,0-18.48-9.29-18.59-9.3s.07-36.84.07-36.84.31-9.45,19.47-9.45c18,0,17.73,9.29,17.73,9.29v9.82Z"/><path class="cls-1" d="M475.38,279.59h7.21V262.11h22.76v17.48h25v12.28h-25v44.72s1.26,11.34,23.87,8.22c0,0,.12,11.09,0,11.12-19.62,2.55-46.6.51-46.6-19.34V291.87h-7.21Z"/><path class="cls-1" d="M717.26,244s22.77.2,22.77,0-.12,33.39,0,33.39a87.75,87.75,0,0,1,18.52-1.73c40.5,0,41.45,19.22,41.45,19.22v58.9H777.23V297.17s0-9.14-18.68-9.14c-18.52,0-18.52,9.3-18.52,9.3v56.3H717.26Z"/><path class="cls-1" d="M379.77,322.2h-60s-.16,13.48-.05,13.48.05,9.2,18.57,9.2c18.69,0,18.73-9.24,18.73-9.24l0-6h22.75v6S381.51,357,338.33,357,297,335.59,297,335.59V298.27s-1.72-21.43,41.29-21.43c43.33,0,41.44,21.59,41.44,21.59Zm-60-23.46,0,8.34H357s.07-8.37.07-8.34,0-9.45-18.76-9.45c-18.52,0-18.55,9.45-18.55,9.45"/><path class="cls-1" d="M198.9,322.2h-60s-.15,13.48,0,13.48,0,9.2,18.58,9.2,18.72-9.24,18.72-9.24l-.05-6H198.9v6S200.63,357,157.46,357s-41.3-21.42-41.3-21.42V298.27s-1.73-21.43,41.3-21.43c43.33,0,41.44,21.59,41.44,21.59Zm-60-23.46,0,8.34h37.21s.08-8.37.08-8.34,0-9.45-18.75-9.45c-18.54,0-18.56,9.45-18.56,9.45"/></g></svg>