<svg id="Layer_1" data-name="Layer 1" xmlns="http://www.w3.org/2000/svg" viewBox="0 0 800 600"><defs><style>.cls-1{fill:#fff;}</style></defs><g id="Gigamon"><path class="cls-1" d="M95.23,299.84H66.83V278.66h60.26v57.28c-16.17,5-34.52,7.68-54.93,7.68-48,0-72.16-19.29-72.16-57.43,0-37.65,24.48-58.83,68.89-58.83,37.33,0,56.63,12.4,58.2,37.49H92.57c-.47-10.35-9.56-16.8-24.64-16.8-22.28,0-34.67,13.05-34.67,36.43,0,24.79,12.72,37.34,38,37.34a95.2,95.2,0,0,0,24-3.31Z"/><path class="cls-1" d="M143.72,228.75H176.2V250.9H143.72ZM145,263H175.1v78.76H145Z"/><path class="cls-1" d="M265.17,263h29.48a141.1,141.1,0,0,0-1.09,17.9V321c0,15.21-.63,26.21-7.22,35-8.8,11.43-24.48,16.61-48.17,16.61-29.49,0-44.41-9.11-44.71-27.75h29.81c.31,7.07,5.63,10.66,15.83,10.66,16.65,0,24.31-7.54,24.31-23.53v-6.6c-7.83,8.94-19.13,13.33-33.55,13.33-24.79,0-40.64-16.15-40.64-38.29,0-24.31,15.69-39.36,42-39.36q18.6,0,32.95,13.64a62.64,62.64,0,0,1,1-11.77m-23.54,58.36c14.43,0,22.11-7.68,22.11-21.79,0-13.51-8-21.36-21.8-21.36s-21.81,8.17-21.81,22.44c0,12.41,8.31,20.71,21.5,20.71"/><path class="cls-1" d="M336.06,343.62c-20.23,0-31.19-8.94-31.19-23.84,0-9.58,4.22-17.27,12.23-22.14,7.83-4.86,21.17-5.48,40.31-5.48H372c0-.79.17-1.58.17-2.19,0-8.62-5.18-13.19-14.76-13.19-10.52,0-15.84,2.51-17,9.57H309.87c2-17.56,17.58-25.24,48-25.24,29.36,0,43.31,9.24,43.31,30.09v40.19a27.87,27.87,0,0,0,1.57,10.34H374.67a24.68,24.68,0,0,1-1.9-10.17v-1.44c-6.25,8.49-18.82,13.5-36.71,13.5m33.58-37c-22.9,0-33.42,2.34-33.42,11.14,0,5.82,5,8.79,15.08,8.79,13.33,0,20.7-6.42,20.7-18.21v-1.72Z"/><path class="cls-1" d="M415.62,281.49a145.77,145.77,0,0,0-.94-18.52h29.65c.62,4.26,1.1,8.49,1.41,12.71,8.8-9.72,19.75-14.58,32.64-14.58,14.59,0,24.15,5.62,28.25,16.31,7.51-10.83,18.51-16.31,32.14-16.31,22.13,0,34.53,11.59,34.53,33.42v47.22h-30v-48c0-9.58-5.66-14.92-15.24-14.92-13,0-19,7.54-19,22.9v40H479.47v-48c0-9.42-5.64-14.92-14.9-14.92-13.35,0-19.3,7.54-19.3,22.9v40H415.62Z"/><path class="cls-1" d="M585.06,302.2c0-26.35,18.36-41.27,53.36-41.27s53.51,14.92,53.51,41.59c0,27.14-18.38,41.1-54.78,41.1-34.2,0-52.09-14.91-52.09-41.42m75.31-.63c0-15.39-8.47-24.79-21.79-24.79-13.82,0-21.81,8.78-21.81,24.64s7.69,24.63,22,24.63c13.33,0,21.64-9.27,21.64-24.48"/><path class="cls-1" d="M701.8,281.49a140.43,140.43,0,0,0-1-18.52h30.3a105.58,105.58,0,0,1,.78,12.56c8.78-9.26,19.14-14.43,33.89-14.43C787.15,261.1,800,273,800,293.58v48.16H769.73V295c0-10.68-5.8-16.18-16.63-16.18-14.45,0-21.18,7.54-21.18,22.9v40H701.8Z"/></g></svg>