<svg id="Layer_1" data-name="Layer 1" xmlns="http://www.w3.org/2000/svg" viewBox="0 0 800 600"><defs><style>.cls-1{fill:#fff;}</style></defs><g id="Hitachi"><polygon class="cls-1" points="97.57 239.18 97.57 287.74 31.05 287.74 31.05 239.18 0 239.18 0 362.21 31.05 362.21 31.05 308.19 98 308.19 98 362.21 130.44 362.21 130.44 239.18 97.57 239.18"/><rect class="cls-1" x="157.4" y="239.18" width="31.05" height="123.03"/><polygon class="cls-1" points="200.4 239.18 333.62 239.18 333.62 259.63 283.92 259.63 283.92 362.21 251.48 362.21 251.48 259.63 200.4 259.63 200.4 239.18"/><path class="cls-1" d="M305.94,362.21l57-123h40.16l57.55,123H425.17l-11.34-26.08h-61l-10.4,26.08Zm100.77-46.52-23-55.26-23.57,55.26Z"/><polygon class="cls-1" points="611.55 362.21 611.55 239.18 643.98 239.18 643.98 287.74 710.5 287.74 710.5 239.18 741.99 239.18 741.99 362.21 710.94 362.21 710.94 308.19 643.98 308.19 643.98 362.21 611.55 362.21"/><rect class="cls-1" x="768.95" y="239.18" width="31.05" height="123.03"/><path class="cls-1" d="M560.14,280.44c.22-12.95-7.52-25.08-33.35-25.2-33.44-.15-36.47,29.47-36.59,45.45-.25,34.33,14.44,44.53,38.44,45,23.53.45,31.72-14.56,31.5-27.51h34.62c-1.52,30.84-22.49,46.21-66.12,46.59-52.09.46-74.45-28.11-74.45-64.07s21.9-65.34,73.06-65.46c36.23-.08,64.6,14.37,66.13,45.21Z"/></g></svg>