<svg id="Layer_1" data-name="Layer 1" xmlns="http://www.w3.org/2000/svg" viewBox="0 0 800 600"><defs><style>.cls-1,.cls-2{fill:#fff;}.cls-2{fill-rule:evenodd;}</style></defs><g id="Imprivata"><path class="cls-1" d="M76.7,324.53v25.94H44.65V324.53H0v37.53H121.36V324.53ZM0,320.27H44.67V303.33H0Zm76.7,0h44.66V303.33H76.7Zm0-21.2h44.66V282.12H76.7Zm-76.7,0H44.67V282.11H0Zm0-58.73v37.51H44.65V251.52H76.7v26.32h44.66V240.33Zm44.65-12.2H76.7V203H44.65Z"/><path class="cls-2" d="M164,362.14h15.62V277.45H164Zm16.61-121.22H163v17.61h17.6m10.77,18.92H206v12.29h.33c6-9.8,14.46-14.28,26.91-14.28,9.8,0,19.6,5,24.08,16.44,5.81-12.12,18.6-16.44,26.23-16.44,21.59,0,29.4,14,29.4,32.39v54.29H297.34V311.66c0-10.46-2.48-23.58-15.1-23.58-15.94,0-22.26,15.61-22.26,31.38v42.68H244.37V311.66c0-10.46-2.48-23.58-15.11-23.58-15.94,0-22.25,15.61-22.25,31.38v42.68H191.4M324.24,397h15.62V350.52h.32c4.82,7.8,13.29,13.62,28.24,13.62,25.56,0,36.37-22.59,36.37-45.83,0-22.75-12-42.85-36.54-42.85-14.95,0-24.58,7.64-28.73,14h-.33v-12H324.24Zm63.94-77.54c.33,13.28-6.64,32-23.41,32-17.6,0-24.91-17.44-24.91-31.56,0-15.77,8.13-31.88,25.07-31.88s23.58,16.11,23.25,31.39m24.23-42H427v13.12h.33c4.15-8.8,13.12-15.11,22.1-15.11a43.73,43.73,0,0,1,10.29,1.16v13.95a23.17,23.17,0,0,0-8.63-1.49c-14,0-23.1,13.28-23.1,34.53v38.53h-15.6m54.95,0H483V277.45H467.36ZM484,240.92h-17.6v17.61H484m56.78,103.61h-18.6l-30.39-84.69h17.1l22.92,69.09h.33l23.42-69.09h15.6m6.67,19.26c6.31-5.31,15.76-8.63,24.57-8.63,15.61,0,20.92,7.48,20.92,22.09-6.14-.33-10.46-.33-16.61-.33-16.11,0-39.35,6.64-39.35,27.89,0,18.43,12.79,26.41,31,26.41,14.28,0,22.59-7.81,26.24-13h.33v11h14.61a137,137,0,0,1-.66-16.6v-35c0-23.09-9.79-35-34-35a54,54,0,0,0-27.89,8Zm45.49,32.55c0,12.62-8.13,22.26-23.58,22.26-7.14,0-15.77-4.82-15.77-13.79,0-14.94,20.91-16.28,29.39-16.28,3.32,0,6.64.34,10,.34M697,290.08H674.58V336.4c0,9.8,6,15.12,13.12,15.12a19.22,19.22,0,0,0,10.63-3v13.28a49.16,49.16,0,0,1-13.28,2.32c-16.11,0-26.07-7.64-26.07-24.56V290.08h-19.1V277.45H659V257.86l15.6-5v24.58H697m14.43,19.26c6.31-5.31,15.78-8.63,24.58-8.63,15.6,0,20.92,7.48,20.92,22.09-6.15-.33-10.47-.33-16.61-.33-16.1,0-39.35,6.64-39.35,27.89,0,18.43,12.78,26.41,31,26.41,14.28,0,22.59-7.81,26.24-13h.33v11H773.2c-.33-2.49-.66-7-.66-16.6v-35c0-23.09-9.8-35-34-35a53.9,53.9,0,0,0-27.9,8Zm45.5,32.55c0,12.62-8.14,22.26-23.58,22.26-7.14,0-15.78-4.82-15.78-13.79,0-14.94,20.93-16.28,29.39-16.28,3.33,0,6.65.34,10,.34m31.31-27.72a11.76,11.76,0,1,0-11.76-11.76,11.77,11.77,0,0,0,11.76,11.76m0-2.28c-4.92,0-8.9-4-8.9-9.48s4-9.48,8.9-9.48,8.89,4,8.89,9.48-4,9.48-8.89,9.48m-4.52-2.86h2.47v-5.74h1.49l3.47,5.74h2.53l-3.58-5.84c2.19-.19,3.49-1.3,3.49-3.58,0-2.81-1.74-3.91-4.93-3.91h-4.94Zm2.47-11.44h2.22c1.26,0,2.7.26,2.7,1.82,0,1.8-1.28,2-2.74,2h-2.18"/></g></svg>