<svg id="Layer_1" data-name="Layer 1" xmlns="http://www.w3.org/2000/svg" viewBox="0 0 800 600"><defs><style>.cls-1{fill:#fff;}</style></defs><g id="JP_Morgan" data-name="JP Morgan"><path class="cls-1" d="M81.45,218H33.94v4H49.06v78.8c0,23.7-6.48,30.17-21.29,30.17-9.26,0-10.49-6.77-10.49-10.47,0-8.62-.62-13.85-8.64-13.85-7.71,0-8.64,8-8.64,10.47,0,10.77,8.33,19.08,29.93,19.08,25.91,0,36.1-8.62,36.1-37.55V222H81.45Z"/><path class="cls-1" d="M84.84,317.7a9.06,9.06,0,0,0-6.78,2.77,8.86,8.86,0,0,0-2.78,6.46,8,8,0,0,0,2.78,6.47,9.06,9.06,0,0,0,6.78,2.77,8.87,8.87,0,0,0,6.48-2.77,8,8,0,0,0,2.78-6.47,9.48,9.48,0,0,0-9.26-9.23"/><path class="cls-1" d="M186.66,317.7a8,8,0,0,0-6.48,2.77,8.86,8.86,0,0,0-2.78,6.46,8,8,0,0,0,2.78,6.47,8.87,8.87,0,0,0,6.48,2.77,9.06,9.06,0,0,0,6.78-2.77,7.92,7.92,0,0,0,2.78-6.47,8.82,8.82,0,0,0-2.78-6.46,9.06,9.06,0,0,0-6.78-2.77"/><path class="cls-1" d="M150.87,280.45H141.3V222.58l8.64-.31c27.77,0,33.63,11.39,33.63,29.86,0,18.78-10.8,28.32-32.7,28.32M157,218H110.45v4h13.88v89.88c0,7.08-.61,7.39-1.23,9.24a9.53,9.53,0,0,1-5.86,5.54,32,32,0,0,1-9.26,1.23v5.23h50v-5.23a34.43,34.43,0,0,1-9.56-1.23c-3.09-1.23-4.94-2.77-5.86-5.24-.93-2.15-1.24-3.69-1.24-7.38V284.76h12.34c36.1,0,46-14.16,46-33.55,0-19.7-6.17-33.25-42.57-33.25"/><path class="cls-1" d="M343.08,320.78a24.72,24.72,0,0,1-.93-7.7V222h12v-4H324.87c-.61.93-35.48,88-35.48,88-.3.31-.61.62-.92.62s-.62-.31-.93-.62c0,0-37-87.11-37.64-88H217.2v4h13.58V309.7l-.31,8a14.84,14.84,0,0,1-1.85,5.54,10.88,10.88,0,0,1-5.25,3.69,19.84,19.84,0,0,1-6.79.93v5.23H249.9v-5.23a12.83,12.83,0,0,1-5.55-.93,8.92,8.92,0,0,1-5.55-3.69A14.49,14.49,0,0,1,237,317.7l-.31-8V234h1.85s42,98.2,42.57,99.12h3.4l39.8-97.89h.92v77.88a27.36,27.36,0,0,1-.92,8,8.75,8.75,0,0,1-4.94,5.54,26.57,26.57,0,0,1-8.33,1.23v5.23h45.66v-5.23a21.77,21.77,0,0,1-8.64-1.54,8.77,8.77,0,0,1-4.93-5.54"/><path class="cls-1" d="M403.86,331.55c-18.21,0-21-9.23-21-38.17,0-22.78,1.23-39.4,21-39.4,21.29,0,21.29,17.24,21.29,37.86,0,29.55-4.94,39.71-21.29,39.71m.31-82.8c-24.38,0-39.5,16-39.5,44,0,40.94,32.09,43.71,38.88,43.71,13.88,0,39.8-8.31,39.8-44.33,0-28-16.66-43.4-39.18-43.4"/><path class="cls-1" d="M506.59,250c-14.5,0-19.43,8.62-23.44,17.24h-1.24l-2.77-16.63H451.68v4.31H466.8v57c0,5.54-.31,9.85-1.86,12.32-1.54,2.77-4.93,3.69-10.79,3.69h-2.47v5.23h46.89v-5.23H496.1c-6.17,0-9.25-1.23-10.79-4-1.55-2.16-2.16-6.16-2.16-12V282.3c0-9.85,7.71-21.24,17-21.24s9.56,13.54,19.74,8.62c7.1-3.39,5.55-19.7-13.27-19.7"/><path class="cls-1" d="M669.49,316.16a1,1,0,0,1-.3.62l-.31.3c-8,7.08-14.19,9.85-18.82,9.85-11.42,0-13.27-9.54-13.27-14.46,0-15.39,21-23.09,32.7-23.09Zm24.69,8.62c-5.25,0-6.79-2.77-7.1-7.39l-.31-10.77V272.14c0-7.39-1.23-12.31-5.55-16.62-4.32-4.62-12.65-6.77-25-6.77-11.73,0-20.37,2.15-25.61,6.46-5.55,4-7.71,7.7-7.71,13.24a6.39,6.39,0,0,0,2.16,5.23,7.79,7.79,0,0,0,5.24,1.85c4.63,0,7.1-2.16,8.33-8.31.62-4.62,1.54-7.08,4-9.55q3.24-3.69,11.11-3.69c5.86,0,10.18,1.54,12.34,4.62a20.46,20.46,0,0,1,3.39,12v13.85c-15.11,1.24-50.59,4.31-49,31.4.62,10.47,9.87,19.7,21.9,19.7,13.27,0,21.91-7.69,27.46-13.54a16,16,0,0,0,16.05,12.62c11.1,0,17.58-5.54,18.2-18.78h-2.78c-.61,5.85-4.32,8.93-7.09,8.93"/><path class="cls-1" d="M790.13,324.16c2.16,2.78,4.94,3.39,9.87,3.7v5.23H760.82v-5.23c3.08,0,5.24-.62,6.48-1.54,2.16-1.54,2.77-3.39,3.08-5.85a71.12,71.12,0,0,0,.62-9.85V283.53c0-6.46-.62-14.78-2.78-19.08-1.85-4-5.24-5.85-11.41-5.85-7.1,0-13,3.07-16.36,8.92-3.08,5.54-3.08,14.47-3.08,23.4v21.85c0,5.55.62,9.55,2.16,11.7s4.32,3.08,8.33,3.39v5.23H707.13v-5.23a19.72,19.72,0,0,0,7.1-.92c2.47-1.24,4.32-2.78,4.94-5.55.61-1.84.92-5.23.92-9.54v-57h-13v-4.31h25.92l2.78,15.09h1.23c3.39-6.47,10.49-16,27.15-16a27.83,27.83,0,0,1,12.34,2.77,19.7,19.7,0,0,1,8.33,8.31c2.16,3.7,2.78,8.31,2.78,13.85v37.25c0,4.31.62,9.85,2.47,12.31"/><path class="cls-1" d="M565.83,305.39c-10.49,0-16.66-3.7-16.66-25.55,0-15.39,5.24-26.78,16.66-26.78,13.58,0,17.28,10.46,17.28,26.47,0,23.09-7.1,25.86-17.28,25.86m40.73-60c-2.47.92-4.32,3.08-4.94,6.46s-1.85,5.55-3.7,5.85c-1.55.62-4.63.62-5.87-.3-4.31-4-12.34-8.62-26.53-8.62-22.83,0-33,16.31-33,31.09,0,17.54,6.79,25.86,21.6,28.93.61.31.61,1.24,0,1.24-12.65,2.77-23.76,6.46-23.76,18.16,0,7.38,4.32,11.08,9.56,13.23,5.87,2.47,13.89,3.7,24.38,4a145.8,145.8,0,0,1,19.43.92,19.72,19.72,0,0,1,10.8,3.69c2.47,1.85,4,4.93,4,9.24,0,5.23-3.08,9.85-8.94,12.93-5.56,3.07-13,4.92-22.22,4.92-8,0-14.5-.92-20.36-4.62-4.32-2.77-5.24-8-4.32-12,.62-3.69-.62-7.7-5.24-8.62-2.47-.31-5.56.92-6.79,3.08-1.54,2.15-1.85,4.62-1.85,7.69,0,9.85,7.4,14.47,13.26,16A68.59,68.59,0,0,0,564.91,382c10.79,0,19.43-1.54,25.91-4.93,6.17-3.08,10.49-6.77,13-11.39a26.86,26.86,0,0,0,3.7-13.23,25.12,25.12,0,0,0-4-14.47c-8-11.08-19.75-9.85-46-11.08-12.34,0-14.81-2.16-14.81-6.16,0-5.54,4.63-7.7,22.83-10.47,17.9-2.77,34.56-9.54,34.56-31.4a36.67,36.67,0,0,0-3.4-15.39,20,20,0,0,0,10.49,0c3.4-1.23,5.86-3.08,7.1-5.54a10.81,10.81,0,0,0,1.54-8c-1.23-4.93-4.94-5.85-9.25-4.62"/></g></svg>