<svg id="Layer_1" data-name="Layer 1" xmlns="http://www.w3.org/2000/svg" viewBox="0 0 800 600"><defs><style>.cls-1{fill:#fff;}</style></defs><g id="Juniper"><polygon class="cls-1" points="392.38 366.27 397.3 366.27 422.62 401.19 422.62 366.27 426.96 366.27 426.96 408.62 422.84 408.62 396.73 372.67 396.73 408.62 392.38 408.62 392.38 366.27"/><polygon class="cls-1" points="437.76 366.27 465.76 366.27 465.76 370.56 442.27 370.56 442.27 384.56 465.19 384.56 465.19 388.79 442.27 388.79 442.27 404.5 465.99 404.5 465.99 408.62 437.76 408.62 437.76 366.27"/><polygon class="cls-1" points="488.44 370.56 472.56 370.56 472.56 366.27 508.85 366.27 508.85 370.56 492.96 370.56 492.96 408.62 488.44 408.62 488.44 370.56"/><polygon class="cls-1" points="514.33 366.27 518.96 366.27 530.1 401.3 541.47 366.27 545.36 366.27 556.67 401.3 567.87 366.27 572.22 366.27 558.62 408.9 554.73 408.9 543.3 373.64 531.93 408.9 527.99 408.9 514.33 366.27"/><path class="cls-1" d="M576.27,387.41c0-15.08,7.72-21.83,21.26-21.83s21.37,6.75,21.37,21.83-7.77,21.89-21.37,21.89-21.26-6.74-21.26-21.89m38.12.06c0-11.43-5.31-17.6-16.86-17.6s-16.74,6.17-16.74,17.6,5.25,17.66,16.74,17.66,16.86-6.17,16.86-17.66"/><path class="cls-1" d="M645.19,391.35H632.5v17.26h-4.4V366.27h18.29c9.83,0,14.28,3.94,14.28,12.34,0,7.32-3.48,11.6-10.85,12.57L660,408.61h-4.79Zm1.26-4.11c6,0,9.71-1.83,9.71-8.51s-3.6-8.29-9.89-8.29H632.5v16.8Z"/><polygon class="cls-1" points="683.13 386.16 674.67 395.41 674.67 408.61 670.27 408.61 670.27 366.27 674.67 366.27 674.67 389.64 696.1 366.27 701.3 366.27 686.1 382.9 703.36 408.61 698.27 408.61 683.13 386.16"/><path class="cls-1" d="M707.13,404.33l2.29-3.43a27.34,27.34,0,0,0,15.14,4.29c8.74,0,12.63-2.46,12.63-8.29,0-6-5-6.86-12.63-8.23-9.14-1.6-15.31-3.14-15.31-11.71,0-8.18,5.25-11.38,15.31-11.38,6.63,0,11.37,1.49,14.74,3.78L736.9,373a23.1,23.1,0,0,0-12.34-3.31c-7.6,0-10.86,2.11-10.86,7.14,0,5.38,4.4,6.4,11.95,7.77,9.25,1.66,15.94,3,15.94,12.12,0,8.4-5.37,12.45-16.91,12.45-6.4,0-12.18-1.31-17.55-4.85"/><path class="cls-1" d="M785.86,191.26c-59.53,0-62.06,26.67-62.06,64.3v92.38h14V255.56c0-28.36-1.12-51.1,48-51.1a122,122,0,0,1,14.14.77V191.85c-4.34-.38-9-.59-14.14-.59"/><path class="cls-1" d="M91.55,287.85v-93.5h14.33v93.78c0,26.95-.28,49.7,49.13,49.7,49.14,0,48-22.75,48-51.11V194.35h14v92.37c0,37.63-2.53,64.3-62.06,64.3-59.81,0-63.46-26.67-63.46-63.17"/><path class="cls-1" d="M366.33,254.43v93.51H352V254.16c0-27,.28-49.7-49.14-49.7-49.14,0-48,22.74-48,51.1v92.38h-14V255.56c0-37.63,2.53-64.3,62.05-64.3,59.81,0,63.46,26.67,63.46,63.17"/><rect class="cls-1" x="392.38" y="194.63" width="13.74" height="153.3"/><path class="cls-1" d="M431.87,194.63h71.77c35.59,0,51.73,17.69,51.73,49.14,0,31.65-15.94,50.9-51.93,50.9H445.61v53.27H431.87Zm72,86.25c24.79,0,37.11-12.08,37.11-36.49s-13.29-36-37.73-36H445.61v72.49Z"/><path class="cls-1" d="M571.36,270.72c0-45.2,12.92-80,70.77-80,59.8,0,61.76,40.15,61.48,82.55H585.12c.28,37.34,9.55,65.14,58.12,65.14,25.83,0,37.63-7,50.27-16.29l7.85,10.39c-14,10.39-30.6,18.53-58.12,18.53-60.64,0-71.88-35.1-71.88-80.3m14-10.39H689.85c-1.4-30.6-3.37-56.71-48-56.71-43,0-54.75,23.3-56.44,56.71"/><path class="cls-1" d="M5.34,381.2c59.53,0,62.05-26.67,62.05-64.3V194.35h-14V316.9c0,28.36,1.13,51.11-48,51.11C3.48,368,1.72,368,0,367.9v13.23c1.73.05,3.5.07,5.34.07"/></g></svg>