<svg id="Layer_1" data-name="Layer 1" xmlns="http://www.w3.org/2000/svg" viewBox="0 0 800 600"><defs><style>.cls-1{fill:#fff;fill-rule:evenodd;}</style></defs><g id="KP"><path class="cls-1" d="M88.54,273.49a15.86,15.86,0,0,0-5.33-3.2L80,332.93l15.46-43.18c1.6-6.67-2.13-12.26-6.93-16.26M72,265.78c11.2.27,15.47-7.71,15.73-15.44.53-11.73-6.93-16.53-15.73-16.53s-15.72,5.07-15.46,16.53c.27,6.4,2.94,15.18,15.46,15.44M39,262.07c.8-19.2-28.79-18.39-27.73,0-1.06,19.15,29.59,19.42,27.73,0m90.9,9.82c.53-18.89-27.72-19.15-27.19,0-.27,17.59,28,18.39,27.19,0m10.93,93.31V352.67c-10.4,4.53-19.46,8.25-29.33,12.53ZM0,365.2H32L0,351.59Zm140.75-15.47V336.67c-10.13,6.66-20.79,13.33-30.12,20ZM0,348.93C11,351.33,23,354.26,32.83,356.4L0,334.8Zm140.75-15.46V316.41l-34.12,33.32c11.72-5.34,22.39-10.66,34.12-16.26M.3,332.41l36,16.52c-12-12-24-23.46-36-35.19Zm138.36-30.66a17.36,17.36,0,0,0-3.2-4.53L101.34,343.6C114.93,333.47,128,323.34,140.79,313a19.72,19.72,0,0,0-2.13-11.2M0,310.81c13.86,10.66,27.72,21.6,41.58,32.26L4.3,290.28C.84,296.15-.23,303.08,0,310.81M116.8,288.42,94.41,338.53l39.45-42.91c-4.53-4.8-10.4-6.94-17.06-7.2M94.41,301.75,87.48,335.6c9.06-15.73,18.12-31.19,26.92-47.18-8.53.8-17.06,4-20,13.33M5.64,288.42,48,337.73,21.9,279.62a20.49,20.49,0,0,0-16.26,8.8M24,279.36c10.4,18.12,21.06,37.85,31.19,55.17C51.75,319.35,48,294,42.69,286.82,36.56,278.29,24,279.36,24,279.36m31.46-5.87c-5.07,4-8.53,9.59-7.2,16l15.46,43.19-2.93-62.38a13.55,13.55,0,0,0-5.33,3.2M63,269.76,72,332.13l9.07-62.37a28.2,28.2,0,0,0-18.13,0"/><path class="cls-1" d="M237.67,365.45h8.56V315.92h-8.56Zm46.54-14.15c0-7.08-4.47-11.55-13-14.9-6.7-2.23-10.05-4.09-10.05-8.19,0-3,3-6.33,9.31-6.33a23.54,23.54,0,0,1,10.43,2.61v-7.08c-1.86-1.11-6.33-2.23-10.43-2.23-10.8,0-17.87,5.95-17.87,13.78,0,7.44,5.59,11.54,13.78,14.52,6.33,2.23,9.31,4.47,9.31,8.57s-3.73,7.07-9.69,7.07c-4.46,0-10.42-1.5-13.4-3.73v7.82a29.25,29.25,0,0,0,13,3c12.66,0,18.62-7.07,18.62-14.89M333,344.59h4.47c3.73,6,12.29,20.86,12.29,20.86H359.8l-13.41-21.6a14.1,14.1,0,0,0,6.7-3.35,13.88,13.88,0,0,0,4.84-10.42c0-4.84-1.86-8.2-4.84-10.43-3-2.61-7.07-3.73-14.15-3.73H324.42v42.45H298V344.22h15.27v-7.07H298V323h19v-7.08H289.79v49.53H333Zm0-7.82V323h7.45c6.33,0,8.94,2.6,8.94,7.08,0,4.84-2.61,7.07-8.94,7.07H333ZM221.28,351.3l4.84,14.15h8.94l-17.13-49.53h-10.8L192.61,358l-14.15-17.87,19-24.21h-10l-17.5,23.46V315.92h-8.57v49.53h8.57v-24.2l18.24,24.2H198.2L203,351.3ZM212,323.74l7.08,20.48H205.27Z"/><path class="cls-1" d="M528.93,351.66l-8.56-36.11H505.11v49.89h8.56V323l10.79,42.44h8.94L544.2,323v42.44h8.19V315.55H537.87l-8.94,36.11M419.09,319.27c-3-2.61-7.07-3.72-14.14-3.72H390.42v49.89H399V345h6c7.07,0,11.16-1.12,14.14-3.73a15.62,15.62,0,0,0,4.84-11.17,14.06,14.06,0,0,0-4.84-10.8m-13,18.25H399V323h7.08c6.7,0,9.31,3,9.31,7.07,0,4.47-3,7.45-9.31,7.45m86.76,3a14.74,14.74,0,0,0,4.84-10.79,13.94,13.94,0,0,0-4.84-10.43c-3-2.61-7.08-3.72-14.53-3.72H464.15V358H437.71V344.22H453v-7.45H437.71V323h18.61v-7.45H429.15v49.89h43.56V344.22h4.09c4.1,6.33,12.67,21.22,12.67,21.22h10l-13.41-22a12.25,12.25,0,0,0,6.71-3m-20.11-3.34V323h7.07c6.71,0,9.31,2.6,9.31,6.7,0,4.84-2.6,7.45-9.31,7.45Zm248.73-21.6H720v38.72l-19.74-38.72H688.67V358H662.6V344.22h15.27v-7.45H662.6V323h18.62v-7.45H654v49.89h42.82v-38l19.73,38h11.55V323H743.4v42.44H752V323h14.89l-.37-7.45ZM800,358H779.52V344.22h14.9v-7.45h-14.9V323h18.62v-7.45H771v49.89h29Zm-163.09-4.1-19.73-38.35H605.64v49.89h8.19v-37.6l19.73,37.6H645.1V315.55h-8.19ZM574,315.55l-17.12,49.89h8.56l4.47-14.51h18.25L593,365.44h8.93l-17.12-49.89Zm-1.85,28.67,6.7-20.85,7.07,20.85Z"/></g></svg>