<svg id="Layer_1" data-name="Layer 1" xmlns="http://www.w3.org/2000/svg" viewBox="0 0 800 600"><defs><style>.cls-1{fill:#fff;}</style></defs><g id="Komatsu"><polygon class="cls-1" points="563.62 225.07 563.62 260.23 491.06 260.23 491.06 301.47 517.84 301.47 517.84 370.64 563.73 370.64 563.73 268.79 606.54 268.79 606.54 225.07 563.62 225.07"/><path class="cls-1" d="M667.55,305.52c-14.82-7.81-29-5.9-27.9-13.32,1.26-8.5,19.09-2,32.73,5.8l12.45-29.6c-16.68-9.52-28.57-11.71-40-12.25-14.28-.65-29.1,4.78-37.07,11.72a35.36,35.36,0,0,0-8.17,43.58c9.56,17.72,30.52,17.68,37.66,21.15,4.55,2.17,4.06,7.87-.86,9.38-12,3.72-35.89-11.36-35.89-11.36L587.66,360c16.45,9.33,29.94,14.8,49,14.8,56,0,59.32-55.5,30.92-69.26"/><polygon class="cls-1" points="122.75 260.21 70.53 260.21 46.09 314.07 46.09 260.21 0 260.21 0 370.67 46.09 370.67 46.09 314.53 71.81 370.67 124.5 370.67 96.58 314.31 122.75 260.21"/><path class="cls-1" d="M754.3,260.21v69.31a6.08,6.08,0,0,1-12.15,0h0V260.21H696.51V329.3c0,30.26,20.46,45.63,51.51,45.63s52-14.78,52-45.63V260.21H754.37"/><path class="cls-1" d="M177.37,256a59.47,59.47,0,1,0,59.47,59.48A59.48,59.48,0,0,0,177.37,256m0,76.31a16.84,16.84,0,1,1,16.83-16.83,16.84,16.84,0,0,1-16.83,16.83"/><polygon class="cls-1" points="419.84 260.21 383.82 363.86 368.11 260.21 326.46 260.21 312.44 304.46 298.41 260.21 256.75 260.21 240.01 370.67 281.41 370.67 287.45 328.73 299.05 370.67 325.81 370.67 337.42 328.73 343.45 370.67 429.18 370.67 442.77 318.6 456.38 370.67 504.1 370.67 465.71 260.21 419.84 260.21"/></g></svg>