<svg id="Layer_1" data-name="Layer 1" xmlns="http://www.w3.org/2000/svg" viewBox="0 0 800 600"><defs><style>.cls-1{fill:#fff;}</style></defs><g id="LinkedIn"><polygon class="cls-1" points="0 228.62 0 371.38 89.17 371.38 89.17 342.52 31.27 342.52 31.27 228.62 0 228.62"/><path class="cls-1" d="M103,274.6H133v96.74H103Zm15-48.09a17.43,17.43,0,1,1-17.43,17.43A17.45,17.45,0,0,1,118,226.51"/><polygon class="cls-1" points="258.68 228.61 288.72 228.61 288.72 313.93 322.76 274.55 359.6 274.55 320.18 319.35 358.77 371.38 321 371.38 289.11 323.56 288.72 323.56 288.72 371.38 258.68 371.38 258.68 228.61"/><path class="cls-1" d="M149.66,274.61h28.85v13.23h.4c4-7.62,13.83-15.63,28.45-15.63,30.47,0,36.07,20,36.07,46.08v53H213.38v-47c0-11.22-.21-25.64-15.64-25.64-15.63,0-18,12.22-18,24.84v47.84H149.66Z"/><path class="cls-1" d="M422.86,311.72a18,18,0,0,0-18.45-18.43c-13.21,0-20.43,9-21.22,18.43Zm25.44,42.87c-9.62,12.22-25.44,19.24-41.08,19.24-30.05,0-54.09-20-54.09-51.1s24-51.09,54.09-51.09c28.08,0,45.69,20,45.69,51.09v9.42H383.19c2.38,11.42,11,18.83,22.64,18.83,9.82,0,16.42-5,21.43-11.82Z"/><path class="cls-1" d="M515.51,298c-15,0-24,10-24,24.64s9,24.65,24,24.65,24.06-10,24.06-24.65-9-24.64-24.06-24.64m51.71,73.33H539.57V358.49h-.39c-4.63,7-16.24,15.24-29.87,15.24-28.86,0-47.89-20.83-47.89-50.29,0-27.05,16.83-51.9,44.48-51.9,12.43,0,24.05,3.4,30.87,12.82h.39V228.61h30.06Z"/><path class="cls-1" d="M785,198.64H612.24a14.8,14.8,0,0,0-15,14.61V386.73a14.81,14.81,0,0,0,15,14.63H785a14.84,14.84,0,0,0,15-14.63V213.25a14.83,14.83,0,0,0-15-14.61M657.41,371.38H627.34V274.64h30.07Zm-15-110A17.44,17.44,0,1,1,659.8,244a17.44,17.44,0,0,1-17.42,17.44M770,371.38H740v-47c0-11.22-.2-25.65-15.62-25.65-15.64,0-18.05,12.22-18.05,24.84v47.85h-30V274.64H705.1v13.22h.41c4-7.61,13.82-15.63,28.44-15.63,30.45,0,36.07,20,36.07,46.09Z"/></g></svg>