<svg id="Layer_1" data-name="Layer 1" xmlns="http://www.w3.org/2000/svg" viewBox="0 0 800 600"><defs><style>.cls-1{fill:#fff;}</style></defs><g id="McAfee"><path class="cls-1" d="M163.92,231.83a631.47,631.47,0,0,1-69.83,3.58,631.17,631.17,0,0,1-69.82-3.58c-.32,4.95-.46,9.74-.46,14.36,0,91.37,59,120.69,70.28,125.59,11.33-4.9,70.29-34.22,70.29-125.59q0-6.93-.46-14.36m-79.6,88.75-9-41.06L69,320.58H51.12L62.84,247H81.78l23.32,73.54Zm34.93,0-6-41.06-6.37,31.22-10-31.49L107.72,247h18.65l10.7,73.54Z"/><path class="cls-1" d="M186.66,215c-3.75-1.1-48-12.39-92.57-12.39S5.28,213.9,1.52,215A154.59,154.59,0,0,0,0,238.48c0,38,9.51,120.4,94.09,158.91,84.58-38.51,94.1-120.93,94.1-158.91A153.77,153.77,0,0,0,186.66,215M94.09,388c-76-35.83-85.52-112.82-85.56-149.49a166.06,166.06,0,0,1,.73-16.67c7.28-1.75,45.71-10.7,84.83-10.7s77.56,8.95,84.84,10.7c.32,3.2.74,9,.72,16.67,0,36.67-9.56,113.66-85.56,149.49"/><path class="cls-1" d="M441.64,340.25a41,41,0,0,1-17.4,3.68c-12.55,0-23.36-8.55-23.36-21.69,0-14.25,9.2-22.8,21.75-22.8,6.56,0,12.55,1,18.4,4.37V280.93c-6.49-2.91-14-4.24-22.37-4.24-28.38,0-49.55,16.5-49.55,45.05,0,28.39,21.17,44.88,49.55,44.88a80.67,80.67,0,0,0,23-3.4Z"/><path class="cls-1" d="M651.13,330.32c1.8,9.78,8.39,15.69,22.75,15.69a65.56,65.56,0,0,0,25.91-5.38v20.55c-9.45,3.8-20.22,5.44-31.14,5.44-28,0-48.44-16.66-48.44-45s17.09-44.89,43.5-44.89c31.47,0,42.29,22.61,42.29,48.19v5.44Zm26.79-16.83c0-9.9-4.12-17.3-14.2-17.3-9.09,0-12.67,7.4-13.23,17.3Z"/><path class="cls-1" d="M745.12,330.32c1.8,9.78,8.39,15.69,22.74,15.69a65.61,65.61,0,0,0,25.92-5.38v20.55c-9.46,3.8-20.21,5.44-31.14,5.44-28,0-48.44-16.66-48.44-45s17.09-44.89,43.5-44.89c31.47,0,42.3,22.61,42.3,48.19v5.44Zm26.79-16.83c0-9.9-4.12-17.3-14.19-17.3-9.1,0-12.67,7.4-13.24,17.3Z"/><polygon class="cls-1" points="364.92 364.65 348.14 239.53 309.38 239.53 290.86 323.76 273.71 239.53 234.77 239.53 216.59 364.65 246.89 364.65 256.9 286.28 273.95 364.65 306.67 364.65 325.31 286.28 334.82 364.65 364.92 364.65"/><path class="cls-1" d="M601.05,273c0-9.14,2.47-14.94,11-16a32.07,32.07,0,0,1,9.63.44V235.53a72.61,72.61,0,0,0-13.8-1.45c-24.53,0-37,11.11-37,38.91v5.78H556v22.59h14.8v63.29h30.22V301.36h18.29V278.77H601.05Z"/><path class="cls-1" d="M563.1,364.65H529.61l-6.35-26.54H486.5l-6.79,26.54h-32l36.91-125.12h42.08Zm-70.44-50.57h24.86l-12-50.21Z"/></g></svg>