<svg id="Layer_1" data-name="Layer 1" xmlns="http://www.w3.org/2000/svg" viewBox="0 0 800 600"><defs><style>.cls-1,.cls-2{fill:#fff;}.cls-1{fill-rule:evenodd;}</style></defs><g id="McKesson"><path class="cls-1" d="M0,249.44V351.68H22.33V283.47c0-3.09-.27-10.31-1.09-21.81,1.23,7.22,2.88,13.19,4,18l16.66,72H64.78l17.07-73.22c1.19-5.11,2.89-10.61,4.14-16.8C85.3,269,84.88,276.11,84.88,283v68.65h24V249.44H70.54L57.47,310.28A133.75,133.75,0,0,0,54.57,329,85.51,85.51,0,0,0,52,310.87L34.44,249.44Z"/><path class="cls-1" d="M185.66,249.78a63.19,63.19,0,0,0-20.51-3.85c-26.35,0-42,15-42,38.75,0,22.93,16.24,38.48,40,38.48,9,0,16.81-1.14,23.22-3.44l-.57-19.23a28.61,28.61,0,0,1-15.24,4.27c-13.24,0-21.51-8.12-21.51-20.23,0-12.39,7.84-20.36,20.37-20.36a30.34,30.34,0,0,1,14.53,4Z"/><polygon class="cls-1" points="204.55 249.44 204.55 351.68 231.81 351.68 231.81 304.24 263.93 351.68 297.81 351.68 256.41 296.43 293.98 249.44 263.49 249.44 231.81 293.63 231.81 249.44 204.55 249.44"/><polygon class="cls-1" points="307.79 249.44 307.79 351.68 380.42 351.68 380.42 331.94 335.05 331.94 335.05 308.66 376.3 308.66 376.3 289.21 335.05 289.21 335.05 268.59 378.8 268.59 378.8 249.44 307.79 249.44"/><path class="cls-1" d="M474.86,250.61a102.13,102.13,0,0,0-28-3.68c-27.7,0-42.58,11.64-42.58,32,0,15.18,8.69,23.28,27.11,29.91,12.52,4.57,20.48,5.89,20.48,13.55,0,6.78-6.48,11.2-17.39,11.2-7.65,0-16.79-2.06-26.81-6.63l-2.36,22.84a113.92,113.92,0,0,0,30.8,4.29c28.72,0,43.75-12.4,43.75-34.64,0-9.58-3.24-16.5-10.46-22.1-6.63-5-16.2-7.66-27.84-11.49-6.34-2.07-9.43-5.31-9.43-9.58,0-6,6.19-9.87,17.53-9.87,7.22,0,14.88,1.77,23.13,5.3Z"/><path class="cls-1" d="M567.37,250.61a102.2,102.2,0,0,0-28-3.68c-27.69,0-42.57,11.64-42.57,32,0,15.18,8.69,23.28,27.1,29.91,12.53,4.57,20.48,5.89,20.48,13.55,0,6.78-6.48,11.2-17.38,11.2-7.66,0-16.8-2.06-26.82-6.63l-2.35,22.84a113.85,113.85,0,0,0,30.79,4.29c28.73,0,43.76-12.4,43.76-34.64,0-9.58-3.25-16.5-10.47-22.1-6.63-5-16.2-7.66-27.84-11.49-6.34-2.07-9.43-5.31-9.43-9.58,0-6,6.19-9.87,17.53-9.87,7.22,0,14.88,1.77,23.13,5.3Z"/><path class="cls-1" d="M639.56,246.93c-31.68,0-50.83,19.89-50.83,53.63s19,53.51,50.83,53.51,50.68-19.77,50.68-53.51-19-53.63-50.68-53.63m0,19.89c13.55,0,23.28,12.52,23.28,33.44s-9.58,33.59-23.28,33.59-23.43-12.52-23.43-33.59,9.87-33.44,23.43-33.44"/><path class="cls-1" d="M706.3,249.43V351.68h24.6V297.76a212,212,0,0,0-2.8-30.35,104.42,104.42,0,0,0,7.22,20.77l30.79,63.5H800V249.43H775.4v57.91a159.11,159.11,0,0,0,2.5,25.48q-4.86-15.9-8-22.1l-29.61-61.29Z"/><rect class="cls-2" x="129.82" y="334.29" width="55.75" height="18.28"/></g></svg>