<svg id="Layer_1" data-name="Layer 1" xmlns="http://www.w3.org/2000/svg" viewBox="0 0 800 600"><defs><style>.cls-1{fill:#fff;}</style></defs><g id="Microsoft"><path class="cls-1" d="M0,214.58H81.27q0,40.63,0,81.27H0Z"/><path class="cls-1" d="M89.57,214.58h81.27q0,40.63,0,81.27H89.57q0-40.64,0-81.27"/><path class="cls-1" d="M732.86,245.55c7.49-4.88,17.17-5.33,25.62-3,.07,5,0,10,0,15.06-4-1.76-8.73-2.92-13-1.18-3.35,1.33-5.34,4.76-5.86,8.2-.63,4.36-.23,8.77-.33,13.16,8.57,0,17.14,0,25.71,0,.06-5.57-.07-11.14.07-16.7,5.83-1.66,11.6-3.52,17.4-5.27,0,7.33-.07,14.67.06,22,5.79-.09,11.59,0,17.39,0v14.27c-5.82-.24-11.64-.06-17.46-.08,0,8.2,0,16.41,0,24.62.09,4.54-.24,9.11.29,13.64.32,2.67,1.29,5.63,3.8,7,4.19,2.34,9.51,1.32,13.36-1.26v14.42a34.47,34.47,0,0,1-16.07,2.46c-5.15-.38-10.49-2.26-13.86-6.36-3.88-4.63-4.88-10.9-5-16.77,0-12.59,0-25.19,0-37.78H739.37q0,29.64,0,59.29H721.79c0-19.76,0-39.51,0-59.27-4.08-.08-8.16,0-12.24-.06,0-4.69,0-9.39,0-14.08,4.06-.1,8.12-.06,12.19,0,.3-6.24-.66-12.66,1.21-18.73a23.92,23.92,0,0,1,9.91-13.53"/><path class="cls-1" d="M356.54,246.57a10.78,10.78,0,0,1,9.73,3.45,10,10,0,0,1,1.22,11.42c-2.25,4-7.3,5.86-11.7,4.9-4.56-.82-8.36-5.07-8.16-9.8a10.18,10.18,0,0,1,8.91-10"/><path class="cls-1" d="M221.84,248.75H247.4q11.94,30.3,23.94,60.59c2,5.05,3.94,10.16,6.07,15.17,10.24-25.24,20.62-50.42,30.78-75.7,8.19-.13,16.39,0,24.59-.05q0,51.24,0,102.49c-5.92,0-11.83,0-17.74,0,.06-25.21,0-50.42,0-75.63,0-1.14,0-2.27-.11-3.4a14.64,14.64,0,0,0-.92,1.64c-10.16,25.8-20.51,51.54-30.61,77.37-4.21.15-8.42,0-12.63.08-10.48-25.81-20.83-51.67-31.25-77.5-.28-.54-.57-1.06-.89-1.56-.21,11,0,22.1-.09,33.14q0,22.95,0,45.9H221.84q0-51.25,0-102.5"/><path class="cls-1" d="M404.91,277.72a48,48,0,0,1,26.11.08,20.59,20.59,0,0,1,5,2.09c-.1,5.59,0,11.2-.06,16.8-5.66-4.33-12.85-7.07-20.06-6.16a20.61,20.61,0,0,0-14.6,8.1c-4.4,5.73-5.41,13.34-4.65,20.35.56,5.49,2.83,11,7.1,14.61,4.43,3.94,10.64,5.33,16.44,4.89A33.46,33.46,0,0,0,436,332c0,5.31,0,10.61,0,15.92-7.18,4.27-15.8,5.38-24,5a35.58,35.58,0,0,1-22.9-9.55c-6.62-6.38-10.21-15.47-10.64-24.59-.43-9.47,1.5-19.35,7-27.27a35.35,35.35,0,0,1,19.5-13.77"/><path class="cls-1" d="M596.91,276.6a46.55,46.55,0,0,1,24.33,2.53c0,5.39,0,10.78,0,16.16a31,31,0,0,0-18.46-5.45c-3.28.12-6.89,1.52-8.39,4.64-1.19,3.09-.37,7.14,2.54,9,5,3.33,10.93,4.75,16.1,7.74,4.06,2.28,8,5.27,10.07,9.57,3.87,8.07,2.23,18.72-4.58,24.74-6.49,6.07-15.85,7.75-24.46,7.42a52.13,52.13,0,0,1-17.87-4.1c0-5.66,0-11.32,0-17a38.44,38.44,0,0,0,15.95,6.89c4,.65,8.39.68,12.13-1.12,3.58-1.78,4.23-6.87,2.1-10-2-2.4-4.92-3.73-7.68-5-5.17-2.32-10.62-4.27-15.16-7.76a18.22,18.22,0,0,1-6.57-10c-1.41-5.85-1-12.43,2.43-17.54,3.88-5.95,10.62-9.51,17.49-10.74"/><path class="cls-1" d="M475.34,278.91a19.84,19.84,0,0,1,16.31-1.37c0,5.86,0,11.72,0,17.58a18.75,18.75,0,0,0-11.88-2.79c-5,.57-8.95,4.4-11,8.79-2.22,4.65-2.64,9.92-2.5,15v35.13H448.93q0-36.71,0-73.42c5.78-.08,11.56-.05,17.35,0,0,4.2,0,8.41,0,12.61,1.88-4.57,4.68-9,9.09-11.51"/><path class="cls-1" d="M349.23,277.81c5.83,0,11.66-.08,17.49,0-.07,24.47,0,48.94,0,73.41H349.24q0-36.72,0-73.44"/><path class="cls-1" d="M564.51,294.94a31.1,31.1,0,0,0-15.35-15.52c-7.83-3.56-16.73-4-25.16-3-8.86,1.12-17.49,5.29-23.11,12.35-5.13,6.31-7.63,14.41-8.11,22.45-.71,9.47.87,19.53,6.44,27.44a33.3,33.3,0,0,0,20.3,13.24,50.59,50.59,0,0,0,20.58,0,34.08,34.08,0,0,0,20.18-12.45c4.78-6.08,7.18-13.74,7.72-21.39.56-7.84-.24-15.95-3.49-23.17m-17,33.72a16.06,16.06,0,0,1-8.63,8.48,23.77,23.77,0,0,1-14.33.63,17.56,17.56,0,0,1-11-9.09c-2.83-5.65-3.26-12.19-2.67-18.39.53-5.63,2.49-11.43,6.79-15.32a18.4,18.4,0,0,1,11.56-4.57c5.28-.34,10.9,1.15,14.7,5,4.06,4,5.63,9.79,6.07,15.31.31,6.05.06,12.35-2.48,18"/><path class="cls-1" d="M705.27,297.06A31.34,31.34,0,0,0,690.18,280c-8-4-17.32-4.63-26.09-3.54a36.37,36.37,0,0,0-19.42,8.33c-6.59,5.68-10.46,14-11.6,22.56s-.71,17.53,2.77,25.52a32.52,32.52,0,0,0,17.85,17.32c7.83,3.08,16.52,3.43,24.76,2.1a34.37,34.37,0,0,0,21.61-12.64c5.56-7,8-16.14,8-25a46.73,46.73,0,0,0-2.74-17.54M689.42,322a22.9,22.9,0,0,1-4.54,10.79,16.46,16.46,0,0,1-10.27,5.52A23.2,23.2,0,0,1,662,336.9a17.85,17.85,0,0,1-9.27-9.69,34.89,34.89,0,0,1-2.08-16c.4-5.22,1.88-10.57,5.32-14.63a18,18,0,0,1,12.83-6.15c5-.35,10.27.8,14.08,4.15,3.52,2.92,5.47,7.29,6.36,11.7a44.47,44.47,0,0,1,.15,15.69"/><path class="cls-1" d="M0,304.14H81.27v81.27H0Z"/><path class="cls-1" d="M89.57,304.15h81.27v81.27H89.57q0-40.64,0-81.27"/></g></svg>