<svg id="Layer_1" data-name="Layer 1" xmlns="http://www.w3.org/2000/svg" viewBox="0 0 800 600"><defs><style>.cls-1{fill:#fff;}</style></defs><g id="MINI"><path class="cls-1" d="M764.43,214.16H534.54a160.09,160.09,0,0,0-270.32,0H35.57l23.26,23.31H251.91a159.53,159.53,0,0,0-8.49,26.24H85L108.29,287H239.81c-.35,4.29-.57,8.61-.57,13s.23,8.89.59,13.27H134.48l23.26,23.3h85.74A159.54,159.54,0,0,0,252,362.82H183.93l23.27,23.31h57.2a160.09,160.09,0,0,0,270,0H592.8l23.27-23.31H546.72a158.59,158.59,0,0,0,8.56-26.25h87l23.26-23.3H558.93c.36-4.38.6-8.8.6-13.27s-.23-8.69-.57-13H691.71L715,263.71H555.35a159.56,159.56,0,0,0-8.5-26.24H741.17ZM400,437A136.74,136.74,0,1,1,536.74,300.27,136.74,136.74,0,0,1,400,437"/><polygon class="cls-1" points="329.69 320.14 311.12 263.99 290.08 263.99 290.08 336.12 305.45 336.12 305.45 282.63 321.65 336.12 337.57 336.12 353.83 282.63 353.83 336.12 369.19 336.12 369.19 263.99 348.1 263.99 329.69 320.14"/><polygon class="cls-1" points="463.55 316.82 434.64 263.99 417.64 263.99 417.64 336.12 431.91 336.12 431.91 285.57 460.81 336.55 478 336.12 478 263.99 463.73 263.99 463.55 316.82"/><rect class="cls-1" x="385.96" y="263.93" width="14.63" height="72.13"/><rect class="cls-1" x="494.67" y="263.93" width="14.63" height="72.13"/></g></svg>