<svg id="Layer_1" data-name="Layer 1" xmlns="http://www.w3.org/2000/svg" viewBox="0 0 800 600"><defs><style>.cls-1,.cls-2{fill:#fff;}.cls-2{fill-rule:evenodd;}</style></defs><g id="NetSuite"><polygon class="cls-1" points="269.43 351.22 251.58 351.22 251.58 267.94 274.87 267.94 302.26 315.79 302.26 267.94 320.06 267.94 320.06 351.22 301.15 351.22 269.43 294.51 269.43 351.22"/><polygon class="cls-1" points="390.16 267.97 335.69 267.97 335.69 351.22 390.16 351.22 390.16 335.21 355.01 335.21 355.01 314.96 387.51 314.96 387.51 298.27 355.11 298.27 355.11 284.32 390.16 284.32 390.16 267.97"/><path class="cls-1" d="M401.45,268h65.92v16.35H444.11v66.9H424.84V284.34l-23.39,0Z"/><path class="cls-1" d="M424.85,284.34l-23.4,0"/><path class="cls-1" d="M479.38,332.26c4.67,2.76,12.17,9.83,24.92,11.17,15.24,1.6,21.64-6.63,22.38-13.65,1.09-10.42-8-12.64-21.43-15.29-14.86-2.94-24.4-5.73-25.79-23.6-1-13.41,10.29-25.46,32.37-24.53,8.43.33,17.36,2.86,21.84,5.78l0,13c-3.27-2.06-11.37-8.46-25.92-9.21-11.35-.56-17.54,6.79-17.59,13-.13,14.16,11.55,12.56,22.9,15.48,15.74,4.05,24.3,8,23.94,24-.29,14.83-13.28,24.48-32.78,24.48a53,53,0,0,1-24.79-6.61Z"/><path class="cls-1" d="M567,268v49.57c0,18.6,7.9,26.51,18.47,26.51,11.63,0,19.29-8.17,19.29-26.51V268h10.35v48.82c0,25.66-12.82,36.08-30,36.08-16.25,0-28.45-9.67-28.45-35.69V268Z"/><rect class="cls-1" x="645.12" y="267.97" width="9.85" height="83.26"/><polygon class="cls-1" points="672.2 267.97 735.75 267.97 735.75 277.74 708.87 277.74 708.87 351.22 698.94 351.22 698.94 277.74 672.2 277.74 672.2 267.97"/><polygon class="cls-1" points="800 267.97 751.15 267.97 751.15 351.22 800 351.22 800 341.63 760.64 341.63 760.64 310.6 800 310.6 800 300.85 760.64 300.85 760.64 277.74 800 277.74 800 267.97"/><polygon class="cls-2" points="0 200.29 129.53 200.29 129.53 311.19 79.08 247.25 0 247.25 0 200.29"/><path class="cls-2" d="M78.8,289.43c16.82,20.78,33,42.27,49.57,63.26h79.52v47H78.8Z"/><polygon class="cls-2" points="137.65 247.06 137.65 209.82 198.78 209.82 198.78 344.48 158.16 344.48 158.16 247.06 137.65 247.06"/><path class="cls-2" d="M50.22,255.23v96.62h20.1v38H9.6V255.23Z"/></g></svg>