<svg id="Layer_1" data-name="Layer 1" xmlns="http://www.w3.org/2000/svg" viewBox="0 0 800 600"><defs><style>.cls-1{fill:#fff;}</style></defs><g id="Oculus"><path class="cls-1" d="M524.69,135.25a97.78,97.78,0,0,0-38.33-18.76,124.39,124.39,0,0,0-24.42-3.07c-6.15-.16-12.29-.16-18.44-.16h-87c-6.15,0-12.29,0-18.44.16a124.39,124.39,0,0,0-24.42,3.07,97.78,97.78,0,0,0-38.33,18.76,96.11,96.11,0,0,0,0,150.08,97.65,97.65,0,0,0,38.33,18.76,124.39,124.39,0,0,0,24.42,3.07c6.15.16,12.29.16,18.44.16h87c6.15,0,12.29,0,18.44-.16a124.39,124.39,0,0,0,24.42-3.07,97.65,97.65,0,0,0,38.33-18.76,96.11,96.11,0,0,0,0-150.08M482.32,236.33a34.93,34.93,0,0,1-14.24,5.5c-5.17.81-10.18.65-15.36.65H347.28c-5.18,0-10.19.16-15.37-.65a34.94,34.94,0,0,1-14.23-5.5,31.84,31.84,0,0,1-13.74-26,31.43,31.43,0,0,1,13.74-26,34.79,34.79,0,0,1,14.23-5.49c5.18-.81,10.19-.65,15.37-.65H452.72c5.18,0,10.19-.16,15.36.65a34.78,34.78,0,0,1,14.24,5.49,31.86,31.86,0,0,1,13.74,26,31.41,31.41,0,0,1-13.74,26"/><path class="cls-1" d="M195.68,400.72A42.3,42.3,0,0,0,165.39,413a44.43,44.43,0,0,0-.21,60.88,43.22,43.22,0,0,0,60.5.2,44.43,44.43,0,0,0,.21-60.88,42.29,42.29,0,0,0-30.21-12.45m22.57,47.8a25.33,25.33,0,0,1-1.33,4.61,22.78,22.78,0,0,1-2.08,4.05,21.44,21.44,0,0,1-2.74,3.41,21.72,21.72,0,0,1-3.37,2.76,22.56,22.56,0,0,1-4,2.08,24.3,24.3,0,0,1-4.49,1.31,25.49,25.49,0,0,1-9.59,0,24.39,24.39,0,0,1-4.49-1.34,23.24,23.24,0,0,1-4-2.11,21.76,21.76,0,0,1-3.35-2.79,20.79,20.79,0,0,1-2.71-3.42,22.86,22.86,0,0,1-2.06-4.07,25.48,25.48,0,0,1-1.3-4.61,27.32,27.32,0,0,1-.43-4.94,26.23,26.23,0,0,1,.47-4.93,25.31,25.31,0,0,1,1.32-4.61,23.5,23.5,0,0,1,2.09-4.05,20.9,20.9,0,0,1,2.74-3.41,21.26,21.26,0,0,1,3.37-2.76,22.16,22.16,0,0,1,4-2.08,24.4,24.4,0,0,1,4.5-1.31,24.92,24.92,0,0,1,4.8-.44,25.75,25.75,0,0,1,4.79.47,24.06,24.06,0,0,1,4.48,1.34,22.52,22.52,0,0,1,4,2.11,21.06,21.06,0,0,1,6.07,6.21A22.86,22.86,0,0,1,217,434a25.48,25.48,0,0,1,1.3,4.61,27.24,27.24,0,0,1,.43,4.94,26.23,26.23,0,0,1-.47,4.93"/><path class="cls-1" d="M541,441.12c0,2.25,0,4.58-.18,6.82a37.32,37.32,0,0,1-.52,4.36,21.33,21.33,0,0,1-2.88,7.61c-3.61,5.67-10,8.45-16.41,8.53s-12.8-2.61-16.31-8.47A23.39,23.39,0,0,1,502,452.3a66.84,66.84,0,0,1-.95-11c-.06-2.38-.08-4.75-.09-7.13,0-4,0-8.25,0-12.3V402.4H481.44c0,6.41,0,26.58,0,33.23,0,3.19,0,6.45.14,9.64.07,2.33.18,4.69.39,7a43.93,43.93,0,0,0,4,16c5.15,10.37,15.16,16.37,26.31,17.69a41.16,41.16,0,0,0,16.37-1.39c5.08-1.49,10.46-4.16,14.24-8,.18,2.62.36,5.33.54,7.89h17v-82H541.05c0,5.13,0,33.48,0,38.72"/><path class="cls-1" d="M645.52,452.27c-2.83-7.92-9.73-12.77-17-15.62a84.42,84.42,0,0,0-12.61-3.55c-1.88-.42-3.76-.82-5.62-1.32a32.77,32.77,0,0,1-4.7-1.56,11.39,11.39,0,0,1-4.43-3.1,5.57,5.57,0,0,1-1.3-4.22,6.84,6.84,0,0,1,2.72-4.48,11.47,11.47,0,0,1,3.2-1.8,18.4,18.4,0,0,1,4.62-1.09,29.82,29.82,0,0,1,9.52.54,41.42,41.42,0,0,1,13.16,5.35q4.88-6.68,9.74-13.34A49.85,49.85,0,0,0,621,399.17a47.6,47.6,0,0,0-13.38-.16,38.87,38.87,0,0,0-10,2.63,27.55,27.55,0,0,0-11,8,24.15,24.15,0,0,0-4.57,8.86,21.68,21.68,0,0,0,.13,12.26,20.35,20.35,0,0,0,6.21,9.31c6.06,5.27,14.54,7.18,21.83,8.76,2.56.55,5.11,1.08,7.63,1.8a25,25,0,0,1,6,2.44,10.31,10.31,0,0,1,3.66,3.47,6.75,6.75,0,0,1,1,4.16,7.11,7.11,0,0,1-1.52,3.69,10.61,10.61,0,0,1-3.74,2.94,18.93,18.93,0,0,1-6,1.68,35.42,35.42,0,0,1-8.67-.07,40.22,40.22,0,0,1-9.18-2.23A46.91,46.91,0,0,1,587,459.68l-10.38,13.87a56.65,56.65,0,0,0,20.91,11.09,54.07,54.07,0,0,0,13,2.06,49.57,49.57,0,0,0,10.6-.69A37.38,37.38,0,0,0,634,481.42a26.64,26.64,0,0,0,7.5-6.61,25.41,25.41,0,0,0,5-11.9,22.25,22.25,0,0,0-1-10.64"/><path class="cls-1" d="M300.84,466.45a26.2,26.2,0,0,1-13.83-.57,21.57,21.57,0,0,1-11.09-8.11,25.12,25.12,0,0,1-4.37-13.1,26.25,26.25,0,0,1,2.79-13.53,19.83,19.83,0,0,1,10.12-9.26,25,25,0,0,1,5.87-1.72,27,27,0,0,1,7.83-.17,30.79,30.79,0,0,1,13,4.82q5.88-7.44,11.74-14.89a43.79,43.79,0,0,0-23-9.34,46.16,46.16,0,0,0-24.53,4,39,39,0,0,0-17.89,17.06,47.08,47.08,0,0,0-5.24,24.3A44.74,44.74,0,0,0,260,469.51a39.42,39.42,0,0,0,19.86,14.74,47.13,47.13,0,0,0,24.81,1.44,41.78,41.78,0,0,0,21.75-11.87L313.09,460a26.18,26.18,0,0,1-12.25,6.41"/><rect class="cls-1" x="440.09" y="369.61" width="20.49" height="114.76"/><path class="cls-1" d="M398,441.12c0,2.25,0,4.58-.17,6.82a35.29,35.29,0,0,1-.52,4.36,21.33,21.33,0,0,1-2.88,7.61c-3.61,5.67-10,8.45-16.41,8.53s-12.8-2.61-16.31-8.47A23.39,23.39,0,0,1,359,452.3a66.84,66.84,0,0,1-1-11c-.06-2.38-.08-4.75-.09-7.13,0-4,0-8.25,0-12.3V402.4H338.45c0,6.41,0,26.58,0,33.23,0,3.19,0,6.45.14,9.64.07,2.33.18,4.69.39,7a43.93,43.93,0,0,0,4,16c5.15,10.37,15.16,16.37,26.31,17.69a41.16,41.16,0,0,0,16.37-1.39c5.08-1.49,10.46-4.16,14.24-8,.18,2.62.36,5.33.54,7.89H417v-82h-19c0,5.13,0,33.48,0,38.72"/></g></svg>