<svg id="Layer_1" data-name="Layer 1" xmlns="http://www.w3.org/2000/svg" viewBox="0 0 800 600"><defs><style>.cls-1{fill:#fff;}</style></defs><g id="OSIsoft"><path class="cls-1" d="M422.21,301.37c0,27.25-16,58.3-58.15,58.3-44,0-57.23-32.58-57.23-57.08,0-30.77,19-57.87,57.84-57.87,42.47,0,57.54,31.06,57.54,56.65m-81.28,1.07c0,18.72,7.61,30,23.74,30,13.69,0,23.29-10.81,23.29-31.05a41.83,41.83,0,0,0-2-14.17c-5.17-14.92-18.26-15.38-21.3-15.38-12.17,0-23.74,8.37-23.74,30.62"/><path class="cls-1" d="M445.64,319c3.05,4.71,5.63,8.68,14.92,11.72a48.12,48.12,0,0,0,15.07,2.44c2.74,0,16.14-.31,16.14-8.07,0-.77,0-4.73-5.95-6.7-3.8-1.36-23.59-4.87-28-5.94-9.9-2.59-29.22-8.67-29.22-31.37a33.28,33.28,0,0,1,3-13.86c7-15.82,25.11-22.06,44.44-22.06,12.34,0,23.6,2.42,32.43,6.85,8.06,4,12,8.21,15.83,12.17L503,282a22.05,22.05,0,0,0-8.22-7c-6.25-3-14.46-4-19.95-4-5.78,0-12.17,1.52-12.17,7,0,5.18,5.48,6.55,14.76,8.23,23.9,4.11,47.65,8.38,47.65,35a33.94,33.94,0,0,1-9.59,24.2c-13.55,13.85-35.16,13.85-41.1,13.85a89.08,89.08,0,0,1-25-3.2c-17.05-4.86-25-14.45-29.84-20.39Z"/><rect class="cls-1" x="535.14" y="248.68" width="34.09" height="107.48"/><path class="cls-1" d="M606.53,324.51c-11.56-2.75-25.72-5.94-25.72-20.86,0-13.1,11.11-21.32,27.7-21.32,13.7,0,28.31,6.55,30.75,23.45l-13.09,1.68c-.15-4.42-.46-7.92-5.18-11.57s-10.19-4.27-13.84-4.27c-9.44,0-14.17,5.63-14.17,10.51,0,6.85,7.77,9,17.2,11.27l6.86,1.67c8.52,2,23.89,5.63,23.89,20.7,0,11.72-10.35,22.68-30.13,22.68-8.08,0-16.44-1.67-22.23-5.78-2.29-1.67-9.28-7.46-10.65-19.48l13.7-2.14c-.16,3.2-.16,9.29,5.32,14,4.26,3.66,9.59,4.1,14.46,4.1,10.66,0,16.9-4.1,16.9-11.87,0-8.22-6.24-9.74-14.92-11.41Z"/><path class="cls-1" d="M681.58,358.3c-24.82,0-35.32-18.57-35.32-37.45,0-16,7.92-38.67,35.78-38.67,23.74,0,34.7,18.42,34.55,38.06-.16,21.77-13.1,38.06-35,38.06m21-48.1c-2.74-14.16-12-18.27-20.25-18.27-16.28,0-22.83,12.64-22.83,29.08,0,15.06,6.24,27.55,21.93,27.55,20.24,0,21.76-21,21.92-28.32a42.45,42.45,0,0,0-.77-10"/><path class="cls-1" d="M743.37,284.46h13.55v10.06H743.37v61.65H731.66V294.52h-12V284.46h12l.15-14.61c.15-6.09.45-20.4,18.56-20.4a61.33,61.33,0,0,1,8.83.91v9.44a61.71,61.71,0,0,0-6.7-.61c-9,0-9.13,7.16-9.13,12.79Z"/><path class="cls-1" d="M786.91,284.46H800v10.06H786.91v41.1c0,8.53,0,12.18,5.18,12.18a30.62,30.62,0,0,0,7.91-1.68v10.05a82.15,82.15,0,0,1-11.72,1.22c-14,0-14-6.86-13.85-16.29V294.52H763V284.46h11.42V261.77h12.48Z"/><path class="cls-1" d="M178.9,233.47c-8.72,14.65-21.37,31.92-53.18,36.35-2.09.3-4.12.56-6.08.81a95.1,95.1,0,0,0-9.92,64.62c8.55,42,41,60.55,62.8,61.78A45.33,45.33,0,0,0,201,388.92a120.22,120.22,0,0,0-8.85-184.83c-1.16,3.37-6.23,17.53-13.28,29.38"/><path class="cls-1" d="M36.64,360.5c3.67-39.21,30.27-75.72,37.18-84.69-2.86.45-5.64.95-8.42,1.56C30.69,285,21.5,309.26,21.5,309.26s4.36-20.15,13.74-33.16c1.55-2.13,10.84-20.7,39.94-30.78,28-9.7,46.57-8.2,76.81-20.09,24.09-9.47,36.07-19.42,39-22a120.22,120.22,0,0,0-134.52-5.12C.2,233.08-16.88,307.13,18.28,363.42A120.24,120.24,0,0,0,40.76,390c-2.68-4.43-5.64-13.18-4.12-29.46"/><path class="cls-1" d="M124,414.57C110.91,409.2,94.08,392,88.42,359c-5.2-30.29,8.35-71.64,13.74-86.38-5,.51-9.53.94-13.82,1.38-5.47,8.83-30.1,51.48-25.8,98.69,2,22.24,10.69,34.29,16.58,40.05A120.43,120.43,0,0,0,147,417.08,43.21,43.21,0,0,1,124,414.57"/></g></svg>