<svg id="Layer_1" data-name="Layer 1" xmlns="http://www.w3.org/2000/svg" viewBox="0 0 800 600"><defs><style>.cls-1{fill:#fff;}</style></defs><g id="SalesForce"><path class="cls-1" d="M312.23,540.38A125.62,125.62,0,0,1,195.7,461.56a116.9,116.9,0,0,1-20.48,1.81c-64.43,0-116.84-52.94-116.84-118a118.75,118.75,0,0,1,55.24-100.31,133.89,133.89,0,0,1-9.71-50.33c0-74.49,60.69-135.1,135.28-135.1A134.36,134.36,0,0,1,343.76,109,121.71,121.71,0,0,1,429,74.4c43.13,0,83.35,23.11,105.87,60.57a147.54,147.54,0,0,1,57.08-11.37c82.55,0,149.7,67.72,149.7,151s-67.15,151-149.7,151a149.34,149.34,0,0,1-26.51-2.38,110.77,110.77,0,0,1-95,54,109.39,109.39,0,0,1-44.41-9.3,125.39,125.39,0,0,1-113.8,72.52M201.07,451.86l1.26,3.43A117.11,117.11,0,0,0,420,460.58l1.73-4.09,4,1.95a101,101,0,0,0,44.67,10.28,102.35,102.35,0,0,0,89.14-52.31l1.5-2.68,3,.61a141.52,141.52,0,0,0,27.83,2.77c77.89,0,141.27-63.94,141.27-142.54S669.81,132,591.92,132a139.29,139.29,0,0,0-57.12,12.14l-3.52,1.57-1.88-3.36C508.78,105.65,470.3,82.83,429,82.83a113.54,113.54,0,0,0-82.52,35.44L343,121.82l-3-3.91A126.07,126.07,0,0,0,239.19,68.05c-69.94,0-126.84,56.83-126.84,126.67a125.76,125.76,0,0,0,10.43,50.38l1.49,3.43L121,250.42a110.2,110.2,0,0,0-54.23,94.94c0,60.42,48.64,109.58,108.41,109.58a108,108,0,0,0,22.28-2.32Z"/><path class="cls-1" d="M207.09,298.13c0,11.85-8.6,19.21-22.44,19.21a41.1,41.1,0,0,1-20.18-4.71,39.85,39.85,0,0,1-3.85-2.33c-.14-.19-.72-.42-.29-1.53l2.73-7.58a1.11,1.11,0,0,1,1.82-.62c.76.46,1.31.86,2.28,1.44A32.67,32.67,0,0,0,185,307.14c6,0,9.75-3.2,9.75-7.48v-.24c0-4.68-5.74-6.45-12.4-8.49l-1.47-.46c-9.14-2.61-18.9-6.36-18.9-17.92v-.23c0-11,8.84-18.62,21.52-18.62h1.38A39.33,39.33,0,0,1,204.7,259a1.3,1.3,0,0,1,.68,1.56c-.25.68-2.55,6.87-2.82,7.58-.49,1.3-1.84.44-1.84.44a39.82,39.82,0,0,0-17.58-4.51c-5.37,0-8.83,2.85-8.83,6.72V271c0,4.52,5.92,6.44,12.79,8.67l1.19.38c9.09,2.88,18.8,6.86,18.8,17.82Z"/><path class="cls-1" d="M290,314.66a1.14,1.14,0,0,1-1.12,1.19H278.53a1.14,1.14,0,0,1-1.13-1.19V231.19a1.13,1.13,0,0,1,1.13-1.18H288.9a1.13,1.13,0,0,1,1.12,1.18Z"/><path class="cls-1" d="M387.29,317.34a41.12,41.12,0,0,1-20.18-4.71,39.85,39.85,0,0,1-3.85-2.33c-.14-.19-.71-.42-.29-1.53l2.74-7.57a1.17,1.17,0,0,1,1.81-.63c.74.48,1.31.86,2.29,1.44a32.67,32.67,0,0,0,17.83,5.13c6,0,9.76-3.2,9.76-7.48v-.24c0-4.68-5.75-6.45-12.42-8.49l-1.47-.46c-9.13-2.6-18.9-6.36-18.9-17.92v-.23c0-11,8.85-18.62,21.52-18.62h1.38A39.15,39.15,0,0,1,407.34,259a1.28,1.28,0,0,1,.68,1.55c-.25.68-2.55,6.87-2.82,7.58-.48,1.3-1.83.44-1.83.44a39.87,39.87,0,0,0-17.59-4.51c-5.36,0-8.82,2.85-8.82,6.72V271c0,4.52,5.92,6.44,12.78,8.67l1.19.38c9.1,2.88,18.8,6.86,18.8,17.82v.23c0,11.85-8.59,19.21-22.44,19.21"/><path class="cls-1" d="M457.07,256.33l-1.46,8.14a1.31,1.31,0,0,1-1.31,1.14H441.42l-8.81,49.85a74.57,74.57,0,0,1-3.44,13.14,26.1,26.1,0,0,1-5.08,8.76,18.1,18.1,0,0,1-7.23,5,28.59,28.59,0,0,1-9.6,1.49,23.35,23.35,0,0,1-5.73-.55,27.71,27.71,0,0,1-3.57-1,1.15,1.15,0,0,1-.6-1.56c.27-.78,2.57-7.12,2.89-7.95a1.09,1.09,0,0,1,1.42-.63,9.18,9.18,0,0,0,2.11.68,17.45,17.45,0,0,0,3.14.35,14.64,14.64,0,0,0,4.6-.66,7.27,7.27,0,0,0,3.58-2.77,19.66,19.66,0,0,0,2.73-5.56,62,62,0,0,0,2.34-9.64l8.77-48.95h-8.65c-1,0-1.37-.49-1.26-1.26l1.45-8.13a1.33,1.33,0,0,1,1.31-1.15h8.88l.48-2.64c1.32-7.85,4-13.82,7.86-17.74s9.49-5.95,16.56-5.95a29.58,29.58,0,0,1,5.32.42,32.5,32.5,0,0,1,3.87.91,1.05,1.05,0,0,1,.71,1.37l-3,8.21c-.26.62-.43,1-1.7.6-.32-.09-.79-.23-2-.49a16.77,16.77,0,0,0-3.22-.32,13.68,13.68,0,0,0-4.19.6,8.3,8.3,0,0,0-3.28,2,11.22,11.22,0,0,0-2.74,4.18,52.64,52.64,0,0,0-2.07,8.81H455.8c1,0,1.37.49,1.27,1.26"/><path class="cls-1" d="M561.21,257.11c-.36,1.06-2.27,6.43-2.94,8.21-.25.68-.67,1.14-1.43,1.06a21.78,21.78,0,0,0-4.3-.53,19,19,0,0,0-5.23.74,11.84,11.84,0,0,0-4.84,2.91,14.62,14.62,0,0,0-3.43,5.75,34.26,34.26,0,0,0-1.3,10.26v29.15a1.17,1.17,0,0,1-1.17,1.18H526.29a1.18,1.18,0,0,1-1.19-1.18V256.32a1.13,1.13,0,0,1,1.12-1.18h10a1.13,1.13,0,0,1,1.12,1.18v4.77a17.43,17.43,0,0,1,6.6-4.88,19.42,19.42,0,0,1,10.09-1.63,35.34,35.34,0,0,1,6.55,1.12,1.06,1.06,0,0,1,.59,1.41"/><path class="cls-1" d="M610.12,314.17a47.06,47.06,0,0,1-16.36,2.92c-10,0-17.7-2.89-22.81-8.59s-7.69-13.41-7.69-23a39.6,39.6,0,0,1,1.88-12.44,28.54,28.54,0,0,1,5.62-10,26.62,26.62,0,0,1,9.31-6.74,31.6,31.6,0,0,1,12.87-2.47,58.4,58.4,0,0,1,8.67.57,46,46,0,0,1,7.71,1.95,1,1,0,0,1,.72,1.36c-1.08,3.09-1.82,5.08-2.85,7.9-.42,1.19-1.33.79-1.33.79a38.8,38.8,0,0,0-12.21-1.74c-5.71,0-10,1.91-12.83,5.64s-4.41,8.68-4.43,15.21c0,7.19,1.78,12.51,5,15.8s7.64,4.95,13.22,4.95a40.14,40.14,0,0,0,6.33-.46,25.89,25.89,0,0,0,5.37-1.52,1.1,1.1,0,0,1,1.48.69l2.84,7.84a1.05,1.05,0,0,1-.47,1.37"/><path class="cls-1" d="M353.62,271a24.19,24.19,0,0,0-5-9.15,22.69,22.69,0,0,0-7.43-5.66,28.47,28.47,0,0,0-11.2-2.28,30.77,30.77,0,0,0-12.92,2.51,25.68,25.68,0,0,0-9,6.88,28.33,28.33,0,0,0-5.3,10.15,44,44,0,0,0-1.71,12.48,41.77,41.77,0,0,0,1.77,12.48,25,25,0,0,0,15.5,16.47,39.22,39.22,0,0,0,14.2,2.29c11.3,0,17.25-2.55,19.7-3.91.44-.25.84-.66.34-1.87L350,304.19a1.14,1.14,0,0,0-1.47-.68c-2.81,1-6.77,2.91-16.06,2.89-6.06,0-10.56-1.8-13.37-4.6s-4.32-7.06-4.56-13l39.11,0a1.15,1.15,0,0,0,1.14-1A41.91,41.91,0,0,0,353.62,271m-38.9,8.17a23,23,0,0,1,3.16-9.22c2.41-3.66,6.05-5.68,11.18-5.68s8.53,2,11,5.68c1.61,2.42,2.31,5.63,2.59,9.23Z"/><path class="cls-1" d="M264.65,312.25l0-35.76c0-7.85-2.09-13.66-6.2-17.27s-10.16-5.41-18-5.41a65.34,65.34,0,0,0-10.48,1s-8.54,1.66-12.05,4.42a1.22,1.22,0,0,0-.36,1.55l2.77,7.44a1,1,0,0,0,1.29.64,5.08,5.08,0,0,0,.65-.33c7.51-4.09,17-4,17-4,4.23,0,7.48.86,9.67,2.53s3.22,4.11,3.22,9.32V278c-3.35-.49-6.45-.77-6.45-.77-1.59-.11-3.64-.17-6.1-.17a36.71,36.71,0,0,0-9.64,1.24,25.16,25.16,0,0,0-8.16,3.78,18.31,18.31,0,0,0-7.77,15.46,20.29,20.29,0,0,0,1.8,8.93,16,16,0,0,0,5.1,6.12,21.33,21.33,0,0,0,8,3.45,46.36,46.36,0,0,0,10.36,1.06,71,71,0,0,0,11.89-1c3.83-.65,8.53-1.6,9.84-1.91s2.74-.7,2.74-.7a1.22,1.22,0,0,0,.89-1.28m-12.44-6.62a80.51,80.51,0,0,1-10.57,1.4c-7.95.48-11.49-2.29-11.46-2.28a7.43,7.43,0,0,1-2.25-2.32,9.26,9.26,0,0,1-1.18-5.09c0-3.43,1.14-5.91,3.49-7.57,0,0,3.37-2.93,11.35-2.83a78.52,78.52,0,0,1,10.62.91Z"/><path class="cls-1" d="M666.86,271a24.33,24.33,0,0,0-5-9.15,22.79,22.79,0,0,0-7.43-5.66,28.48,28.48,0,0,0-11.21-2.28,30.72,30.72,0,0,0-12.91,2.51,25.71,25.71,0,0,0-9,6.88A28.32,28.32,0,0,0,616,273.41a44,44,0,0,0-1.72,12.48,41.77,41.77,0,0,0,1.78,12.48,25,25,0,0,0,15.5,16.47,39.18,39.18,0,0,0,14.2,2.29c11.3,0,17.25-2.55,19.7-3.91.43-.25.84-.66.33-1.87l-2.57-7.16a1.12,1.12,0,0,0-1.46-.68c-2.81,1-6.78,2.91-16.06,2.89-6.07,0-10.56-1.8-13.38-4.6s-4.31-7.06-4.55-13l39.1,0a1.16,1.16,0,0,0,1.15-1A42.23,42.23,0,0,0,666.86,271M628,279.13a22.69,22.69,0,0,1,3.16-9.22c2.39-3.66,6-5.68,11.18-5.68s8.52,2,11,5.68c1.61,2.42,2.32,5.63,2.6,9.23Z"/><path class="cls-1" d="M512.87,273.14a27.83,27.83,0,0,0-5.26-10,25.15,25.15,0,0,0-8.88-6.74,32,32,0,0,0-24.77,0,25.11,25.11,0,0,0-8.87,6.75,27.7,27.7,0,0,0-5.25,10,45.92,45.92,0,0,0,0,24.83,27.82,27.82,0,0,0,5.25,10A24.77,24.77,0,0,0,474,314.7a32.88,32.88,0,0,0,24.76,0,24.86,24.86,0,0,0,8.88-6.69,27.83,27.83,0,0,0,5.26-10,46.18,46.18,0,0,0,0-24.83M497.6,301.26c-2.44,3.69-6.12,5.5-11.24,5.5s-8.8-1.81-11.2-5.5-3.66-9-3.66-15.71,1.23-12,3.65-15.65,6.07-5.42,11.21-5.42,8.8,1.77,11.24,5.42,3.71,9,3.71,15.65-1.25,12-3.71,15.71"/></g></svg>