<svg id="Layer_1" data-name="Layer 1" xmlns="http://www.w3.org/2000/svg" viewBox="0 0 800 600"><defs><style>.cls-1{fill:#fff;}</style></defs><g id="SAP"><path class="cls-1" d="M460,245.64h-13.1v47.92H460c17.49,0,31.42-5.78,31.42-24.25,0-17.89-13.93-23.67-31.42-23.67"/><path class="cls-1" d="M97.73,150.46V449.54H403.24l299-299.08Zm368.37,184H446.88v57.17H358.7L350,364.31a102.81,102.81,0,0,1-62.78-.26l-9.07,27.6h-54l5.95-16c-.73.68-1.43,1.29-2.18,1.9-13.48,10.84-30.34,16.81-51.21,17.2l-3.1,0a137,137,0,0,1-67.35-17.94l18.37-36.51c19.91,11.78,32.41,14.4,49.27,14.07,8.75-.2,15.07-1.77,19.19-6.06a13.74,13.74,0,0,0,3.92-9.25c.14-9.48-13.34-13.94-29.86-19-13.41-4.2-28.58-9.79-40.47-18.49-14.06-10.36-20.75-23.32-20.42-41.55a50.41,50.41,0,0,1,14.23-34.74c13.1-13.51,34.2-21.76,59.52-21.76h.13c21.71,0,48.24,6.19,67.39,16l-20.67,36c-21-10.15-31.56-11.12-43.55-11.71-17.79-1-26.79,5.39-26.92,12.26-.16,8.36,16.86,15.94,32.88,21.1,24.28,7.69,55.16,18,59.87,47.82l44.4-118.3H345l52,141.51V206.67l59.5.05c56.88,0,83.61,20.24,83.61,64.43,0,39.67-27.51,63.33-74,63.33"/><path class="cls-1" d="M318.76,264.93l-18.88,59.51a54.52,54.52,0,0,0,19.06,3.41,56,56,0,0,0,18.69-3.23l-18.5-59.69Z"/></g></svg>