<svg id="Layer_1" data-name="Layer 1" xmlns="http://www.w3.org/2000/svg" viewBox="0 0 800 600"><defs><style>.cls-1{fill:#fff;}</style></defs><g id="SAP_Ariba" data-name="SAP Ariba"><path class="cls-1" d="M0,323.37,14.11,315c4.67,9.28,13.15,14.43,22.89,14.43,8.59,0,14.78-3.2,14.78-9.74s-6.05-9.16-17.19-12.25c-15.11-4.24-30.92-8.14-30.92-25.9,0-15.81,12.37-25.32,30.59-25.32,17.4,0,27.73,8.37,33.69,17.42l-13,9.85c-4.47-7.22-12.59-12-20.85-12-7.89,0-12.25,3.44-12.25,8.48,0,6.76,6.29,9.17,17.41,12.26,14.88,4,30.7,8.71,30.7,26.24,0,13.63-10.3,25.78-33.9,25.78-18.33,0-29.8-8.71-36.1-20.85m73.41,19.24,30-85.13h17.75l30,85.13H132.32L126,323.7H97.14l-6.55,18.91Zm28.3-32.42h20l-9.74-28.88h-.22Zm58.89,32.42V257.82h30.84c18.08,0,34.59,4.82,34.59,27.16,0,22.8-17.88,27.5-34.84,27.5h-12v30.13ZM179.18,298h12.71c11.56,0,15.92-4.46,15.92-12.6,0-7.91-4.22-12.38-15.92-12.38H179.18Zm79.66,44.56,29.94-85.12h17.71l29.94,85.12H317.59l-6.3-17.73H282.5L276,342.6Zm28.22-31.92H307l-9.71-28.37H297Zm60.27,31.92V282.31h17.73V293h-.57c3.31-7.1,9.15-14.19,20.58-14.19h.57l-.24,17.1c-.68-.12-3.31,0-4.46,0-7.31,0-12.33,4.26-15.88,8.72v38ZM397,257.48h17.74v14.19H397Zm0,24.83h17.74V342.6H397Zm49.66,52.91v7.38H428.91V257.48h17.73v33.41a22.12,22.12,0,0,1,18.95-10.63c13.83,0,23.54,10.63,23.54,31.65s-9.89,31.44-23.82,31.44c-8.21,0-15.12-3-18.67-8.13M470.85,312c0-10.16-3.77-16.56-12-16.56-4.68,0-8.66,2.86-12.21,5.94v22.51a16.24,16.24,0,0,0,12.44,5.6c7.65,0,11.77-6.39,11.77-17.49m25.52,14.87c0-14.06,10.57-21.83,39-24V301.4c0-4.45-2.62-7.31-8.55-7.31-7.78,0-14.57,3.19-20.16,7.54l-7.86-10.52c6.06-5.48,15.38-10.85,30.58-10.85,16.66,0,23.72,8.23,23.72,23.88v23.43c0,7.32,0,11.49,1.27,15H536c-.8-3.54-1.37-5.57-1.37-9-5.6,6.28-12.07,9.78-21.09,9.78-9.37,0-17.21-6.1-17.21-16.5m39-2.64V313c-14.19,1.47-21,5.13-21,10.73,0,3.89,2.92,5.83,6.91,5.83a20.09,20.09,0,0,0,14.11-5.26"/><path class="cls-1" d="M774.4,371.77,694.1,223.53h17.82a8.78,8.78,0,0,1,7.78,4.71L800,376.47H782.19a8.8,8.8,0,0,1-7.79-4.7m-150.56,4.7h17.82a8.8,8.8,0,0,0,7.79-4.7l21.95-40.54L659.88,310Zm-34.23,0a8.8,8.8,0,0,0,7.79-4.7l62.48-115.34,62.48,115.34a8.8,8.8,0,0,0,7.79,4.7H748L667.68,228.24a8.81,8.81,0,0,0-15.57,0L571.8,376.47Z"/></g></svg>