<svg id="Layer_1" data-name="Layer 1" xmlns="http://www.w3.org/2000/svg" viewBox="0 0 800 600"><defs><style>.cls-1{fill:#fff;}</style></defs><g id="SAP_SuccessFactors" data-name="SAP SuccessFactors"><path class="cls-1" d="M753.8,346.87l-16-16c-16.22-16.14-30.22-30.08-30.22-47.45,0-17.56,12.42-30.31,29.51-30.31a28.07,28.07,0,0,1,16.7,5.48,28,28,0,0,1,16.69-5.48c17.1,0,29.51,12.75,29.51,30.31,0,17.36-14,31.31-30.21,47.46Zm-16.7-83.49c-11.52,0-19.25,8.06-19.25,20.06,0,13.11,12.6,25.66,27.19,40.19l8.76,8.75,8.75-8.75c14.6-14.53,27.19-27.08,27.19-40.19,0-12-7.73-20.06-19.25-20.06a18,18,0,0,0-13,5.59l-3.68,3.8-3.69-3.8a18,18,0,0,0-13-5.59"/><path class="cls-1" d="M0,314.11,8.65,309a15.4,15.4,0,0,0,14,8.84c5.26,0,9.06-2,9.06-6S28,306.25,21.2,304.35c-9.26-2.6-18.95-5-18.95-15.87C2.25,278.78,9.83,273,21,273c10.68,0,17,5.13,20.66,10.67l-7.94,6a15.49,15.49,0,0,0-12.78-7.37c-4.84,0-7.51,2.11-7.51,5.2,0,4.14,3.86,5.61,10.67,7.51,9.12,2.46,18.81,5.34,18.81,16.08,0,8.35-6.31,15.8-20.77,15.8-11.24,0-18.27-5.34-22.13-12.78m45,11.8,18.4-52.18H74.28l18.39,52.18H81.1l-3.88-11.59H59.54l-4,11.59ZM62.33,306H74.57l-6-17.69h-.14Zm36.1,19.88v-52h18.9c11.08,0,21.2,2.95,21.2,16.64,0,14-11,16.86-21.35,16.86h-7.36v18.47Zm11.39-27.32h7.78c7.09,0,9.76-2.74,9.76-7.72s-2.59-7.59-9.76-7.59h-7.78Zm52.58,15.52L171,309a15.4,15.4,0,0,0,14,8.84c5.26,0,9-2,9-6s-3.7-5.61-10.53-7.51c-9.26-2.6-18.95-5-18.95-15.87,0-9.7,7.58-15.52,18.75-15.52,10.66,0,17,5.13,20.65,10.67l-7.94,6a15.49,15.49,0,0,0-12.78-7.37c-4.84,0-7.52,2.11-7.52,5.2,0,4.14,3.86,5.61,10.67,7.51,9.13,2.46,18.82,5.34,18.82,16.08,0,8.35-6.31,15.8-20.77,15.8-11.24,0-18.27-5.34-22.13-12.78m48.44,1.68V288.48h11.3v24c0,3.36,1.27,5.19,4.43,5.19s5.6-1.61,8.14-3.79V288.48H246v37.43h-11.3v-5.83a16.21,16.21,0,0,1-12.92,6.6c-6.4,0-10.95-3.16-10.95-10.89M252,307.22c0-15,10.61-19.51,18.89-19.51,10.19,0,14.12,5.4,16.29,11.44l-9.47,3.16c-1.47-4.78-3.65-6.32-7-6.32-4.56,0-7.44,3.87-7.44,11.31,0,6.67,2.11,11.44,7.3,11.44,3,0,5.77-1.61,7.38-6.67l9.33,3.23c-2.38,5.83-7,11.38-16.91,11.38-8.78,0-18.41-4.92-18.41-19.46m39,.06c0-14.91,10.57-19.46,18.83-19.46,10.16,0,14.08,5.39,16.25,11.41l-9.46,3.15c-1.47-4.76-3.64-6.3-6.92-6.3-4.55,0-7.43,3.85-7.43,11.28,0,6.64,2.11,11.41,7.29,11.41,3,0,5.73-1.61,7.34-6.66l9.32,3.22c-2.38,5.81-7,11.35-16.88,11.35-8.74,0-18.34-4.9-18.34-19.4m37.85-.06c0-14.52,11.1-19.51,18.82-19.51s17.2,3.86,17.2,20.85v1.68H340.12c.54,6.19,4,8.57,8.69,8.57a17.21,17.21,0,0,0,11.1-4.49l4.36,6.74c-4.36,3.72-9.76,5.62-16.3,5.62-9.76,0-19.09-5-19.09-19.46m25.9-3.64c-.55-5.27-2.95-7.8-7.15-7.8-3.51,0-6.53,2.32-7.38,7.8ZM368,320.92l4.49-6.32a20.74,20.74,0,0,0,13,4.84c3.52,0,6-1.19,6-3.65s-2-3.57-7.08-4.49c-7.11-1.27-14.69-2.95-14.69-11.73,0-7.51,6.18-11.86,14.53-11.86,7.67,0,12.3,2,16.43,5.26l-4.43,6.39c-3.78-2.59-7.51-4.07-11-4.07-3.24,0-5.06,1.26-5.06,3.3,0,2.25,2,3.16,6.68,4C394.18,303.86,402,305.54,402,314c0,9.06-7.86,12.64-16.5,12.64-8.22,0-13.69-2.53-17.48-5.76m37.52,0,4.5-6.32a20.67,20.67,0,0,0,13,4.84c3.51,0,6-1.19,6-3.65s-2-3.57-7.07-4.49c-7.11-1.27-14.69-2.95-14.69-11.73,0-7.51,6.18-11.86,14.53-11.86,7.66,0,12.3,2,16.43,5.26l-4.43,6.39c-3.79-2.59-7.51-4.07-11-4.07-3.25,0-5.07,1.26-5.07,3.3,0,2.25,2.05,3.16,6.68,4,7.37,1.26,15.16,2.94,15.16,11.44,0,9.06-7.86,12.64-16.5,12.64-8.22,0-13.69-2.53-17.48-5.76m40.85,5v-52h34.33v9.55h-22.9v12.64h16.3v9.06h-16.3v20.72Zm31.74-9.56c0-8.63,7.31-13.41,23.75-14.74v-.91c0-2.74-1.41-4.5-5.06-4.5a19.91,19.91,0,0,0-12.29,4.64l-4.78-6.46c3.72-3.37,9.34-6.67,18.68-6.67,10.25,0,14.47,5.05,14.47,14.67v14.4c0,4.49.28,7.23,1,9.13H502.69a17.48,17.48,0,0,1-.84-5.48,16.58,16.58,0,0,1-13.08,6c-5.74,0-10.67-3.73-10.67-10.12m23.75-1.61v-6.95c-8.93.91-12.71,3.16-12.71,6.6,0,2.39,1.67,3.58,4.13,3.58a11.64,11.64,0,0,0,8.58-3.23m17.2-7.52c0-15,10.6-19.51,18.88-19.51,10.19,0,14.12,5.4,16.3,11.44l-9.49,3.16c-1.47-4.78-3.65-6.32-7-6.32-4.56,0-7.44,3.87-7.44,11.31,0,6.67,2.11,11.44,7.31,11.44,3,0,5.75-1.61,7.35-6.67l9.36,3.23c-2.39,5.83-7,11.38-16.93,11.38-8.77,0-18.39-4.92-18.39-19.46m44,8.16V296.69h-6.24v-8.21h6.24V275.63H574.3v12.85h9.62v8.21H574.3v16.23c0,4,1.13,5.26,5.19,5.26a14,14,0,0,0,3.73-.42v8.07a52.93,52.93,0,0,1-7.45.57c-11.08,0-12.71-4-12.71-11m24.21-8.16c0-14.67,10.06-19.51,19.18-19.51s19.09,4.84,19.09,19.51-10,19.46-19.09,19.46-19.18-4.92-19.18-19.46m27,.08c0-6.25-2.18-11.31-7.79-11.31-5.4,0-7.87,4.57-7.87,11.31,0,6.25,2.11,11.44,7.87,11.44,5.34,0,7.79-4.63,7.79-11.44m17.84,18.61V288.48h11.3v6.25h.07a14.17,14.17,0,0,1,12.64-7h.35l-.14,10c-.41-.07-2.25-.22-2.95-.22a12.49,12.49,0,0,0-10,5.14v23.24Zm26-5,4.49-6.32a20.79,20.79,0,0,0,13,4.84c3.49,0,6-1.19,6-3.65s-2-3.57-7.1-4.49c-7.08-1.27-14.67-2.95-14.67-11.73,0-7.51,6.18-11.86,14.53-11.86,7.65,0,12.28,2,16.44,5.26l-4.43,6.39c-3.79-2.59-7.51-4.07-11-4.07-3.22,0-5,1.26-5,3.3,0,2.25,2,3.16,6.65,4C684.24,303.86,692,305.54,692,314c0,9.06-7.87,12.64-16.49,12.64-8.22,0-13.71-2.53-17.5-5.76"/></g></svg>