<svg id="Layer_1" data-name="Layer 1" xmlns="http://www.w3.org/2000/svg" viewBox="0 0 800 600"><defs><style>.cls-1{fill:#fff;fill-rule:evenodd;}</style></defs><g id="Siemens"><path class="cls-1" d="M2.47,358.48v-24Q23,341,38.83,341q21.83,0,21.81-11.48a9.43,9.43,0,0,0-3.16-7.19q-3.27-3.07-16.67-8.56Q16.75,303.89,9.46,297,0,287.82,0,273.85q0-18,13.77-27.41,13.59-9.33,35.46-9.33,12.06,0,34.88,4.41v23q-17-6.75-31.53-6.75-20.49,0-20.49,11.22c0,2.81,1.38,5.08,4.12,6.86Q39.66,278,55.14,285q22.31,9.85,29.7,17.12,8.8,8.67,8.8,22.37,0,19.69-17.23,30-13.93,8.4-36.16,8.4a166.73,166.73,0,0,1-37.78-4.41M112.84,239.23h34v121.2h-34Zm65.25,121.2V239.23h87.29v21.91h-54.5v27.38h47.45v20H210.88v28.77h55.91v23.15Zm110.92,0V239.23h44.12l30.66,77.44,31.42-77.44h41.91v121.2H404.86V274.62l-35.74,87H348l-35.06-87v85.81Zm179.32,0V239.23h87.28v21.91H501.13v27.38h47.43v20H501.13v28.77H557v23.15Zm111.1,0V239.23h39.44l41.85,81.13V239.23h24v121.2H646.36l-43-82.23v82.23Zm129.41-1.95v-24Q729.22,341,745.2,341,767,341,767,329.49a9.57,9.57,0,0,0-3.09-7.19q-3.26-3.07-16.75-8.56-24-9.75-31.36-16.79-9.45-9.07-9.47-23.21,0-17.88,13.78-27.3,13.61-9.33,35.49-9.33,12.3,0,31.85,3.9l3,.51v23q-17-6.75-31.6-6.75-20.42,0-20.4,11.22c0,2.81,1.36,5.08,4.11,6.86q3.28,2,19,9.07,22.13,9.85,29.61,17.12,8.78,8.67,8.78,22.37,0,19.69-17.13,30-14,8.4-36.23,8.4a166.9,166.9,0,0,1-37.8-4.41"/></g></svg>