<svg id="Layer_1" data-name="Layer 1" xmlns="http://www.w3.org/2000/svg" viewBox="0 0 800 600"><defs><style>.cls-1{fill:#fff;}</style></defs><g id="Silver_Legacy" data-name="Silver Legacy"><path class="cls-1" d="M754,360.51H203.28l-2.16,10.35,552.85.06c6.72,0,10.37.44,15.56,1.89a12.78,12.78,0,0,0,1.29.39V358.34c-.48.14-.94.27-1.41.36-5.19,1.46-8.37,1.81-15.44,1.81"/><path class="cls-1" d="M48.77,370.92l122.51-.06-2.48-10.35h-120c-8.09,0-11.74-.35-17.66-1.81-.55-.09-1.08-.22-1.63-.36v14.87c.55-.13,1.08-.27,1.49-.4,5.94-1.45,10.11-1.89,17.8-1.89"/><path class="cls-1" d="M57.5,308.08c.48-18.26-3.84-24-18.9-34.34l-.62-.43c-5.5-3.92-8.54-6.07-10.5-9.71s-1.32-13.36.71-14.91l.08-.06a5.36,5.36,0,0,1,3.17-1.26c.34,0,.7-.05,1.09-.05a19.43,19.43,0,0,1,8,2l.07,0a20.6,20.6,0,0,1,8.2,6.52L51.3,259V232.41l-.92-.44a10.57,10.57,0,0,0-2-.79c-5.44-2.39-10.05-3.5-14.49-3.5h-.77c-8.71,0-16,3.31-21.14,9.56C5.26,245.47,3,258,5.68,271.63c1.64,8.28,4.94,13.27,10.85,20.11l.09.09c.38.37.75.76,1.15,1.18s.75.8,1.12,1.17a47.67,47.67,0,0,0,5.69,5.05l2.36,1.67,2.15,1.49c4.64,3.47,7,10.34,7.14,14.11a11.09,11.09,0,0,1-2.86,8.09,9.12,9.12,0,0,1-6.87,2.7A20.79,20.79,0,0,1,17.79,325,30.05,30.05,0,0,1,3.73,312L0,305.56,5.61,343l4.5,1.54c1.51.48,3,.8,4.39,1.11a47.84,47.84,0,0,0,11,1.39c19.42,0,31.38-14.58,32-39"/><path class="cls-1" d="M63.58,233.46c3.48,6.89,4.38,11,4.38,20.06l-.09,67.56c0,8.62-.86,13.3-3.68,19.95a15.63,15.63,0,0,0-.85,1.79l-.85,2H97l-.91-2a14.28,14.28,0,0,1-.66-1.68l-.06-.17c-2.81-6.59-3.54-10.67-3.54-19.86V253.52c0-8.53,1.11-13.22,4.75-20.05.27-.44.48-.81.72-1.22l1.52-2.61H61.36l1.23,2.13c.36.62.63,1.09,1,1.69"/><path class="cls-1" d="M103.06,341.78c-.17.28-.34.56-.52.89l-1.22,2.12H157.6L165,307l-3.5,4.1c-4.13,4.83-8.57,7.43-21.35,8.23a50.14,50.14,0,0,1-8.47-.31V253.52c0-.51,0-1,0-1.57s.05-1.1.05-1.67a41.22,41.22,0,0,1,3.92-16.79,14,14,0,0,1,.82-1.72l1.22-2.13H102.52l.85,2c.12.26.24.52.35.78s.32.72.47,1.09c2.78,6.59,3.63,11.23,3.63,19.86l.09,67.72c0,9.09-.9,13.19-4.39,19.91-.17.28-.32.53-.46.79"/><path class="cls-1" d="M223.81,229.64h-28l1.45,2.23c.33.52.57.89.81,1.36,3.11,6.08,3.43,10,1.45,17.47l-9,47.3-13.25-68.36H145.87l1.6,2.39a15.34,15.34,0,0,0,1,1.41c3.94,6.14,5.65,10,7.9,18,.27,1.18,7.08,30.67,14,59.87,4.14,17.42,7.53,31.33,10,41.34,5,19.59,5.34,19.73,6.31,20.08l1.48.54L223.38,231.4Z"/><path class="cls-1" d="M226.19,233.4l.05.1c3,7,3.81,11.29,3.81,20v67.56c0,8.68-1.07,13.34-4.58,19.92l0,.08a6.62,6.62,0,0,1-.5.87,8.08,8.08,0,0,0-.44.72l-1.22,2.12h56.35l7.44-36.42-3.26,3.08c-6.1,5.75-13.15,8.43-22.16,8.43a52.14,52.14,0,0,1-6-.36l-1.61-.29V296.44h5c3.46,0,5.93.64,8,2.09l.28.16,3.12,2.67.26.27,3.79,3V272.23H254V254.17h11.75l1.57.15H269c2.49.36,4,1.2,6.91,5.18l1.21,1.65,2.79,5V229.64H224.15l1.25,2.14a14.29,14.29,0,0,1,.79,1.62"/><path class="cls-1" d="M459.09,233.4l0,.1c3,7,3.8,11.28,3.8,20v67.56c0,8.66-1.06,13.31-4.57,19.92l-.05.11a6.09,6.09,0,0,1-.52.88c-.13.21-.27.42-.41.66l-1.28,2.14h56.42L520,308.38l-3.26,3.07c-6.11,5.75-13.15,8.43-22.16,8.43a51.84,51.84,0,0,1-6-.36l-1.62-.29V296.44h5c3.46,0,5.92.64,8,2.08l.32.18,3.09,2.64.3.34,3.75,3V272.23H486.85V254.17H498.6l1.58.15h1.68c2.49.36,4,1.2,6.9,5.19l1.24,1.66,2.78,4.62V229.64H457l1.28,2.15a16,16,0,0,1,.79,1.61"/><path class="cls-1" d="M324.39,342.65c-.2-.34-.39-.63-.58-.91s-.34-.51-.49-.77c-3.88-6.94-4.75-10.65-4.66-19.89V288.46a220.07,220.07,0,0,0,10.49,33.43c7.22,18.57,9.52,22.91,15.52,22.91H368l-3.06-4.66-1.64-2.64a177,177,0,0,1-8.41-15.76c-2.9-6.36-5.43-12.52-7.52-18.27L345.14,297l-4.45-12.47,1.52-1c6.5-4.26,9.79-10.85,10.67-21.35.92-11-1.07-19.36-5.92-25-3.92-4.52-9.58-7-16.82-7.46a41.79,41.79,0,0,0-4.6-.17H289.42l.87,2c.18.39.34.78.51,1.17l.3.7c2.93,6.93,3.64,10.86,3.64,20v67.56c0,8.58-1.22,13.22-5.21,19.88-.15.26-.31.5-.48.75s-.4.6-.6,1l-1.21,2.12h38.41Zm-5.73-91.1.28-.07a6.51,6.51,0,0,1,1.58-.12h.08c3.44-.17,6.08.71,7.81,2.64,2.2,2.44,3,6.65,2.48,12.18a22.68,22.68,0,0,1-2.85,8.5,9.57,9.57,0,0,1-5.71,4.64l-.11.05a4.38,4.38,0,0,1-1.7.35l-1.12.16h-.74Z"/><path class="cls-1" d="M394,343l-1.59,2.23H449l7.49-31.65L453,316.9c-4,3.9-8.65,6.14-21.42,6.8a60.08,60.08,0,0,1-8.49-.25v-74c0-.41,0-.83.05-1.27s0-.91,0-1.38A28.73,28.73,0,0,1,427,233.1l0-.08a9.92,9.92,0,0,1,.76-1.27l1.69-2.27h-35.8l1.15,2.1c.27.49.54,1,.8,1.51,2.74,5.37,3.58,9.15,3.58,16.21l.09,76.08c0,7.39-.88,10.73-4.31,16.19-.36.5-.63.87-1,1.39"/><path class="cls-1" d="M562.93,347.33a55.42,55.42,0,0,0,14.49-2.11,34.32,34.32,0,0,0,10.35-4.55l.66-.41V280.19H562.81l.75,1.94c.3.76.55,1.33.78,1.79,2.43,6,3.29,10,3.69,17.26v0c.07.87.07,1.79.07,2.85v21.22l-.21,0-.73.12a14.48,14.48,0,0,1-11.71-4.71c-6.89-7-10.64-21.23-10.28-38.94.42-21.25,7.31-36.09,16.74-36.09a12.8,12.8,0,0,1,7.21,2.6l0,0a35.85,35.85,0,0,1,6.37,5.7l1.21,1.21,3,3.8V231.25l-1-.3c-.54-.16-1.06-.36-1.61-.57s-.94-.36-1.4-.5A45.4,45.4,0,0,0,561,227.23a30.25,30.25,0,0,0-22.26,9.25c-10.27,10.39-15.77,29.13-15.5,52.78.46,36.9,14.91,58.07,39.65,58.07"/><path class="cls-1" d="M618.82,342.64c-.09-.16-.19-.4-.3-.65s-.21-.51-.34-.77c-2.47-6.32-2.78-9.45-1.64-16.63.15-.87.29-1.73.44-2.6l.11-.65.4-2h17.65l.22,1.88.92,6.17v.32a26.51,26.51,0,0,1-2.54,13.36c-.11.26-.23.48-.34.71s-.32.64-.49,1l-.81,2h39.06l-1.31-2.15c-.18-.3-.34-.6-.5-.92s-.32-.62-.51-.94c-3.7-6.32-5.5-11.18-7.4-20l-20.06-91.13H615.19l.51,1.81c.07.25.13.51.18.77s.15.7.27,1.09c1.51,6.79,1.34,11.26-.76,19.88l-16.13,67.54c-2.2,8.82-4.08,13.54-8,20.14a15.67,15.67,0,0,0-1.14,1.81l-1.19,2.11h31.23Zm8-68.48L631,295.79h-8.68Z"/><path class="cls-1" d="M703.38,348.3h0a39.87,39.87,0,0,0,4.31-.24c4.47-.33,12.66-3.12,16.62-4.92l.7-.32,5.4-34.72-3.66,5.82c-3,4.81-6.19,7.68-10.54,9.59a20.19,20.19,0,0,1-7.77,1.7A15.58,15.58,0,0,1,697,320.08c-7.07-7.31-10.79-21.6-10.2-39.2.75-21.31,7.36-35.07,16.83-35.07,3.15,0,6.54,1.5,10.07,4.43.46.39.94.84,1.41,1.28s.82.77,1.23,1.13l2.66,3.19,2.51,3V230.67l-3.28-1.11-3.38-.93c-1.61-.43-3.14-.85-4.77-1.14a40.69,40.69,0,0,0-7.54-.74c-10.83,0-19.61,4.8-26.11,14.26-6.2,9-10,21.88-11.2,38.16a105.81,105.81,0,0,0,3.7,36.84c6.29,21.42,17.88,32.29,34.47,32.29"/><path class="cls-1" d="M780.37,341.76c-.15-.25-.3-.5-.46-.79-3.45-6.46-4.47-10.93-4.57-19.89V301.5L800,229.64H772.6l.5,1.81c.08.26.15.52.23.78s.21.71.3,1.05c1.6,6.65,1.34,10.55-1.35,19.86l-4.59,16.17L757.5,229.64H723.92l2.74,3.93,1.51,2.3a70.1,70.1,0,0,1,8,18.08l15.27,47.84v19.27c-.09,8.72-1.32,13.74-4.84,19.9-.14.24-.27.46-.39.68s-.38.65-.6,1l-1.21,2.12h37.77l-1.25-2.13-.53-.9"/></g></svg>