<svg id="Layer_1" data-name="Layer 1" xmlns="http://www.w3.org/2000/svg" viewBox="0 0 800 600"><defs><style>.cls-1{fill:#fff;}</style></defs><g id="Skillsoft"><path class="cls-1" d="M79,300.5l-4.49,9c-1.46,3-4,3.76-6,2.72-8.66-4.59-18.69-7.31-26.83-7.31-9,0-15.56,3-15.56,10.55,0,19.52,56.28,9,56.07,47.4,0,21.72-19.32,31.43-40.62,31.43-14.41,0-29.65-4.49-40.2-12.74a4,4,0,0,1-1-4.8L5,367.54a3.82,3.82,0,0,1,5.75-1.46,58.74,58.74,0,0,0,31.84,10.23c9.71,0,17.34-3.34,17.34-11.38,0-21.72-55.76-9.5-55.55-47.72,0-21.51,18.69-30.59,38.94-30.59,12,0,24.65,3.23,34,8.77A3.79,3.79,0,0,1,79,300.5"/><path class="cls-1" d="M118.37,365.45v24.12a4,4,0,0,1-4,4H99.47a4,4,0,0,1-4-4V249.86a4,4,0,0,1,4-4H114.4a4,4,0,0,1,4,4v77.9a3,3,0,0,0,5.12,2.09l40.51-41a4,4,0,0,1,2.82-1.15h15.35a4,4,0,0,1,2.82,6.68l-30.6,32.06a3.94,3.94,0,0,0-.41,4.91l36.54,56.17a4,4,0,0,1-3.34,6.06H169.53a4.15,4.15,0,0,1-3.34-1.78L139,349.27a3.88,3.88,0,0,0-6.16-.63l-13.36,14.1a3.79,3.79,0,0,0-1.15,2.71"/><path class="cls-1" d="M228.32,257.38c0,7.94-5.74,13.68-13.37,13.68s-13.26-5.64-13.26-13.68,5.75-13.89,13.37-13.89,13.26,5.75,13.26,13.89M203.68,389.57V291.63a4,4,0,0,1,4-4h14.82a4,4,0,0,1,4,4v97.94a4,4,0,0,1-4,4H207.65a4,4,0,0,1-4-4"/><path class="cls-1" d="M245,389.57V249.86a4,4,0,0,1,4-4h14.94a4,4,0,0,1,4,4V389.57a4,4,0,0,1-4,4H249a4,4,0,0,1-4-4"/><path class="cls-1" d="M289.4,389.57V249.86a4,4,0,0,1,4-4H308.3a4,4,0,0,1,4,4V389.57a4,4,0,0,1-4,4H293.37a4,4,0,0,1-4-4"/><path class="cls-1" d="M407.39,300.61l-4.9,10a4,4,0,0,1-5.43,1.67c-8.67-4.59-18.69-7.31-26.84-7.31-9,0-15.56,3-15.56,10.55,0,19.53,56.28,9,56.08,47.41,0,21.71-19.32,31.43-40.62,31.43-14.41,0-29.66-4.49-40.2-12.74a4,4,0,0,1-1.05-4.81l4.6-9.19a3.81,3.81,0,0,1,5.74-1.46,58.67,58.67,0,0,0,31.85,10.24c9.71,0,17.33-3.35,17.33-11.39,0-21.72-55.76-9.5-55.55-47.71,0-21.51,18.69-30.6,39-30.6,12,0,24.64,3.24,34,8.77a3.89,3.89,0,0,1,1.56,5.12"/><path class="cls-1" d="M531.75,340.6c0,31.85-22.45,53.67-55.13,53.67s-55.34-21.93-55.34-53.67c0-32.05,22.45-53.67,55.34-53.67,32.58-.1,55.13,21.62,55.13,53.67m-87.6.21c0,20.47,13.36,34.46,32.47,34.46,18.9,0,32.27-13.89,32.27-34.46,0-20.26-13.37-34.25-32.27-34.25-19.11,0-32.47,13.89-32.47,34.25"/><path class="cls-1" d="M576.44,279.1v8.56a4,4,0,0,0,4,4h19.74a4,4,0,0,1,4,4v9.19a4,4,0,0,1-4,4H580.41a4,4,0,0,0-4,4v76.85a4,4,0,0,1-4,4H557.75a4,4,0,0,1-4-4V312.72a4,4,0,0,0-4-4h-6.06a4,4,0,0,1-4-4V295.6a4,4,0,0,1,4-4h6.06a4,4,0,0,0,4-4v-6.37c0-24.64,18.06-36.44,36.44-36.44a41.74,41.74,0,0,1,21,5.43,3.93,3.93,0,0,1,1.35,5l-5.22,10.44a4,4,0,0,1-5.43,1.78,23.86,23.86,0,0,0-11.07-2.82c-7.83.1-14.41,4.49-14.41,14.41"/><path class="cls-1" d="M680.86,383.52a4.16,4.16,0,0,1-1.88,4.9,48.48,48.48,0,0,1-23.07,6.06c-15.88,0-29.66-9.19-29.66-30.8v-51a4,4,0,0,0-4-4h-7a4,4,0,0,1-4-4V295.6a4,4,0,0,1,4-4h7a4,4,0,0,0,4-4v-21.2a4,4,0,0,1,4-4h14.83a4,4,0,0,1,4,4v21.2a4,4,0,0,0,4,4h23.29a4,4,0,0,1,4,4v9.19a4,4,0,0,1-4,4H653a4,4,0,0,0-4,4V359.5c0,11,4.18,14.3,11.38,14.3a30.22,30.22,0,0,0,12-2.81,3.89,3.89,0,0,1,5.22,2.4Z"/><path class="cls-1" d="M733.38,232.11l-44.69-25.79a5.24,5.24,0,0,0-7.83,4.49v50.64a5.24,5.24,0,0,0,7.83,4.49l44.69-25.79a4.62,4.62,0,0,0,0-8"/><path class="cls-1" d="M797.81,232.32l-45.22-26.1a5,5,0,0,0-7.51,4.38v51.27a5,5,0,0,0,7.51,4.39l45.22-26.11a4.59,4.59,0,0,0,0-7.83"/><path class="cls-1" d="M766.38,293.93l-44-25.38a5.43,5.43,0,0,0-8.15,4.7v49.91a5.43,5.43,0,0,0,8.15,4.7l44-25.37a5,5,0,0,0,0-8.56"/></g></svg>