<svg id="Layer_1" data-name="Layer 1" xmlns="http://www.w3.org/2000/svg" viewBox="0 0 800 600"><defs><style>.cls-1,.cls-2{fill:#fff;}.cls-2{fill-rule:evenodd;}</style></defs><g id="Stanford_Alumni" data-name="Stanford Alumni"><path class="cls-1" d="M427.78,232.8c2.25,2.53,14.72,10.68,19.08,12.68,9.47,4.33,14.39,11.35,17.33,20.26,2.77,8.43-.25,6.58-2.5,5.53s-2.9-3.3-8.51-3.19-8.77-.26-12.76-3.35a22,22,0,0,1-2.63-2.5.66.66,0,0,1-.13-.08c-3.83-2.87-3.08,6.68-2.28,8.25,2.76,5.48,4.64,3.24,20.62,11.6,7.6,4,9.39,9.32,10.18,11.57,1.29,3.62,2.61,4.66-9,3.07a41.86,41.86,0,0,1-13.58-4.94c-3.06-2.07-9.21-.4-8.66,4.11,2.87,6.88,10.24,11.21,17.28,12.07,6.14.76,8.94,2.08,10.05,3.44,3.38,3.76-2.86,9.28-2.86,9.28-3.12,3.54.25,7.72,2.55,9,3.74,1.86,11,6.13,13.44,12.29,12.6,31.86.41,22.74-5.58,19.07s-17.39-13-27.8-12.2-13.87,1.34-20-3.45-5.56,3-5.56,3v38.44c.37,8.62,2,16.82,8.95,23.79,5.72,5.71,10.06,4.64,18.13,14.28,3.72,4.44,15.84,9.24,23.93,9.34h15.5L538.11,381V234.8l-47-46.93H460.58c2.59,4.19,4.07,9.65,5.17,17.64,0,4.81-6.45,2.47-8.54,1.22a17.28,17.28,0,0,0-5.91-2.48c-4.69-1.12-15.93-6-19-7a4.79,4.79,0,0,0-5.77,2h0c-.77,1.45.85,4.41.85,4.41,4.44,9.8,12.54,9.29,21.48,15.55,12.27,8.6,5.69,10.39,3.18,9.1s-6.63-.48-6.63-.48c-9.91,2.67-12.87-1.37-18.67-2.89s-1,5.54,1,7.89"/><path class="cls-1" d="M371.79,412.71c3.82-5.92,10.56-10.95,14.85-15.24,4.53-4.51,5.34-14.78,5.47-26V348.24l0,.24v-5.56h0V339.2c0-.15,0-.48,0-.88v-10c0-2.32-2.74-2.5-8.75,3.85s-16.12,5.84-22,6.34-22.64,9.1-27.44,15.27c-3,3.84-7.19.69-5.48-6.85h0a109.19,109.19,0,0,1,4.7-14c3.34-8.43,15.76-13.34,15.76-13.34a9.41,9.41,0,0,0,2.4-1.65H270.92l0,63L326.07,434h17.75c16.67-.81,22.91-13.48,28-21.3"/><path class="cls-1" d="M325.83,15.35l-55.17,53V221.55l46.95,47h44.1c7.55-3.24,9.15-3,11.23-7.12a13.56,13.56,0,0,0,.64-4.39c.1-.54,1.05-6.12-1.72-4.76-4.71,2.34-14.22-3.79-21.35-.17s-1.92-4.75-.91-6.21a35.83,35.83,0,0,1,9.56-8.19,6.21,6.21,0,0,0,.56-.35c.57-.31,1.14-.58,1.73-.85,4.36-2,16.84-10.15,19.08-12.68,1.33-1.49,3.7-4.86,3.81-6.74.39-1.62.7-4.2-.89-5.21-2.38-1.53-4.28,1.49-8,3.11a25.14,25.14,0,0,1-9.84,2.4c-3.18.1-6.23-1.09-8.14-.8s-3-1.13.48-4.58a30.71,30.71,0,0,1,3-2.8c8.34-5.23,15.79-5.3,20-14.56,0,0,3.26-8.34-3-4.79-3.46,2-5.32,4.79-15.16,4.79s-13.66,4.53-15.32,6.54c0,0-6.67,9.16-5-3.67s4.21-19.35,10.37-24.33c5.29-4.3,18.48-10,23.23-16.39,2.45-2.38,8.57-9.24,5-15.07-1.49-2.44-5.15,3.9-8.93,4.71-4.29,1.13-9.78,2.51-14,1.69-5.17-1-8.49.9-10.42,1.77s-5.6-1.87-1.12-6.88c6-6.72,20.48-15.48,30.24-20.72a53,53,0,0,0,7.6-3.81l.18-.09a6.76,6.76,0,0,0,2.47-1.78c2.13-1.74,3.58-3.72,3.08-5.7s-1.34-2.42-4.21-2.73c-2.3-.22-6.05,2.39-9.24,2.13-4.89-.38-12,.73-9.67-2.67a20.58,20.58,0,0,1,6.84-5.74c2-.91,4.69-2.06,8.65-3.82,6.21-2.73,5.35-9.67,2.94-9.92-3.76-.39-13.86,2.78-6.74-5.19a49.44,49.44,0,0,1,6.77-5.5A41.68,41.68,0,0,1,393,74.43c1.68-.59,6-4.37-4.28-4.76,0,0-5.77.15-4.66-2.44.9-1.73,5.94-4.84,5.94-4.84A53,53,0,0,0,395.75,58c1.59-1.48,2.72-2.7,2.64-4-.08-1.54-4.12-3.43-5.83-5.57-1.23-1.54-.19-2.08.5-2.28A7.93,7.93,0,0,1,394.4,46c4.16,0,5.36-4.07,7.79-14.74.74-3.21.78-3.89,1.85-3.9h0l.22,0s1,5.42,2.54,11.45c1.26,3.32,2.68,4.73,5.13,4.72a6.3,6.3,0,0,1,1.33.13c.68.18,1.74.72.5,2.27-.94,1.17-3.76,3.1-4,4.27-.83,3.32,2.38,4.51,5.67,4.75,4.64.31,2.71,3.14-2.3,6.8-4.85,3.54,7.55,11.07,7.55,11.07,7.06,5.36,2,6.76.58,7.51s-5.4,3.13-1.41,4.65S429.38,92,429.38,92c7.1,8-3,4.8-6.75,5.18-2.42.26-3.28,7.2,2.93,9.94,9.46,4.18,11.56,4.9,14.91,7.34,6.24,4.55,2.93,8.4-4.87,7,0,0-5-1.23-8.51-.55a17.92,17.92,0,0,0-4.71,1.42c-.54.79-1.79,4,9.08,7.24,5.2,1.57,11.62,5.42,17.33,9.81l89.08-.1V68.46L482.68,15.35H325.83"/><path class="cls-1" d="M553.46,61.93,489.11,0H319.9L255.54,61.83V227.9l55.94,56h25.66c-.63,1.69-1.44,4.3.33,6.85,1.94,2.8,5.29,2.8,6.54,2.8a56.18,56.18,0,0,0,6.85-.6h0s1.34,1.15-2.74,2.46c-3.37,1.18-6.3,3.11-7.29,6.42a6.19,6.19,0,0,0-.14.7H255.58l0,84.89,64.34,62H489.11l64.35-61.93V228.44l-56-55.92H450.06l-.07,0c-2.08-1.23-4.24-2.5-6.21-3.78l-.71-.46-.14,0a31.28,31.28,0,0,1-3.39-2.49,20.15,20.15,0,0,1-2.59-2.39l-.18-.19a46.64,46.64,0,0,1-3.2-3.6,85,85,0,0,0,19.34,2.76h.48l.73,0,.34,0a10.21,10.21,0,0,1,2.11.36c.49.2.94.41,1.33.6l2,.73a6.52,6.52,0,0,0,1.48.16,7.62,7.62,0,0,0,6.86-4.42,8.25,8.25,0,0,0,.57-5.17l84.63,0V61.93m-7.67,85h-88.2a35.71,35.71,0,0,1,4.44,5.39c4,4.75.53,7.33-1.36,6.53,0,0-1.46-.69-2.4-1a38.12,38.12,0,0,0-5.2-.69c-4.69-.15-17.32-1-25-5.33-3-1.7-3.32,2.41-2,5.67.71,1.76,3.4,5.6,7,9.27a25.72,25.72,0,0,0,3.25,3,30.79,30.79,0,0,0,4.55,3.24l0,0c4.06,2.62,8.54,5.05,11.85,7.2h41.56l51.46,51.42V384.25L486,441.77H323l-59.77-57.62,0-73.93h87.9a20.33,20.33,0,0,0-4-3.4s-7-5.91,9.18-7.91c7-.86,14.4-5.18,17.27-12.07.55-4.51-5.59-6.19-8.66-4.11a41.69,41.69,0,0,1-13.58,4.94c-11.63,1.59-10.31.55-9-3.08a18.5,18.5,0,0,1,5.47-8.36H314.66l-51.44-51.5V65.1L323,7.67H486L545.79,65.2Z"/><path class="cls-2" d="M290.34,570.83a6.93,6.93,0,0,0,.08,3.13c0,.71.16,1.27.14,2a12.2,12.2,0,0,0,.41,3.58c.3,1,.17,1.76.41,2.8s.78,2.38,1.06,3.53c1.14,4.88,5.92,9.32,10,11.32,1.08.52,2.12,1.65,3.31,2.11,1.37.52,5.49,1.26,6.75.15l.15-.6a7.45,7.45,0,0,1-5.78-3.75c-.2-.7-.84-1.85-1-2.55A47.43,47.43,0,0,1,303.38,575c.16-2.93.25-6.71.33-10.06.42-3.78.53-7.7,1-11.48.48-2.52.32-5.42,1-8.11,1.35-4.84,2.05-9.92,3.38-14.62.88-3.5,2.12-6.91,3.14-10.5,2.34-6.33,5.2-13.71,7.58-20,2.24-5.92,1.76-12.55-2.47-16.06-1.33-1.1-3.34-3.58-5.47-2.24a18.29,18.29,0,0,0-2.7,4.34,23,23,0,0,0-1.48,4,57.13,57.13,0,0,1-2.28,6.09c-.51,1.22-1,2.93-1.45,4.23-.67,1.85-1.18,3.52-2.07,5.52-.69,1.56-1.81,6.34-2.1,7-.3,1.4-.83,2.82-1.13,4.22a93.47,93.47,0,0,0-2.47,9.16,23.7,23.7,0,0,0-1.05,4.28c-.78,3.2-1.54,6.3-2.33,9.07-.28,2-.7,3.7-1,5.7,0,.55-.24,2.08-.24,2.62a131.52,131.52,0,0,0-1.25,22.82"/><path class="cls-2" d="M577,502.72c-1,.46-7.08.06-7.73.6-1,.66.55,5.14,1,6.31,1.31,3.65,7,8.7,11.56,6a17.05,17.05,0,0,1-.07-4.73c.29-1.87,1.63-6.24-.38-7.58-1.24-.82-2.77-.35-4.35-.6"/><path class="cls-2" d="M399.79,513.21c-1.76.55-3.38.74-4.43,2.4s-1.2,3.92-1.73,6.3a70.3,70.3,0,0,1-2.17,7.35c-.08.56-.59,1.83-.66,2.39-.53,1.34-.8,2.29-1.22,3.62s-.84,4.26-1,4.57c-.57,1.32-.71,3-1.28,4.5-2.71,7.36-3.94,14.5-6.53,21.84-.53,1.52-.5,3-.9,4.65-1.15,4.66-3.63,9.23,2,11.48.95.38,4.85,1.39,6.16.82,3-1.3,6.44-8.49,8.18-11.63,3.11-5.65,6.71-10,10.29-15.14.33-.23,1-1.21,1.34-1.43a31.56,31.56,0,0,0,3.27-3.93c.4-.27,1.2-1.43,1.6-1.7,1-1.44,1.48-1.77,2.45-3.14.52-.43,1.38-1.77,1.91-2.19,1.19-1.75,2.36-3.87,4.2-5l.53.3a18.49,18.49,0,0,1-.23,6.15L420.5,556.2c-.28,2-.24,3.09-.52,5.07,0,1-.31,2.86-.31,3.86-.07.5-.15,1-.22,1.5.39,3.24-1.71,8.55.15,11.25.79,1.15,9,3.77,11.18,2.41s2.82-4,4.2-6.08c2.54-3.9,5.33-8.41,8.1-11.86-.05-.07.53-.56.49-.64a20.47,20.47,0,0,0,2.15-3.08c2.14-3.25,4.52-6.54,6.82-9.63.84-1.13,2.77-4.65,4.5-4.36.72.56.51,1.91.38,2.93-.36,2.64-1.05,7.58-1.38,11.22-.28,3-.66,6.32-1,9.26.07.9-.12,2,0,2.94-.87,10.67,2,21.67,15.73,18.6,1.26-.29,2.06.43,3.22.15a1.59,1.59,0,0,0,.46-1c-4-.46-5.5-8-5.48-12.52-.1,0,0-1.7-.07-1.67.2-3.63-.08-6.35.55-9.35-.05-.64.43-2.59.39-3.24a39.74,39.74,0,0,0,.56-4.2c.13-1.28.1-2.8.37-4.21.76-3.88,2.09-13.55,1.28-16.21l-1.13-1.57c-1.31-1-7.1-3.63-9.75-3-2.81.67-6,5.22-7.76,7.15-.6.68-1.35,1.5-1.92,2.24-3.45,4.43-9.09,10.66-12.46,15.49a7.53,7.53,0,0,1-1,1.23,32.26,32.26,0,0,0-3.38,4.36,1.11,1.11,0,0,1-.07-.16c-.56-.47-.21-1.84-.31-2.77a29.6,29.6,0,0,1,.68-6.68l2.4-14.56a31.32,31.32,0,0,0,.93-5.63,6,6,0,0,0-.1-1.12c-.33-.6-.65-1.2-1-1.8-1.37-1.88-8.22-5.75-11.34-4.43a11.11,11.11,0,0,0-3.69,3.15c-.22.19-.59.63-.8.86-1.9,1.91-4.26,4.9-6.24,7.4-1.32,1.67-2.49,2.53-4,4.35-.45.55-1.42,1.32-2,2.1-.93,1.23-3.88,4.76-5.39,6.53a7.73,7.73,0,0,1-1.74,1.87h-.75a1.24,1.24,0,0,1-.15-1,28.21,28.21,0,0,1,1.55-6.9c.3-1.58.78-2.86,1.08-4.43,1.88-5.15,3.76-9.84,5.17-15.08,1.89-7-2-11.87-9.15-11.78"/><path class="cls-2" d="M502.66,514.5l-2.1.23a5.61,5.61,0,0,0-3,1.87c-.93,1.42-2.16,5.95-2.4,6.45-.77,2.35-1.49,5.44-2.23,7.7-2.77,8.55-5.17,14.12-7.9,22.54-.56,1.72-1.23,3.47-1.73,5a12.64,12.64,0,0,1-1,3,5,5,0,0,1-.44,1.72c-.52,1.27-1.95,7.19-2.32,8.14a23.81,23.81,0,0,0-1.1,7,4.24,4.24,0,0,0,1.09,2.15c.55.69,1.5.86,2.18,1.43a30.19,30.19,0,0,0,4.42,2.17c.39.13.71,0,.83.15,4.26-.37,6.64-7.77,8.63-11.1a138.65,138.65,0,0,1,9.68-14c.41-.53,2.32-3.21,3-3.91,1.46-1.88,3.15-3.55,4.73-5.32,2.19-2.47,4.63-5.49,6.9-6.08a1.13,1.13,0,0,1,1.05,1c-.36,7.46-2,16-1.68,23.29.1,2.67,0,4.34,0,5.66.05,1.85.36,3.33.41,5.18.47,2,1,5.44,2.17,7.13.49.71,1.72,1.58,1.72,1.73,1,.84,6.72,1.93,8.71,1.2s3.62-2.46,5.19-3.65c2.82-2.12,4.26-4.34,6.64-7a18.16,18.16,0,0,0,3.54-5.9c.58-1.7,1.38-2.27,1.36-4.83l-.15.08c-.53,1.1-1.92,1.75-2.78,2.56-2.19,2-8.69,6-13,5-1.63-2.27-.67-7.08-.67-10.21A61.41,61.41,0,0,1,535,546.16c.62-1.85.8-3.76,1.5-5,.07-.47.15-.94.23-1.42.8-2.64.11-3.93-2-5.4s-4.17-3.36-7.47-2.65c-.73.07-1.49.55-2.21.62a64.63,64.63,0,0,0-10.25,8.11c-2.64,2.37-5.68,5.1-7.84,7.5-1.11,1.24-6,7.11-7.43,7.2l-.75-.3c.1-.7.55-2,.65-2.67,1.14-3,2.38-5.26,3.48-8.2.2-.81,2.44-6.16,3.15-7.81s3.4-9.06,4-11c1.36-4.43-1-7.15-3.53-8.85-1.16-.77-1.86-1.83-3.9-1.8"/><path class="cls-2" d="M367.28,531.6a18.89,18.89,0,0,0-6.36-3,20.17,20.17,0,0,0-3.08.22,30.89,30.89,0,0,1-2.13,5.13c-.86,2-2.16,4.2-2.74,5.6a7,7,0,0,1-1.13,2,24.39,24.39,0,0,1-1.44,2.62,26.75,26.75,0,0,1-1.78,2.78,7.33,7.33,0,0,1-1.05,1.73c-.66.58-1.58,2-1.73,2.1-.65.78-1.12,1.55-1.73,2.4-.32.25-3.06,3.82-4.2,5.4-.31.42-1.17,1.59-1.39,1.92a20.17,20.17,0,0,1-2,2.5c-.45.35-1.64,2-2.42,2.58-1.33,1.49-2.54,3.52-5.33,2.83l-.52-.6c0-.85,0-1.7.07-2.55a17.61,17.61,0,0,1,.78-3.82c.07-.68.54-1.75.62-2.42a17.52,17.52,0,0,1,.55-2.12c.27-.74.56-2.27.83-3a8.45,8.45,0,0,0,.74-2.18c1.48-3.36,2.34-6.68,4-10,2.24-4.47,6.83-14.83,6.83-15.3,1.74-4.5-.74-7.87-4.8-8.86-3.15-.77-6.14.49-7.28,2.48-.51.87-.38,1.54-.93,2.62s-1.36,2.54-2.09,4.27c-.17.41-.34.8-.58,1.28-.95,1.86-1.44,3.74-2.25,5.48a125.7,125.7,0,0,0-6.15,16.88c-.39,1.26-1.2,4-1.8,6.3-.56,1.92-1.66,6.76-1.88,8.34-.13.86-.29,2-.45,2.77,0,.63-.18,1.34-.15,2a17.77,17.77,0,0,0,1,7.42,6,6,0,0,0,1.79,2.77c1.57,1.39,3,1.39,5.18,1.79A8.78,8.78,0,0,0,326,582c2.76-.88,6.59-5.26,6.94-5.44.43-.69,4.35-5.07,4.91-5.82.13-.17,2.8-3.6,3.61-4.72a51.58,51.58,0,0,1,3.76-4.73c1.54-2,2.64-3.63,4.34-5.77a1.07,1.07,0,0,1,.89.15,28.86,28.86,0,0,1-.5,6.08c0,1.62-.34,4.1-.37,5.72A23.62,23.62,0,0,0,350,575a18.37,18.37,0,0,0,2.12,5.07,10.1,10.1,0,0,0,2.68,2.73,18.59,18.59,0,0,0,4.73,2.32,11.68,11.68,0,0,0,6.3-.6c4.66-1.9,9.57-7.36,10.88-14.62-1.31,1-3.23,3-4.58,3.67-1.57.84-7.08,2.81-8.55.68-1.18-1.71-.81-5.63-.52-8.11a141.52,141.52,0,0,1,6.15-28.28c.29-.59.17-1.5.29-1.6-.18-2-.47-3.21-2.26-4.62"/><path class="cls-2" d="M566.82,523.73l-2.26.16a5,5,0,0,0-2.18,1.35c-2,2.08-3.66,10.42-4.72,14-1.8,6-3.58,14.64-5,21.68a58.74,58.74,0,0,0-.87,9.91c.63,6.37,2.07,9.11,4.82,11.18a19.37,19.37,0,0,0,5.9,2.46c4.55,1.09,11.73-4.45,13.56-8.77a40.87,40.87,0,0,0,2.33-6.07c.18-.78.54-2.08,0-2.48l-.53-.14a20.6,20.6,0,0,1-8.78,6.74c-2.1.87-4.55.59-5-1.58-.34-1.61,1-6.61,1.36-8.17s.89-3.31,1.28-4.81c.66-2.52,1.1-4.84,1.82-7.27.17-.82,1.64-4.54,1.82-5.37,2.06-5,3-8.29,4.67-12.86,2-5.62-3.06-9.66-8.17-9.91"/><path class="cls-2" d="M436,544.49s.05.11.08.15,0-.1-.08-.15"/><path class="cls-2" d="M220.33,559.18c-1.56,4.8-4.69,16.17-1.21,21.08a8,8,0,0,0,3.23,2.63,14.73,14.73,0,0,0,2.55,1c3.81.65,10.41-2.91,11.91-4.87,1.58-1.76,4.77-5.63,6-7.35.37-.69,2.08-3,2.7-3.84.82-1.1,4-5.4,4.73-6.44,1.36-2,3.74-5.44,5.34-6.66.25.12.77.07,1,.64a60.52,60.52,0,0,0-.83,7.66,95,95,0,0,0,.5,11.79c.73,4.65,2.38,9,6.47,10.05,3.61.86,5.66.73,8.87-1.39s7.51-4.4,9.56-7.06a15,15,0,0,0,2.45-2.63c1.31-2,3.36-3.61,3.36-6.86-1.94,1.18-4.59,2.88-6.23,3.61s-7.28,3.38-9.23,2c-2.1-1.54-1.94-5.2-1.9-8.07,0-1.28.21-4.17.39-5.58.25-2,.63-4,1.15-6.49.71-3.4,2-7.24,3-10.7.73-2.5,2-6,2-6a6.4,6.4,0,0,0,.29-2.65c-.5-2.37-3.33-3.35-5.7-3.9-5.64-1.32-7.16,4.26-8.84,7.13-1.18,2-2.45,4.17-3.85,6.07-.38.54-1.42,2.37-1.64,2.71-.41.8-3,4-3.68,5-2.79,3.89-9.74,12.89-10.28,13.65a30.6,30.6,0,0,1-4.17,5c-.56.51-2.3,2-4.11,2s-2.05-1.54-2.05-3.4c.19-4.29,3.47-11.87,5.47-15.76.12-.24,2.49-4.71,2.49-4.71,1.67-2.62,3.33-5.66,5.58-8.79,1.15-1.59,2-2.63,3.34-4.23.8-1,1.77-1.93,2.57-2.89a28.44,28.44,0,0,1,2.82-2.69,45.46,45.46,0,0,1,4.43-3.67c.5-.37,2.05-1.08,3-1.6,4.36-2,6.54-.08,9,1.6.17.36,1,1.33,1.22,1.67.42-.06.66-.62.9-.83,0-6.18-4.09-11.78-8.71-12.88-3.72-.88-8.14,1.56-10.51,2.85a41.69,41.69,0,0,0-6,3.87,52.27,52.27,0,0,0-4,3.66c-1.23,1.19-3,3.33-3.33,3.66-1,1.3-3.67,4.46-4.56,5.62-.44.4-4.54,6.42-6.3,9.08-2.11,3.2-7.69,13.73-9.07,18"/></g></svg>