<svg id="Layer_1" data-name="Layer 1" xmlns="http://www.w3.org/2000/svg" viewBox="0 0 800 600"><defs><style>.cls-1{fill:#fff;}</style></defs><g id="Tibco"><path class="cls-1" d="M463.56,259.29q12.19-22.86,37.21-29.82a76.54,76.54,0,0,1,25.4-2.45,86.38,86.38,0,0,1,20.19,3.5,95.16,95.16,0,0,1,23.19,11.1c.67.43,1.14.83,1.54-.34q3.51-10.2,7.13-20.35c.32-.92.06-1.38-.75-1.86a67.18,67.18,0,0,0-7.21-3.82,118.67,118.67,0,0,0-56.73-10.39,90.52,90.52,0,0,0-32.65,7.93c-22.65,10.36-37.59,27.71-45.7,51-5.34,15.37-6.72,31.25-5.39,47.42a102,102,0,0,0,9.89,37.07,81.82,81.82,0,0,0,24,29.44c13.33,10.17,28.5,15.61,45.08,17.44,2.09.24,4.23.13,6.28.76h14c.23-.63.81-.44,1.24-.47a117.62,117.62,0,0,0,30.87-6.95,95.84,95.84,0,0,0,14.71-7c.63-.37,1.4-.61,1.21-1.71-1.28-7.51-2.5-15-3.74-22.55-.16-1-.25-1.49-1.45-.64-18.87,13.27-39.61,19.42-62.72,16A60.13,60.13,0,0,1,478.68,359c-9.73-8.19-16.08-18.6-19.91-30.6-3.92-12.25-4.86-24.83-3.88-37.59.85-11.06,3.41-21.67,8.67-31.51"/><path class="cls-1" d="M182.23,210.75c0-1.47-.36-1.85-1.85-1.85q-74.55.06-149.09,0c-.52,0-1.07.16-1.55-.2v23.91a2.48,2.48,0,0,1,1.42-.16q30.4,0,60.8,0c1.38,0,1.67.42,1.67,1.72q-.06,31,0,62,0,46.88,0,93.76c0,1.36.39,1.68,1.71,1.67q10.73-.1,21.44,0c1.29,0,1.62-.35,1.62-1.63q0-77.06,0-154.12c0-1.06,0-2.13-.08-3.2a.17.17,0,0,0,.14-.18c.15,0,.29,0,.44,0q31,0,62.08,0c1.19,0,1.33-.49,1.33-1.48,0-6.75-.07-13.51,0-20.26"/><path class="cls-1" d="M716.85,211.27A100.72,100.72,0,0,0,678.74,204a93.54,93.54,0,0,0-10.18.52,87.56,87.56,0,0,0-25.66,6.29c-20.16,8.38-35.07,22.5-45,41.88a99.88,99.88,0,0,0-10.36,36.93,119.53,119.53,0,0,0,1.94,34.49c.37,1.85.39,1.87,2.07,1.16,2.15-.92,4.29-1.83,6.41-2.81,21.86-10.09,41.55-23.51,59.77-39.16a305.85,305.85,0,0,0,35.45-36,269.06,269.06,0,0,0,24.33-33.95c.67-1.11.67-1.58-.68-2.13"/><path class="cls-1" d="M235.89,347.65q0-68.46,0-136.9c0-1.4-.35-1.8-1.76-1.79-6.9.07-13.8,0-20.7,0-2.33,0-2.13-.33-2.13,2.07V389.53c0,2,0,2,1.93,2,6.95,0,13.9,0,20.85,0,1.38,0,1.82-.34,1.82-1.77-.06-14-.05-28.09-.05-42.13"/><path class="cls-1" d="M728,216.9c-1.69-1-3.38-1.91-5.11-2.8-2.48-1.29-2.48-1.26-3.77,1.17q-6.87,12.94-14.92,25.19a347.21,347.21,0,0,1-40,50.4,301.65,301.65,0,0,1-37.54,33.35A245.68,245.68,0,0,1,597,343.34c-.75.4-1.1.74-.67,1.67a90.47,90.47,0,0,0,11,18c.81,1,1.35,1,2.34.28q10.89-7.68,21.09-16.29A353.06,353.06,0,0,0,670,308.13a396.46,396.46,0,0,0,42.86-59.68q8.38-14.35,15.42-29.41c.21-.44.38-.89.54-1.27,0-.58-.44-.69-.76-.87"/><path class="cls-1" d="M769.73,287.39a100.42,100.42,0,0,0-8.9-33.92,69,69,0,0,0-7.8-13.26,2.75,2.75,0,0,0-.24-.52,82.16,82.16,0,0,0-20.94-20.43c-.86-.59-1.06-.3-1.39.5q-4.32,10.5-9,20.84a478.75,478.75,0,0,1-32.27,59.94c-2.06,3.23-4.13,6.45-6.18,9.68a4.69,4.69,0,0,0-1.09,1.34q-11.55,16.9-24.69,32.62l-7.48,8.9a73.23,73.23,0,0,0-5.67,6.27h0a43.89,43.89,0,0,0-4.65,5l-.28.3-13.69,13.74c-.68.35-.89.73-.09,1.21.45.28.87.61,1.32.9A88.43,88.43,0,0,0,663,393.93c19,2.72,37.49.8,55.08-7.34,1.9-.88,3.78-1.81,5.61-2.81a59.56,59.56,0,0,0,8.72-5.77h0a16.62,16.62,0,0,0,3.18-2.28l1-.85a66.22,66.22,0,0,0,9.83-9.69h0a26.93,26.93,0,0,0,3.18-3.65c.32-.43.62-.88.92-1.33a1.76,1.76,0,0,0,.33-.27,95,95,0,0,0,15.37-31.33,112.44,112.44,0,0,0,3.51-41.22"/><path class="cls-1" d="M391.35,285.42l-.28.29.14.14.29-.28-.15-.15"/><path class="cls-1" d="M408.89,342.8a52.1,52.1,0,0,1-4.19,18.79c-.55,1.23-1.13,2.45-1.78,3.62a29,29,0,0,1-3.86,5.5,32.91,32.91,0,0,1-6.85,7c-.86.67-1.75,1.31-2.65,1.93-8,5.55-17.11,8.43-26.61,10.14a134.68,134.68,0,0,1-24.24,1.76q-29.16,0-58.31,0c-1.12,0-1.49-.25-1.49-1.44q.06-90,0-179.9c0-1.08.35-1.29,1.33-1.29,20.7,0,41.41-.1,62.11.06,11.48.09,22.76,1.72,33.43,6.28,11.25,4.81,19.92,12.39,24.15,24.09,4.36,12,4.76,24.15-.83,36a30.77,30.77,0,0,1-7.61,10.21l-.29.28h0a40.09,40.09,0,0,1-8.69,6.66c-1.89,1.11-3.85,2.1-5.85,3-1.3.61-2.63,1.16-4.23,1.87,2.66.9,5,1.65,7.35,2.51a51.38,51.38,0,0,1,10.74,5.44c.31.22.58.5.87.75a35.39,35.39,0,0,1,10,9.58c5.88,8.09,7.94,17.24,7.45,27.11m-82.95-111c-7.7,0-14.17,0-20.63,0-1.11,0-1.51.27-1.51,1.46q.06,27.12,0,54.24c0,1.26.42,1.53,1.59,1.52,10.79,0,21.58,0,32.37,0a61.78,61.78,0,0,0,21.05-3.3c12.69-4.57,19.47-13.86,19.34-26.95-.09-8.79-3.57-15.93-11.11-20.78-6.28-4-13.32-5.46-20.63-5.92s-14.48-.07-20.48-.21m57.72,103.73c-1.33-9.7-7.31-15.81-16.06-19.47a62.11,62.11,0,0,0-23.35-4.39c-13-.18-26.05-.08-39.08-.12-1,0-1.36.26-1.36,1.3q0,27.27,0,54.53c0,1,.34,1.24,1.27,1.23,4,0,8.06,0,12.1,0,11.42-.13,22.85.45,34.25-.31,9.54-.64,18.6-2.83,25.91-9.6a.14.14,0,0,1,.09-.12,1.17,1.17,0,0,1,.17-.29c5.88-6.55,7.22-14.38,6.06-22.74"/></g></svg>