<svg id="Layer_1" data-name="Layer 1" xmlns="http://www.w3.org/2000/svg" viewBox="0 0 800 600"><defs><style>.cls-1{fill:#fff;}</style></defs><g id="UCSF"><path class="cls-1" d="M692.28,282.17V247H558.34V376.7c-.72-15.2-6.27-27-16.78-35.29q-10.9-8.6-32.74-13.74l-33.23-7.83q-19.23-4.5-25.15-7.84a17,17,0,0,1-7.65-7.71h0l0-.07h0a17.8,17.8,0,0,1-1.55-7.4,19.26,19.26,0,0,1,6.11-14.61h0l.27-.25h0s0,0,0,0a24.16,24.16,0,0,1,3-2.31q9.36-6.17,25-6.17,14.09,0,23.57,4.75,14.22,7.2,15.27,24.28h38Q551.4,272.32,530,256.45t-51.68-15.86q-36.27,0-55,16.83a54.74,54.74,0,0,0-15.93,23.94h0a54.46,54.46,0,0,0-1.59,6h0c-4.63,21.84-18.69,36.66-42.19,36.66-37.64,0-51.77-32-51.77-63.77,0-33.35,14.13-65.35,51.77-65.35,20.8,0,38.95,14.4,41.61,33.34h40.56c-5.07-44-40.29-68.57-82.17-68.57-56.24,0-90.36,40.05-93.41,92.81V164.24h-41.9V282.7c0,28.28-9.6,41.35-39.48,41.35-33.89,0-39.22-20.54-39.22-41.35V164.24H107.72V282.7c0,51.76,29.88,76.57,81.11,76.57,51,0,81.38-25.07,81.38-76.57V267.85c3.05,51.38,37.17,91.42,93.41,91.42,23.1,0,42.81-7.45,57.34-20.73.9.73,1.82,1.43,2.8,2.1q11.3,7.83,41.52,14.51l20.49,4.5q18,3.86,26.29,8.86T520.34,383q0,16.07-16.92,22-8.91,3.08-23.21,3.08-23.86,0-33.7-11.69Q441.14,390,439.3,377H401.54q0,29.53,21.42,46.42t58.8,16.89q36.62,0,56.67-17.14,18.44-15.77,19.91-39v53.29h41.89V358.75H680V326.19H600.23v-44Z"/></g></svg>