<svg id="Layer_1" data-name="Layer 1" xmlns="http://www.w3.org/2000/svg" viewBox="0 0 800 600"><defs><style>.cls-1{fill:#fff;}</style></defs><g id="Unit_4" data-name="Unit 4"><path class="cls-1" d="M152.06,216.4v99.39c0,24.75-14.78,39.53-39.54,39.53-24.93,0-39.81-14.78-39.81-39.53V216.4h-33V312c0,44.17,29.27,73.84,72.84,73.84s72.82-29.67,72.82-73.84V216.4Z"/><path class="cls-1" d="M299.82,214.14C256.26,214.14,227,243.82,227,288v96.41h33.29V284.21c0-24.76,14.78-39.54,39.54-39.54,24.92,0,39.8,14.78,39.8,39.54V384.38h33V288C372.66,243.82,343.38,214.14,299.82,214.14Z"/><rect class="cls-1" x="422.12" y="216.39" width="33.03" height="167.99"/><polygon class="cls-1" points="499.28 216.4 499.28 247.68 548.75 247.68 548.75 384.38 581.79 384.38 581.79 247.68 631.26 247.68 631.26 216.4 499.28 216.4"/><path class="cls-1" d="M760.32,216.4H724.57L644.28,328.86a15.29,15.29,0,0,0,12.53,24h0l61.29,0v31.51h30.58l.09-57.79H683.15Z"/></g></svg>