<svg id="Layer_1" data-name="Layer 1" xmlns="http://www.w3.org/2000/svg" viewBox="0 0 800 600"><defs><style>.cls-1{fill:#fff;}</style></defs><g id="Veeva"><path class="cls-1" d="M613.34,241h-25.4l-43.12,86-43-86h-25c26.95,53.91,68.2,136.49,68.2,136.49Z"/><path class="cls-1" d="M412.85,263.14a46.08,46.08,0,0,1,44.65,34.92H368.21a46.08,46.08,0,0,1,44.64-34.92m0,92a46.08,46.08,0,0,1-44.64-34.91H481V309.13a68.05,68.05,0,1,0-7.83,31.75h-27a46,46,0,0,1-33.3,14.22"/><path class="cls-1" d="M675.84,355.61a46,46,0,1,1,46-46.75v1.52a46,46,0,0,1-46,45.23m68.14-46c0-.24,0-.49,0-.76V242.68H721.8v16.79a68.13,68.13,0,1,0,0,100.3v16.92H744V310.38c0-.25,0-.51,0-.76"/><path class="cls-1" d="M261.63,263.14a46.1,46.1,0,0,1,44.64,34.92H217a46.1,46.1,0,0,1,44.67-34.92m0,92A46.1,46.1,0,0,1,217,320.19h112.8V309.13a68.08,68.08,0,1,0-7.84,31.75h-27a45.9,45.9,0,0,1-33.27,14.22"/><polygon class="cls-1" points="56.02 222.25 82.5 222.25 132.95 323.59 183.01 222.25 209.01 222.25 132.67 377.28 56.02 222.25"/><path class="cls-1" d="M98.08,222.52l34.48,68.79L167,222.52s-68.92-.1-68.92,0"/></g></svg>